SplineFontDB: 3.0
FontName: Scribblz
FullName: Scribblz
FamilyName: ScribblzFamily
Weight: Medium
Copyright: Created by MyScriptFont.com and Nathan Clement.
Version: 001.000
ItalicAngle: 0
UnderlinePosition: -100
UnderlineWidth: 50
Ascent: 800
Descent: 200
sfntRevision: 0x00010000
LayerCount: 2
Layer: 0 1 "Back"  1
Layer: 1 1 "Fore"  0
XUID: [1021 49 2056101218 10281258]
FSType: 0
OS2Version: 1
OS2_WeightWidthSlopeOnly: 0
OS2_UseTypoMetrics: 1
CreationTime: 1277802766
ModificationTime: 1385172727
PfmFamily: 65
TTFWeight: 500
TTFWidth: 5
LineGap: 90
VLineGap: 0
Panose: 3 0 6 3 0 0 0 0 0 0
OS2TypoAscent: 800
OS2TypoAOffset: 0
OS2TypoDescent: -200
OS2TypoDOffset: 0
OS2TypoLinegap: 90
OS2WinAscent: 801
OS2WinAOffset: 0
OS2WinDescent: 201
OS2WinDOffset: 0
HheadAscent: 801
HheadAOffset: 0
HheadDescent: -201
HheadDOffset: 0
OS2SubXSize: 650
OS2SubYSize: 699
OS2SubXOff: 0
OS2SubYOff: 140
OS2SupXSize: 650
OS2SupYSize: 699
OS2SupXOff: 0
OS2SupYOff: 479
OS2StrikeYSize: 49
OS2StrikeYPos: 258
OS2Vendor: 'PfEd'
OS2CodePages: 00000001.00000000
OS2UnicodeRanges: 80000007.00000002.00000000.00000000
DEI: 91125
TtTable: prep
PUSHW_1
 511
SCANCTRL
PUSHB_1
 1
SCANTYPE
SVTCA[y-axis]
MPPEM
PUSHB_1
 8
LT
IF
PUSHB_2
 1
 1
INSTCTRL
EIF
PUSHB_2
 70
 6
CALL
IF
POP
PUSHB_1
 16
EIF
MPPEM
PUSHB_1
 20
GT
IF
POP
PUSHB_1
 128
EIF
SCVTCI
PUSHB_1
 6
CALL
NOT
IF
EIF
EndTTInstrs
TtTable: fpgm
PUSHB_1
 0
FDEF
PUSHB_1
 0
SZP0
MPPEM
PUSHB_1
 42
LT
IF
PUSHB_1
 74
SROUND
EIF
PUSHB_1
 0
SWAP
MIAP[rnd]
RTG
PUSHB_1
 6
CALL
IF
RTDG
EIF
MPPEM
PUSHB_1
 42
LT
IF
RDTG
EIF
DUP
MDRP[rp0,rnd,grey]
PUSHB_1
 1
SZP0
MDAP[no-rnd]
RTG
ENDF
PUSHB_1
 1
FDEF
DUP
MDRP[rp0,min,white]
PUSHB_1
 12
CALL
ENDF
PUSHB_1
 2
FDEF
MPPEM
GT
IF
RCVT
SWAP
EIF
POP
ENDF
PUSHB_1
 3
FDEF
ROUND[Black]
RTG
DUP
PUSHB_1
 64
LT
IF
POP
PUSHB_1
 64
EIF
ENDF
PUSHB_1
 4
FDEF
PUSHB_1
 6
CALL
IF
POP
SWAP
POP
ROFF
IF
MDRP[rp0,min,rnd,black]
ELSE
MDRP[min,rnd,black]
EIF
ELSE
MPPEM
GT
IF
IF
MIRP[rp0,min,rnd,black]
ELSE
MIRP[min,rnd,black]
EIF
ELSE
SWAP
POP

StartChar: .notdef
Encoding: 65536 -1 0
Width: 364
Flags: W
LayerCount: 2
Fore
SplineSet
33 0 m 1,0,-1
 33 666 l 1,1,-1
 298 666 l 1,2,-1
 298 0 l 1,3,-1
 33 0 l 1,0,-1
66 33 m 1,4,-1
 265 33 l 1,5,-1
 265 633 l 1,6,-1
 66 633 l 1,7,-1
 66 33 l 1,4,-1
EndSplineSet
Validated: 1
EndChar

StartChar: exclam
Encoding: 33 33 4
Width: 402
Flags: W
LayerCount: 2
Fore
SplineSet
135 -20 m 0,0,1
 145 -18 145 -18 154 -18 c 0,2,3
 171 -18 171 -18 185 -26 c 0,4,5
 205 -38 205 -38 232 -74 c 0,6,7
 255 -105 255 -105 255 -125 c 0,8,9
 255 -148 255 -148 221 -175 c 0,10,11
 198 -192 198 -192 183.5 -196.5 c 128,-1,12
 169 -201 169 -201 137 -201 c 0,13,14
 87 -201 87 -201 78 -191 c 0,15,16
 69 -182 69 -182 68 -156 c 0,17,18
 68 -153 68 -153 68 -149 c 0,19,20
 68 -126 68 -126 74 -102 c 0,21,22
 80 -74 80 -74 96.5 -49 c 128,-1,23
 113 -24 113 -24 135 -20 c 0,0,1
195 773 m 0,24,25
 198 791 198 791 203.5 795 c 128,-1,26
 209 799 209 799 234 799 c 0,27,28
 237 799 237 799 239 799 c 0,29,30
 270 799 270 799 279 788 c 0,31,32
 284 782 284 782 284 711 c 0,33,34
 284 699 284 699 284 685 c 0,35,36
 284 625 284 625 282 530 c 0,37,38
 277 308 277 308 270 284 c 0,39,40
 267 273 267 273 258 263 c 2,41,-1
 239 242 l 1,42,-1
 178 275 l 1,43,-1
 178 360 l 1,44,45
 179 446 179 446 185 597 c 128,-1,46
 191 748 191 748 195 773 c 0,24,25
EndSplineSet
Validated: 1
EndChar

StartChar: quotedbl
Encoding: 34 34 5
Width: 539
Flags: W
LayerCount: 2
Fore
SplineSet
383 403 m 1,0,1
 378 411 378 411 378 422 c 0,2,3
 378 440 378 440 393 465 c 0,4,5
 410 493 410 493 419 516 c 1,6,-1
 427 540 l 1,7,-1
 416 547 l 2,8,9
 404 554 404 554 380 558 c 1,10,11
 334 568 334 568 317 599 c 1,12,-1
 308 618 l 1,13,-1
 312 639 l 1,14,15
 326 695 326 695 377 695 c 0,16,17
 390 695 390 695 405 691 c 0,18,19
 430 683 430 683 449 669 c 1,20,-1
 468 653 l 1,21,-1
 480 610 l 1,22,-1
 493 567 l 1,23,-1
 489 528 l 1,24,-1
 485 488 l 1,25,-1
 466 462 l 2,26,27
 448 437 448 437 437 418 c 1,28,-1
 428 399 l 1,29,-1
 410 398 l 2,30,31
 392 397 392 397 383 403 c 1,0,1
152 375 m 0,32,33
 151 378 151 378 151 382 c 0,34,35
 151 405 151 405 178 453 c 1,36,-1
 192 475 l 1,37,-1
 190 499 l 1,38,-1
 188 522 l 1,39,-1
 145 523 l 2,40,41
 144 523 144 523 143 523 c 0,42,43
 99 524 99 524 89 526 c 128,-1,44
 79 528 79 528 67 540 c 2,45,-1
 50 556 l 1,46,-1
 53 573 l 2,47,48
 57 591 57 591 66 618 c 2,49,-1
 75 646 l 1,50,-1
 100 663 l 1,51,-1
 126 679 l 1,52,-1
 140 673 l 2,53,54
 154 667 154 667 166 666 c 1,55,56
 185 666 185 666 200 636 c 0,57,58
 203 630 203 630 203 625 c 0,59,60
 205 614 205 614 221 591 c 1,61,62
 249 547 249 547 249 505 c 0,63,64
 249 477 249 477 236 450 c 0,65,66
 194 366 194 366 163 366 c 2,67,68
 163 366 163 366 162 366 c 0,69,70
 155 371 155 371 152 375 c 0,32,33
EndSplineSet
Validated: 1
EndChar

StartChar: dollar
Encoding: 36 36 7
Width: 570
Flags: W
LayerCount: 2
Fore
SplineSet
151 636 m 1,0,1
 156 646 156 646 170 646 c 0,2,3
 171 646 171 646 172 646 c 0,4,5
 185 646 185 646 197 638 c 128,-1,6
 209 630 209 630 226 571 c 2,7,-1
 243 511 l 1,8,-1
 274 513 l 2,9,10
 323 516 323 516 323 554 c 0,11,12
 323 560 323 560 322 568 c 0,13,14
 320 577 320 577 320 586 c 0,15,16
 320 602 320 602 327 616 c 0,17,18
 337 636 337 636 356 637 c 0,19,20
 370 637 370 637 381.5 624 c 128,-1,21
 393 611 393 611 399.5 595 c 128,-1,22
 406 579 406 579 420 563.5 c 128,-1,23
 434 548 434 548 453 545 c 0,24,25
 481 540 481 540 502 522 c 0,26,27
 521 506 521 506 521 491 c 0,28,29
 521 480 521 480 512 474 c 0,30,31
 505 470 505 470 487 466 c 1,32,33
 444 459 444 459 432 435.5 c 128,-1,34
 420 412 420 412 418 333 c 0,35,36
 417 301 417 301 417 280.5 c 128,-1,37
 417 260 417 260 418 252 c 0,38,39
 420 236 420 236 430 233 c 0,40,41
 457 224 457 224 484 196 c 128,-1,42
 511 168 511 168 528 132 c 0,43,44
 554 76 554 76 558 44 c 0,45,46
 559 38 559 38 559 33 c 0,47,48
 559 8 559 8 546 -16 c 0,49,50
 530 -45 530 -45 482 -92 c 0,51,52
 419 -155 419 -155 405 -178 c 0,53,54
 395 -193 395 -193 385.5 -196.5 c 128,-1,55
 376 -200 376 -200 347 -200 c 0,56,57
 304 -200 304 -200 294 -188 c 128,-1,58
 284 -176 284 -176 261.5 -176 c 128,-1,59
 239 -176 239 -176 232 -188 c 0,60,61
 226 -199 226 -199 198 -199 c 0,62,63
 192 -199 192 -199 184 -198 c 2,64,-1
 144 -196 l 1,65,-1
 139 -154 l 2,66,67
 135 -122 135 -122 122 -96 c 128,-1,68
 109 -70 109 -70 96 -70 c 0,69,70
 86 -70 86 -70 62 -45 c 0,71,72
 45 -27 45 -27 44 -22 c 128,-1,73
 43 -17 43 -17 55 -8 c 0,74,75
 71 4 71 4 94 9 c 0,76,77
 123 15 123 15 131.5 39.5 c 128,-1,78
 140 64 140 64 140 142 c 0,79,80
 140 191 140 191 138.5 212.5 c 128,-1,81
 137 234 137 234 129.5 245.5 c 128,-1,82
 122 257 122 257 113.5 259 c 128,-1,83
 105 261 105 261 84.5 272.5 c 128,-1,84
 64 284 64 284 43 304 c 0,85,86
 23 324 23 324 16.5 336.5 c 128,-1,87
 10 349 10 349 10 367 c 0,88,89
 10 390 10 390 25.5 412 c 128,-1,90
 41 434 41 434 58 435 c 0,91,92
 71 436 71 436 108 458 c 2,93,-1
 144 480 l 1,94,-1
 144 553 l 2,95,96
 144 625 144 625 151 636 c 1,0,1
325 368 m 0,97,98
 326 379 326 379 326 387 c 0,99,100
 326 414 326 414 319 422 c 0,101,102
 315 428 315 428 304.5 428 c 128,-1,103
 294 428 294 428 278 422 c 2,104,-1
 250 412 l 1,105,-1
 250 360 l 2,106,107
 250 323 250 323 253 314.5 c 128,-1,108
 256 306 256 306 272 300 c 0,109,110
 280 297 280 297 287 297 c 0,111,112
 302 297 302 297 310 308 c 0,113,114
 322 324 322 324 325 368 c 0,97,98
286 196 m 2,115,116
 262 212 262 212 255 213 c 1,117,-1
 254 213 l 2,118,119
 247 213 247 213 237 201 c 0,120,121
 225 187 225 187 225 107 c 1,122,123
 226 98 226 98 226 88 c 0,124,125
 228 -9 228 -9 240 -39 c 0,126,127
 249 -59 249 -59 256 -64.5 c 128,-1,128
 263 -70 263 -70 278 -70 c 0,129,130
 292 -70 292 -70 298.5 -65 c 128,-1,131
 305 -60 305 -60 310 -45 c 0,132,133
 315 -31 315 -31 315 -7 c 2,134,-1
 314 72 l 1,135,-1
 312 178 l 1,136,-1
 286 196 l 2,115,116
457 95 m 0,137,138
 440 124 440 124 430 131 c 0,139,140
 427 134 427 134 423 134 c 0,141,142
 418 134 418 134 414 126 c 0,143,144
 408 114 408 114 404 76 c 0,145,146
 401 52 401 52 401 34 c 0,147,148
 401 -19 401 -19 425 -21 c 0,149,150
 426 -21 426 -21 428 -21 c 0,151,152
 442 -21 442 -21 461 -2 c 128,-1,153
 480 17 480 17 480 37 c 0,154,155
 480 58 480 58 457 95 c 0,137,138
EndSplineSet
Validated: 1
EndChar

StartChar: percent
Encoding: 37 37 8
Width: 1015
Flags: W
LayerCount: 2
Fore
SplineSet
747.262695312 495.994140625 m 1,0,1
 758.075195312 494.830078125 758.075195312 494.830078125 771.044921875 488.76953125 c 0,2,3
 791.624023438 479.053710938 791.624023438 479.053710938 806.515625 477.931640625 c 0,4,5
 839.328125 477.747070312 839.328125 477.747070312 873.971679688 439.904296875 c 0,6,7
 878.254882812 434.645507812 878.254882812 434.645507812 880.278320312 431.872070312 c 0,8,9
 919.024414062 376.1953125 919.024414062 376.1953125 959.952148438 348.783203125 c 0,10,11
 973.58984375 341.154296875 973.58984375 341.154296875 980.778320312 331.852539062 c 0,12,13
 993.21484375 309.206054688 993.21484375 309.206054688 1002.8125 256.215820312 c 0,14,15
 1004.82421875 244.400390625 1004.82421875 244.400390625 1004.82421875 232.567382812 c 0,16,17
 1004.82421875 203.407226562 1004.82421875 203.407226562 992.60546875 174.131835938 c 0,18,19
 990.293945312 170.5078125 990.293945312 170.5078125 989.51171875 169.287109375 c 0,20,21
 985.033203125 163.829101562 985.033203125 163.829101562 983.735351562 157.322265625 c 0,22,23
 983.735351562 138.12890625 983.735351562 138.12890625 954.182617188 113.0390625 c 0,24,25
 949.358398438 110.115234375 949.358398438 110.115234375 947.32421875 109.23046875 c 0,26,27
 942.627929688 105.651367188 942.627929688 105.651367188 940.739257812 102.00390625 c 0,28,29
 937.6953125 96.888671875 937.6953125 96.888671875 934.557617188 94.78125 c 0,30,31
 926.881835938 92.6552734375 926.881835938 92.6552734375 916.28515625 84.62109375 c 0,32,33
 891.862304688 65.189453125 891.862304688 65.189453125 822.502929688 25.4658203125 c 0,34,35
 774.620117188 -1.9091796875 774.620117188 -1.9091796875 714.865234375 -1.9091796875 c 0,36,37
 705.4921875 -1.9091796875 705.4921875 -1.9091796875 695.828125 -1.2353515625 c 0,38,39
 674.939453125 0.3173828125 674.939453125 0.3173828125 646.2265625 3.3369140625 c 0,40,41
 572.462890625 11.162109375 572.462890625 11.162109375 568.377929688 32.927734375 c 0,42,43
 567.924804688 36.8828125 567.924804688 36.8828125 567.760742188 38.560546875 c 0,44,45
 563.705078125 63.2646484375 563.705078125 63.2646484375 548.010742188 65.8779296875 c 0,46,47
 534.78125 69.384765625 534.78125 69.384765625 506.4921875 95.9072265625 c 0,48,49
 471.389648438 128.0859375 471.389648438 128.0859375 458.080078125 128.0859375 c 0,50,51
 456.709960938 128.0859375 456.709960938 128.0859375 455.5703125 127.744140625 c 1,52,53
 444.470703125 119.998046875 444.470703125 119.998046875 404.784179688 76.4912109375 c 0,54,55
 363.713867188 31.828125 363.713867188 31.828125 345.264648438 21.626953125 c 0,56,57
 326.369140625 12.47265625 326.369140625 12.47265625 302.26953125 -2.533203125 c 0,58,59
 249.430664062 -34.2333984375 249.430664062 -34.2333984375 225.727539062 -34.2333984375 c 0,60,61
 217.383789062 -34.2333984375 217.383789062 -34.2333984375 212.650390625 -30.3046875 c 0,62,63
 207.03125 -26.5400390625 207.03125 -26.5400390625 193.036132812 -26.6923828125 c 0,64,65
 176.22265625 -26.5400390625 176.22265625 -26.5400390625 159.712890625 -17.8857421875 c 0,66,67
 146.394962037 -11.1947465313 146.394962037 -11.1947465313 134.645695938 -11.1947465313 c 0,68,69
 131.887534889 -11.1947465313 131.887534889 -11.1947465313 129.215820312 -11.5634765625 c 0,70,71
 117.379882812 -12.005859375 117.379882812 -12.005859375 115.241210938 -6.8232421875 c 0,72,73
 112.340820312 -1.927734375 112.340820312 -1.927734375 109.868164062 -0.275390625 c 1,74,75
 107.80859375 -1.0078125 107.80859375 -1.0078125 105.5390625 -1.0078125 c 0,76,77
 88.3037109375 -1.0078125 88.3037109375 -1.0078125 58.9501953125 41.2060546875 c 0,78,79
 51.3271484375 53.0546875 51.3271484375 53.0546875 47.5244140625 61.5908203125 c 0,80,81
 35.330078125 90.947265625 35.330078125 90.947265625 25.625 107.197265625 c 0,82,83
 17.4791657954 121.903553023 17.4791657954 121.903553023 17.4791657954 136.810836935 c 0,84,85
 17.4791657954 147.545451486 17.4791657954 147.545451486 13.53125 164.997070312 c 0,86,87
 8.037109375 189.333984375 8.037109375 189.333984375 8.037109375 215.061523438 c 0,88,89
 8.037109375 249.413085938 8.037109375 249.413085938 17.83203125 286.2421875 c 0,90,91
 27.341796875 321.30859375 27.341796875 321.30859375 30.998046875 344.04296875 c 0,92,93
 35.1904296875 365.798828125 35.1904296875 365.798828125 48.3330078125 387.393554688 c 0,94,95
 61.279296875 408.477539062 61.279296875 408.477539062 65.259765625 424.646484375 c 0,96,97
 70.759765625 453.76171875 70.759765625 453.76171875 119.125 471.5859375 c 0,98,99
 129.927734375 475.055664062 129.927734375 475.055664062 137.813476562 476.352539062 c 0,100,101
 159.98046875 480.100585938 159.98046875 480.100585938 164.955078125 485.833984375 c 0,102,103
 170.538085938 491.432617188 170.538085938 491.432617188 194.377929688 492.15625 c 1,104,105
 223.26953125 489.336914062 223.26953125 489.336914062 239.25390625 470.479492188 c 0,106,107
 255.07421875 450.263671875 255.07421875 450.263671875 257.125 441.581054688 c 0,108,109
 257.125 430.801757812 257.125 430.801757812 295.940429688 404.918945312 c 0,110,111
 305.482421875 399.334960938 305.482421875 399.334960938 309.5234375 398.229492188 c 0,112,113
 316.53125 394.836914062 316.53125 394.836914062 325.916992188 383.78125 c 0,114,115
 336.397460938 372.047851562 336.397460938 372.047851562 344.32421875 369.556640625 c 0,116,117
 350.978515625 365.768554688 350.978515625 365.768554688 354.400390625 358.943359375 c 0,118,119
 358.43359375 349.180664062 358.43359375 349.180664062 365.013671875 343.81640625 c 0,120,121
 374.368164062 336.729492188 374.368164062 336.729492188 387.182617188 317.8515625 c 0,122,123
 413.017578125 280.89453125 413.017578125 280.89453125 430.333984375 280.89453125 c 0,124,125
 441.303710938 280.89453125 441.303710938 280.89453125 448.85546875 295.7265625 c 1,126,-1
 454.615234375 301.790039062 l 1,127,-1
 456.645507812 298.209960938 l 1,128,129
 459.078852753 291.595951709 459.078852753 291.595951709 463.940251953 291.595951709 c 0,130,131
 471.957415087 291.595951709 471.957415087 291.595951709 486.578125 309.583984375 c 0,132,133
 489.538085938 313.3046875 489.538085938 313.3046875 490.638671875 314.692382812 c 0,134,135
 507.411132812 335.051757812 507.411132812 335.051757812 512.13671875 335.6875 c 1,136,-1
 517.115234375 341.330078125 l 2,137,138
 518.420898438 344.891601562 518.420898438 344.891601562 518.854492188 346.075195312 c 0,139,140
 526.0703125 361.470703125 526.0703125 361.470703125 556.7421875 387.393554688 c 0,141,142
 587.228515625 412.584960938 587.228515625 412.584960938 592.483398438 419.453125 c 0,143,144
 606.772460938 449.973632812 606.772460938 449.973632812 654.200195312 463.825195312 c 0,145,146
 660.709960938 465.3671875 660.709960938 465.3671875 664.499023438 465.96484375 c 0,147,148
 671.705078125 468.680664062 671.705078125 468.680664062 674.172851562 472.061523438 c 0,149,150
 678.229492188 481.74609375 678.229492188 481.74609375 719.31640625 487.866210938 c 0,151,152
 735.475585938 490.637695312 735.475585938 490.637695312 743.098632812 494.866210938 c 1,153,-1
 747.262695312 495.994140625 l 1,0,1
809.069335938 374.973632812 m 0,154,155
 808.540039062 374.975585938 808.540039062 374.975585938 808.010742188 374.975585938 c 0,156,157
 725.485351562 374.975585938 725.485351562 374.975585938 649.920898438 308.434570312 c 0,158,159
 642.819335938 301.887695312 642.819335938 301.887695312 638.43359375 297.53125 c 0,160,161
 569.78125 227.587890625 569.78125 227.587890625 557.951171875 225.055664062 c 0,162,163
 550.319335938 222.200195312 550.319335938 222.200195312 541.42578125 213.090820312 c 0,164,165
 536.776933291 207.618636626 536.776933291 207.618636626 536.776933291 202.466722545 c 0,166,167
 536.776933291 193.777877849 536.776933291 193.777877849 550 186 c 0,168,169
 557.974609375 181.502929688 557.974609375 181.502929688 566.685546875 176.96484375 c 0,170,171
 588.288085938 165.278320312 588.288085938 165.278320312 595.57421875 157.998046875 c 0,172,173
 601.891601562 153.9609375 601.891601562 153.9609375 607.932617188 155.514648438 c 0,174,175
 614.958007812 156.990234375 614.958007812 156.990234375 619.891601562 153.483398438 c 0,176,177
 628.81640625 141.084960938 628.81640625 141.084960938 652.7109375 141.084960938 c 0,178,179
 667.970703125 141.084960938 667.970703125 141.084960938 689.3359375 146.141601562 c 0,180,181
 699.900390625 149.154296875 699.900390625 149.154296875 706.418945312 152.127929688 c 0,182,183
 721.377929688 159.100585938 721.377929688 159.100585938 749.146484375 167.03125 c 0,184,185
 833.690429688 192.263671875 833.690429688 192.263671875 862.947265625 239.733398438 c 0,186,187
 875.166992188 263.551757812 875.166992188 263.551757812 875.442382812 292.5625 c 0,188,189
 872.854492188 360.84375 872.854492188 360.84375 829.758789062 372.943359375 c 0,190,191
 819.555664062 374.750976562 819.555664062 374.750976562 809.069335938 374.973632812 c 0,154,155
172.07421875 352.848632812 m 0,192,193
 150.299804688 347.927734375 150.299804688 347.927734375 129.751953125 320.560546875 c 0,194,195
 104.663085938 283.295898438 104.663085938 283.295898438 104.663085938 254.540039062 c 0,196,197
 104.663085938 246.461914062 104.663085938 246.461914062 106.642578125 239.0546875 c 0,198,199
 110.584960938 224.012695312 110.584960938 224.012695312 110.943359375 196.155273438 c 0,200,201
 112.149414062 135 112.149414062 135 132.438476562 130.905273438 c 0,202,203
 139.874023438 127.791015625 139.874023438 127.791015625 145.205078125 120.29296875 c 0,204,205
 152.380859375 110.5546875 152.380859375 110.5546875 165.088867188 105.1640625 c 128,-1,206
 177.661132812 99.884765625 177.661132812 99.884765625 182.286132812 93.650390625 c 0,207,208
 186.177734375 86.9306640625 186.177734375 86.9306640625 198.252929688 86.9306640625 c 0,209,210
 221.3359375 86.9306640625 221.3359375 86.9306640625 274.322265625 111.486328125 c 0,211,212
 348.9921875 148.163085938 348.9921875 148.163085938 351.712890625 167.705078125 c 1,213,-1
 355.071289062 171.771484375 l 1,214,215
 361.147460938 165.462890625 361.147460938 165.462890625 372.623046875 188.315429688 c 0,216,217
 376.819335938 196.670898438 376.819335938 196.670898438 376.819335938 201.912109375 c 0,218,219
 376.819335938 210.384765625 376.819335938 210.384765625 361.923828125 224.830078125 c 0,220,221
 347.989257812 237.14453125 347.989257812 237.14453125 332.231445312 253.50390625 c 0,222,223
 295.887695312 291.389648438 295.887695312 291.389648438 279.696289062 304.530273438 c 0,224,225
 261.423828125 319.287109375 261.423828125 319.287109375 261.423828125 325.3046875 c 1,226,227
 257.5859375 331.189453125 257.5859375 331.189453125 231.596679688 335.915039062 c 0,228,229
 203.233398438 340.881835938 203.233398438 340.881835938 189.67578125 348.333984375 c 0,230,231
 180.034179688 352.825195312 180.034179688 352.825195312 172.07421875 352.848632812 c 0,192,193
EndSplineSet
EndChar

StartChar: quotesingle
Encoding: 39 39 10
Width: 437
Flags: W
LayerCount: 2
Fore
SplineSet
178 404 m 1,0,1
 177 408 177 408 178 412 c 1,2,3
 178 440 178 440 209 495 c 1,4,-1
 225 522 l 1,5,-1
 223 550 l 1,6,-1
 221 577 l 1,7,-1
 170 578 l 2,8,9
 115 579 115 579 104 581.5 c 128,-1,10
 93 584 93 584 78 598 c 2,11,-1
 58 616 l 1,12,-1
 62 636 l 2,13,14
 67 658 67 658 77 689 c 2,15,-1
 88 723 l 1,16,-1
 118 742 l 1,17,-1
 148 762 l 1,18,-1
 165 754 l 2,19,20
 182 747 182 747 195 747 c 0,21,22
 217 747 217 747 235 711 c 0,23,24
 239 703 239 703 239 698 c 1,25,26
 242 685 242 685 260 658 c 0,27,28
 294 609 294 609 294 562 c 0,29,30
 294 525 294 525 277 492 c 0,31,32
 228 394 228 394 192 394 c 0,33,34
 191 394 191 394 191 394 c 1,35,36
 182 399 182 399 178 404 c 1,0,1
EndSplineSet
Validated: 1
EndChar

StartChar: parenleft
Encoding: 40 40 11
Width: 280
Flags: W
LayerCount: 2
Fore
SplineSet
187 -62 m 0,0,1
 171 -62 171 -62 150.5 -43 c 128,-1,2
 130 -24 130 -24 118.5 -7 c 128,-1,3
 107 10 107 10 107 12 c 0,4,5
 107 18 107 18 78 67 c 1,6,7
 34 146 34 146 17 256 c 0,8,9
 9 305 9 305 9 346 c 0,10,11
 9 397 9 397 21 438 c 0,12,13
 26 454 26 454 32.5 480 c 128,-1,14
 39 506 39 506 42 516.5 c 128,-1,15
 45 527 45 527 53 546.5 c 128,-1,16
 61 566 61 566 71 580.5 c 128,-1,17
 81 595 81 595 98 616.5 c 128,-1,18
 115 638 115 638 140 665 c 0,19,20
 182 710 182 710 194 718 c 0,21,22
 201 723 201 723 210 723 c 0,23,24
 211 723 211 723 213 723 c 0,25,26
 218 723 218 723 224 722 c 0,27,28
 271 713 271 713 271 684 c 0,29,30
 271 657 271 657 229 615 c 0,31,32
 195 581 195 581 164.5 521 c 128,-1,33
 134 461 134 461 124 410 c 0,34,35
 120 385 120 385 120 356 c 0,36,37
 120 314 120 314 129 264 c 0,38,39
 145 180 145 180 177 128 c 0,40,41
 199 93 199 93 222 45.5 c 128,-1,42
 245 -2 245 -2 245 -14 c 0,43,44
 245 -28 245 -28 224.5 -45 c 128,-1,45
 204 -62 204 -62 187 -62 c 0,0,1
EndSplineSet
Validated: 1
EndChar

StartChar: parenright
Encoding: 41 41 12
Width: 325
Flags: W
LayerCount: 2
Fore
SplineSet
10 659 m 0,0,1
 10 674 10 674 23 692.5 c 128,-1,2
 36 711 36 711 51 711 c 0,3,4
 67 711 67 711 101.5 687 c 128,-1,5
 136 663 136 663 166 632 c 0,6,7
 191 605 191 605 230.5 547 c 128,-1,8
 270 489 270 489 270 478 c 0,9,10
 270 468 270 468 293 421 c 0,11,12
 307 392 307 392 311 370 c 0,13,14
 314 353 314 353 314 321 c 0,15,16
 314 313 314 313 314 304 c 0,17,18
 314 248 314 248 303.5 218 c 128,-1,19
 293 188 293 188 230 60 c 2,20,-1
 192 -17 l 1,21,-1
 156 -22 l 2,22,23
 135 -25 135 -25 124 -25 c 0,24,25
 121 -25 121 -25 119 -25 c 0,26,27
 115 -25 115 -25 114 -24 c 0,28,29
 108 -20 108 -20 108 12 c 0,30,31
 108 37 108 37 127 75.5 c 128,-1,32
 146 114 146 114 168.5 148.5 c 128,-1,33
 191 183 191 183 210.5 223 c 128,-1,34
 230 263 230 263 230 289 c 0,35,36
 230 325 230 325 215 383.5 c 128,-1,37
 200 442 200 442 186 463 c 0,38,39
 161 500 161 500 127 540 c 128,-1,40
 93 580 93 580 87 580 c 0,41,42
 76 580 76 580 43 614 c 128,-1,43
 10 648 10 648 10 659 c 0,0,1
EndSplineSet
Validated: 1
EndChar

StartChar: plus
Encoding: 43 43 14
Width: 694
Flags: W
LayerCount: 2
Fore
SplineSet
337 202 m 2,0,1
 322 239 322 239 320 262 c 0,2,3
 317 325 317 325 275 353 c 1,4,-1
 250 366 l 1,5,-1
 165 352 l 1,6,-1
 81 338 l 1,7,-1
 57 351 l 1,8,-1
 34 363 l 1,9,-1
 34 395 l 1,10,11
 38 427 38 427 59 445 c 1,12,-1
 83 462 l 1,13,-1
 169 462 l 1,14,-1
 255 462 l 1,15,-1
 262 479 l 2,16,17
 263 484 263 484 263 490 c 0,18,19
 263 512 263 512 250 552 c 2,20,-1
 232 608 l 1,21,-1
 245 623 l 1,22,23
 262 636 262 636 279 636 c 0,24,25
 300 636 300 636 324 618 c 1,26,27
 343 594 343 594 363 538 c 1,28,-1
 383 478 l 1,29,-1
 432 481 l 1,30,31
 482 483 482 483 557 486 c 2,32,-1
 634 489 l 1,33,-1
 638 449 l 1,34,-1
 641 408 l 1,35,-1
 611 388 l 1,36,37
 577 369 577 369 508 363 c 2,38,-1
 436 357 l 1,39,-1
 436 263 l 1,40,-1
 436 170 l 1,41,-1
 395 166 l 1,42,-1
 353 163 l 1,43,-1
 337 202 l 2,0,1
EndSplineSet
Validated: 1
EndChar

StartChar: comma
Encoding: 44 44 15
Width: 444
Flags: W
LayerCount: 2
Fore
SplineSet
127 282 m 0,0,1
 148 293 148 293 176 293 c 128,-1,2
 204 293 204 293 224 282 c 0,3,4
 262 263 262 263 309 199 c 128,-1,5
 356 135 356 135 356 104 c 0,6,7
 356 77 356 77 339 39.5 c 128,-1,8
 322 2 322 2 295 -29 c 0,9,10
 272 -56 272 -56 257.5 -65 c 128,-1,11
 243 -74 243 -74 215 -81 c 0,12,13
 188 -87 188 -87 172 -87 c 1,14,15
 163 -86 163 -86 158 -84 c 0,16,17
 145 -78 145 -78 145 -49 c 0,18,19
 145 -17 145 -17 162 -2 c 0,20,21
 177 11 177 11 201.5 43.5 c 128,-1,22
 226 76 226 76 226 83 c 0,23,24
 226 86 226 86 177 126 c 128,-1,25
 128 166 128 166 93 191 c 0,26,27
 82 199 82 199 82 205 c 128,-1,28
 82 211 82 211 92 236 c 0,29,30
 106 270 106 270 127 282 c 0,0,1
EndSplineSet
Validated: 1
EndChar

StartChar: hyphen
Encoding: 45 45 16
Width: 512
Flags: W
LayerCount: 2
Fore
SplineSet
60 322 m 2,0,1
 47 340 47 340 47 354 c 0,2,3
 47 392 47 392 127 400 c 0,4,5
 137 401 137 401 142 401 c 2,6,-1
 212 407 l 1,7,-1
 242 433 l 1,8,9
 271 455 271 455 287 456 c 1,10,-1
 402 429 l 1,11,12
 460 420 460 420 461 376 c 0,13,14
 461 373 461 373 460 369 c 0,15,16
 459 354 459 354 447 343 c 2,17,-1
 434 330 l 1,18,-1
 329 329 l 2,19,20
 226 328 226 328 176 320 c 1,21,-1
 171 319 l 1,22,-1
 166 318 l 1,23,-1
 161 317 l 1,24,-1
 156 316 l 1,25,-1
 151 316 l 1,26,-1
 145 315 l 1,27,-1
 140 314 l 1,28,-1
 134 313 l 1,29,-1
 129 312 l 1,30,-1
 124 311 l 1,31,-1
 118 310 l 1,32,-1
 113 309 l 1,33,-1
 108 308 l 1,34,-1
 102 307 l 1,35,-1
 75 302 l 1,36,-1
 60 322 l 2,0,1
EndSplineSet
Validated: 1
EndChar

StartChar: period
Encoding: 46 46 17
Width: 282
Flags: W
LayerCount: 2
Fore
SplineSet
130 224 m 1,0,1
 157 238 157 238 171 238 c 0,2,3
 172 238 172 238 174 238 c 0,4,5
 188 236 188 236 204 218 c 0,6,7
 226 193 226 193 226 170 c 0,8,9
 226 163 226 163 224 156 c 0,10,11
 215 126 215 126 196 106 c 128,-1,12
 177 86 177 86 169 86 c 0,13,14
 165 86 165 86 139.5 69 c 128,-1,15
 114 52 114 52 96 48 c 0,16,17
 88 46 88 46 83 46 c 128,-1,18
 78 46 78 46 75 48 c 0,19,20
 69 52 69 52 61 72 c 0,21,22
 49 102 49 102 49 136 c 0,23,24
 49 159 49 159 54 168.5 c 128,-1,25
 59 178 59 178 75 192 c 1,26,27
 102 212 102 212 130 224 c 1,0,1
EndSplineSet
Validated: 1
EndChar

StartChar: slash
Encoding: 47 47 18
Width: 339
Flags: W
LayerCount: 2
Fore
SplineSet
200 660 m 1,0,1
 216 676 216 676 229 676 c 0,2,3
 231 676 231 676 233 675 c 0,4,5
 248 673 248 673 258.5 650.5 c 128,-1,6
 269 628 269 628 269 593 c 0,7,8
 269 539 269 539 252 472.5 c 128,-1,9
 235 406 235 406 209 330.5 c 128,-1,10
 183 255 183 255 175 221 c 0,11,12
 125 13 125 13 110 1 c 0,13,14
 100 -7 100 -7 69 -9 c 2,15,-1
 37 -11 l 1,16,-1
 39 46 l 2,17,18
 41 96 41 96 59.5 161 c 128,-1,19
 78 226 78 226 96 273 c 128,-1,20
 114 320 114 320 114 328 c 0,21,22
 114 339 114 339 126.5 370 c 128,-1,23
 139 401 139 401 155.5 455.5 c 128,-1,24
 172 510 172 510 178 573 c 1,25,26
 186 644 186 644 200 660 c 1,0,1
EndSplineSet
Validated: 1
EndChar

StartChar: zero
Encoding: 48 48 19
Width: 638
Flags: W
LayerCount: 2
Fore
SplineSet
168 766 m 0,0,1
 180 780 180 780 190 782 c 0,2,3
 196 783 196 783 207 783 c 0,4,5
 216 783 216 783 230 782 c 0,6,7
 257 780 257 780 282 771.5 c 128,-1,8
 307 763 307 763 324 753.5 c 128,-1,9
 341 744 341 744 375.5 724 c 128,-1,10
 410 704 410 704 438 690 c 0,11,12
 455 682 455 682 466 672.5 c 128,-1,13
 477 663 477 663 481.5 658.5 c 128,-1,14
 486 654 486 654 490 654 c 0,15,16
 503 654 503 654 541.5 620 c 128,-1,17
 580 586 580 586 591 566 c 0,18,19
 603 542 603 542 615 452 c 128,-1,20
 627 362 627 362 628 289 c 0,21,22
 628 255 628 255 621 232.5 c 128,-1,23
 614 210 614 210 586 153 c 0,24,25
 569 118 569 118 552.5 92.5 c 128,-1,26
 536 67 536 67 524.5 52.5 c 128,-1,27
 513 38 513 38 495 27 c 128,-1,28
 477 16 477 16 469.5 12.5 c 128,-1,29
 462 9 462 9 441 2 c 128,-1,30
 420 -5 420 -5 412 -8 c 0,31,32
 379 -20 379 -20 348 -20 c 0,33,34
 318 -20 318 -20 288 -10 c 0,35,36
 227 12 227 12 151 89 c 1,37,38
 93 146 93 146 68 202 c 128,-1,39
 43 258 43 258 43 273 c 128,-1,40
 43 288 43 288 26 346 c 1,41,-1
 10 405 l 1,42,-1
 31 489 l 2,43,44
 40 529 40 529 46.5 551 c 128,-1,45
 53 573 53 573 56 580.5 c 128,-1,46
 59 588 59 588 66.5 603.5 c 128,-1,47
 74 619 74 619 79 629 c 0,48,49
 112 703 112 703 168 766 c 0,0,1
325 636 m 2,50,51
 290 652 290 652 277 652 c 2,52,53
 277 652 277 652 276 652 c 0,54,55
 263 652 263 652 230 632 c 1,56,57
 205 619 205 619 195 613.5 c 128,-1,58
 185 608 185 608 172.5 596.5 c 128,-1,59
 160 585 160 585 156.5 579 c 128,-1,60
 153 573 153 573 146 554 c 128,-1,61
 139 535 139 535 136.5 520.5 c 128,-1,62
 134 506 134 506 127 472 c 2,63,-1
 108 367 l 1,64,-1
 125 317 l 2,65,66
 150 245 150 245 177 204.5 c 128,-1,67
 204 164 204 164 254 124 c 0,68,69
 281 102 281 102 294.5 97.5 c 128,-1,70
 308 93 308 93 342 93 c 0,71,72
 390 93 390 93 432 106 c 1,73,74
 467 118 467 118 483 141 c 128,-1,75
 499 164 499 164 526 241 c 0,76,77
 549 307 549 307 549 373 c 0,78,79
 549 402 549 402 544 432 c 0,80,81
 529 528 529 528 476 565 c 0,82,83
 442 589 442 589 434 589 c 128,-1,84
 426 589 426 589 395 604 c 2,85,-1
 325 636 l 2,50,51
EndSplineSet
Validated: 1
EndChar

StartChar: one
Encoding: 49 49 20
Width: 635
Flags: W
LayerCount: 2
Fore
SplineSet
290 713 m 0,0,1
 290 700 290 700 306.5 599.5 c 128,-1,2
 323 499 323 499 323 441 c 0,3,4
 323 303 323 303 352 200 c 0,5,6
 359 176 359 176 369.5 160.5 c 128,-1,7
 380 145 380 145 401 128 c 0,8,9
 426 108 426 108 444 102 c 128,-1,10
 462 96 462 96 517 90 c 1,11,12
 625 76 625 76 625 47 c 0,13,14
 625 32 625 32 600 8 c 1,15,16
 584 -9 584 -9 570 -11 c 0,17,18
 565 -12 565 -12 551 -12 c 0,19,20
 531 -12 531 -12 493 -10 c 0,21,22
 305 2 305 2 230.5 2 c 128,-1,23
 156 2 156 2 121 -9 c 0,24,25
 94 -18 94 -18 78 -18 c 0,26,27
 70 -18 70 -18 66 -16 c 0,28,29
 48 -9 48 -9 48 17 c 0,30,31
 48 42 48 42 69 67 c 0,32,33
 86 88 86 88 99.5 92 c 128,-1,34
 113 96 113 96 173 100 c 2,35,-1
 254 105 l 1,36,-1
 251 186 l 2,37,38
 247 313 247 313 220 543 c 0,39,40
 215 590 215 590 203 595 c 0,41,42
 202 595 202 595 200 595 c 0,43,44
 191 595 191 595 173 581 c 0,45,46
 152 564 152 564 152 553 c 0,47,48
 152 544 152 544 113.5 505.5 c 128,-1,49
 75 467 75 467 67 467 c 0,50,51
 58 467 58 467 34 491 c 2,52,-1
 10 516 l 1,53,-1
 30 554 l 2,54,55
 47 587 47 587 66 611 c 128,-1,56
 85 635 85 635 90 644 c 0,57,58
 103 666 103 666 133 708.5 c 128,-1,59
 163 751 163 751 176 765 c 0,60,61
 194 784 194 784 217 784 c 0,62,63
 241 784 241 784 265.5 760 c 128,-1,64
 290 736 290 736 290 713 c 0,0,1
EndSplineSet
Validated: 1
EndChar

StartChar: two
Encoding: 50 50 21
Width: 687
Flags: W
LayerCount: 2
Fore
SplineSet
242 768 m 0,0,1
 262 771 262 771 279 771 c 0,2,3
 289 771 289 771 299 770 c 0,4,5
 323 766 323 766 361.5 725.5 c 128,-1,6
 400 685 400 685 409 654 c 0,7,8
 415 633 415 633 425 619 c 128,-1,9
 435 605 435 605 442 598 c 128,-1,10
 449 591 449 591 449 586 c 0,11,12
 449 577 449 577 483 508 c 2,13,-1
 517 438 l 1,14,-1
 492 267 l 2,15,16
 489 245 489 245 470 215.5 c 128,-1,17
 451 186 451 186 434 164.5 c 128,-1,18
 417 143 417 143 417 137 c 0,19,20
 417 127 417 127 436 110 c 128,-1,21
 455 93 455 93 467 93 c 0,22,23
 482 93 482 93 486 82 c 128,-1,24
 490 71 490 71 532 44 c 2,25,-1
 573 17 l 1,26,-1
 647 54 l 1,27,-1
 662 36 l 2,28,29
 677 18 677 18 677 -1 c 256,30,31
 677 -20 677 -20 654.5 -45.5 c 128,-1,32
 632 -71 632 -71 606 -82 c 0,33,34
 579 -93 579 -93 555 -93 c 1,35,36
 543 -92 543 -92 531 -90 c 0,37,38
 496 -82 496 -82 447 -43 c 0,39,40
 376 12 376 12 345 20 c 0,41,42
 338 22 338 22 328 21 c 1,43,44
 298 21 298 21 246 3 c 0,45,46
 193 -15 193 -15 158 -16 c 0,47,48
 154 -16 154 -16 150 -16 c 0,49,50
 134 -16 134 -16 126 -12 c 0,51,52
 116 -8 116 -8 103 7 c 0,53,54
 86 28 86 28 81 66 c 0,55,56
 80 77 80 77 80 87 c 0,57,58
 80 110 80 110 88 122 c 0,59,60
 100 140 100 140 134 164 c 1,61,62
 158 179 158 179 176 182.5 c 128,-1,63
 194 186 194 186 247 187 c 0,64,65
 296 187 296 187 318 192.5 c 128,-1,66
 340 198 340 198 355 214 c 128,-1,67
 370 230 370 230 392 271 c 0,68,69
 408 300 408 300 412.5 319.5 c 128,-1,70
 417 339 417 339 417 386 c 0,71,72
 417 430 417 430 412.5 452.5 c 128,-1,73
 408 475 408 475 395 505 c 0,74,75
 372 557 372 557 353.5 591.5 c 128,-1,76
 335 626 335 626 322.5 642 c 128,-1,77
 310 658 310 658 298.5 666 c 128,-1,78
 287 674 287 674 278 673 c 128,-1,79
 269 672 269 672 259 673 c 1,80,81
 234 672 234 672 211 661 c 128,-1,82
 188 650 188 650 173.5 639.5 c 128,-1,83
 159 629 159 629 153 629 c 0,84,85
 142 629 142 629 129 613 c 128,-1,86
 116 597 116 597 116 583 c 0,87,88
 116 565 116 565 96 544.5 c 128,-1,89
 76 524 76 524 59 524 c 0,90,91
 38 524 38 524 24 542.5 c 128,-1,92
 10 561 10 561 10 588 c 0,93,94
 10 608 10 608 16 619 c 128,-1,95
 22 630 22 630 43 649 c 0,96,97
 89 691 89 691 149 726.5 c 128,-1,98
 209 762 209 762 242 768 c 0,0,1
EndSplineSet
Validated: 1
EndChar

StartChar: three
Encoding: 51 51 22
Width: 630
Flags: W
LayerCount: 2
Fore
SplineSet
38 674 m 0,0,1
 88 712 88 712 235 732 c 0,2,3
 313 743 313 743 363 743 c 0,4,5
 407 743 407 743 428 735 c 0,6,7
 448 728 448 728 481 686 c 0,8,9
 510 650 510 650 514 623 c 0,10,11
 515 619 515 619 514 614 c 1,12,13
 514 589 514 589 498 553 c 2,14,-1
 481 515 l 1,15,-1
 512 476 l 2,16,17
 543 438 543 438 582 384 c 0,18,19
 609 345 609 345 614.5 329.5 c 128,-1,20
 620 314 620 314 620 272 c 0,21,22
 620 232 620 232 611 201.5 c 128,-1,23
 602 171 602 171 590 155.5 c 128,-1,24
 578 140 578 140 559.5 115 c 128,-1,25
 541 90 541 90 529 68 c 0,26,27
 508 29 508 29 484.5 6 c 128,-1,28
 461 -17 461 -17 420 -37 c 0,29,30
 380 -57 380 -57 354 -60 c 0,31,32
 349 -61 349 -61 343 -61 c 0,33,34
 320 -61 320 -61 290 -51 c 1,35,36
 249 -39 249 -39 178.5 12 c 128,-1,37
 108 63 108 63 108 80 c 0,38,39
 108 88 108 88 125 107 c 1,40,41
 141 123 141 123 164 124 c 0,42,43
 167 124 167 124 169 124 c 0,44,45
 189 124 189 124 206 118 c 1,46,47
 225 110 225 110 245.5 101.5 c 128,-1,48
 266 93 266 93 273 92 c 0,49,50
 279 92 279 92 314.5 76.5 c 128,-1,51
 350 61 350 61 359 61 c 0,52,53
 370 62 370 62 418 112 c 0,54,55
 467 164 467 164 495 204 c 0,56,57
 520 241 520 241 520 265 c 0,58,59
 520 290 520 290 486 342 c 0,60,61
 461 379 461 379 433 395 c 0,62,63
 408 409 408 409 386 409 c 0,64,65
 383 409 383 409 380 409 c 0,66,67
 355 407 355 407 332.5 400 c 128,-1,68
 310 393 310 393 290 386 c 128,-1,69
 270 379 270 379 260 382 c 0,70,71
 248 386 248 386 234.5 408.5 c 128,-1,72
 221 431 221 431 221 447 c 0,73,74
 221 461 221 461 239.5 480 c 128,-1,75
 258 499 258 499 271 499 c 0,76,77
 283 499 283 499 330.5 534.5 c 128,-1,78
 378 570 378 570 386 585 c 0,79,80
 391 593 391 593 391 609 c 0,81,82
 391 616 391 616 390 623 c 0,83,84
 389 641 389 641 383.5 645.5 c 128,-1,85
 378 650 378 650 356 652 c 0,86,87
 353 652 353 652 349 652 c 0,88,89
 311 652 311 652 221 626 c 0,90,91
 122 597 122 597 100 577 c 0,92,93
 86 564 86 564 63 564 c 0,94,95
 38 564 38 564 24 579.5 c 128,-1,96
 10 595 10 595 10 622 c 0,97,98
 10 641 10 641 15.5 651 c 128,-1,99
 21 661 21 661 38 674 c 0,0,1
EndSplineSet
Validated: 1
EndChar

StartChar: four
Encoding: 52 52 23
Width: 646
Flags: W
LayerCount: 2
Fore
SplineSet
93 706 m 0,0,1
 111 719 111 719 117 719 c 0,2,3
 127 719 127 719 142.5 700 c 128,-1,4
 158 681 158 681 162 664 c 0,5,6
 163 660 163 660 163 652 c 0,7,8
 162 629 162 629 154 576 c 0,9,10
 142 505 142 505 130 472 c 0,11,12
 127 462 127 462 127 455 c 0,13,14
 128 442 128 442 136 436 c 0,15,16
 150 426 150 426 203 422 c 0,17,18
 236 419 236 419 303 411 c 128,-1,19
 370 403 370 403 416 398 c 0,20,21
 444 395 444 395 458 395 c 0,22,23
 466 395 466 395 469 396 c 0,24,25
 482 401 482 401 482 443 c 0,26,27
 482 489 482 489 466 548 c 0,28,29
 449 610 449 610 449 639 c 0,30,31
 449 669 449 669 469 683 c 0,32,33
 485 693 485 693 494 693 c 0,34,35
 497 693 497 693 499 692 c 0,36,37
 519 685 519 685 539 590 c 128,-1,38
 559 495 559 495 591 257 c 0,39,40
 603 164 603 164 619.5 143.5 c 128,-1,41
 636 123 636 123 636 110 c 0,42,43
 635 92 635 92 614.5 56.5 c 128,-1,44
 594 21 594 21 577 9 c 0,45,46
 562 -2 562 -2 556 -2 c 1,47,48
 556 -2 556 -2 555 -3 c 1,49,50
 549 -3 549 -3 536 5 c 0,51,52
 521 15 521 15 515.5 40 c 128,-1,53
 510 65 510 65 504 120.5 c 128,-1,54
 498 176 498 176 487 223 c 0,55,56
 478 262 478 262 460 274.5 c 128,-1,57
 442 287 442 287 379 296 c 0,58,59
 165 328 165 328 98 328 c 0,60,61
 61 328 61 328 49.5 332 c 128,-1,62
 38 336 38 336 27 350 c 0,63,64
 10 372 10 372 10 387 c 0,65,66
 10 405 10 405 24.5 449 c 128,-1,67
 39 493 39 493 55 525 c 0,68,69
 67 549 67 549 71 569.5 c 128,-1,70
 75 590 75 590 75 629 c 0,71,72
 75 672 75 672 78 685 c 128,-1,73
 81 698 81 698 93 706 c 0,0,1
EndSplineSet
Validated: 1
EndChar

StartChar: five
Encoding: 53 53 24
Width: 654
Flags: W
LayerCount: 2
Fore
SplineSet
23 635 m 0,0,1
 39 667 39 667 61.5 687.5 c 128,-1,2
 84 708 84 708 107.5 717 c 128,-1,3
 131 726 131 726 167 731 c 128,-1,4
 203 736 203 736 236 736.5 c 128,-1,5
 269 737 269 737 321 740.5 c 128,-1,6
 373 744 373 744 419 750 c 1,7,8
 419 750 419 750 420 750 c 0,9,10
 428 750 428 750 438 740 c 0,11,12
 452 726 452 726 453 702 c 0,13,14
 453 681 453 681 429 650 c 0,15,16
 420 638 420 638 413 635 c 128,-1,17
 406 632 406 632 378 630 c 0,18,19
 364 629 364 629 344 629 c 128,-1,20
 324 629 324 629 297 630 c 1,21,22
 222 630 222 630 197.5 627.5 c 128,-1,23
 173 625 173 625 154 615 c 2,24,-1
 126 599 l 1,25,-1
 128 539 l 2,26,27
 129 520 129 520 129 511.5 c 128,-1,28
 129 503 129 503 132 491.5 c 128,-1,29
 135 480 135 480 136.5 476.5 c 128,-1,30
 138 473 138 473 146 468 c 128,-1,31
 154 463 154 463 159 462.5 c 128,-1,32
 164 462 164 462 180 461.5 c 128,-1,33
 196 461 196 461 207.5 462.5 c 128,-1,34
 219 464 219 464 245 466 c 0,35,36
 290 470 290 470 320 470 c 0,37,38
 339 470 339 470 351 468 c 0,39,40
 383 464 383 464 416 441 c 0,41,42
 437 426 437 426 446 426 c 0,43,44
 456 426 456 426 523 357.5 c 128,-1,45
 590 289 590 289 598 272 c 0,46,47
 607 251 607 251 626 213 c 2,48,-1
 644 175 l 1,49,-1
 627 146 l 2,50,51
 609 116 609 116 609 107 c 0,52,53
 609 95 609 95 563 44.5 c 128,-1,54
 517 -6 517 -6 493 -21 c 0,55,56
 472 -34 472 -34 450 -38 c 128,-1,57
 428 -42 428 -42 372 -44 c 0,58,59
 344 -46 344 -46 323.5 -46 c 128,-1,60
 303 -46 303 -46 290 -44 c 0,61,62
 264 -41 264 -41 227 -30 c 1,63,64
 161 -8 161 -8 121 32 c 0,65,66
 92 61 92 61 92 84 c 0,67,68
 92 93 92 93 97 102 c 0,69,70
 108 122 108 122 131.5 122 c 128,-1,71
 155 122 155 122 200 100 c 0,72,73
 237 83 237 83 260.5 78 c 128,-1,74
 284 73 284 73 339 70 c 0,75,76
 357 69 357 69 371 69 c 0,77,78
 400 69 400 69 416 72 c 0,79,80
 440 76 440 76 453.5 89.5 c 128,-1,81
 467 103 467 103 483 138 c 0,82,83
 503 180 503 180 503 201 c 0,84,85
 503 221 503 221 486 251 c 1,86,87
 451 318 451 318 370 356 c 0,88,89
 338 370 338 370 324 372 c 0,90,91
 321 372 321 372 318 373 c 1,92,93
 302 373 302 373 268 367 c 0,94,95
 230 361 230 361 213.5 353.5 c 128,-1,96
 197 346 197 346 173 322 c 1,97,98
 145 296 145 296 124 290 c 0,99,100
 117 288 117 288 110 288 c 0,101,102
 96 288 96 288 81 296 c 0,103,104
 60 307 60 307 19 528 c 1,105,106
 10 583 10 583 10 597 c 128,-1,107
 10 611 10 611 23 635 c 0,0,1
EndSplineSet
Validated: 1
EndChar

StartChar: six
Encoding: 54 54 25
Width: 563
Flags: W
LayerCount: 2
Fore
SplineSet
209 734 m 0,0,1
 225 742 225 742 236.5 750 c 128,-1,2
 248 758 248 758 251 761 c 128,-1,3
 254 764 254 764 262.5 765.5 c 128,-1,4
 271 767 271 767 288 767 c 0,5,6
 311 767 311 767 323.5 760.5 c 128,-1,7
 336 754 336 754 361 730 c 0,8,9
 406 685 406 685 406 654 c 0,10,11
 406 647 406 647 404 641 c 0,12,13
 399 629 399 629 371 629 c 1,14,15
 370 630 370 630 368 630 c 0,16,17
 338 630 338 630 322 642 c 0,18,19
 307 652 307 652 293 652 c 0,20,21
 286 652 286 652 280 650 c 0,22,23
 260 644 260 644 222 609 c 0,24,25
 178 569 178 569 155 533 c 128,-1,26
 132 497 132 497 122 450 c 0,27,28
 117 425 117 425 117 406 c 0,29,30
 117 380 117 380 127 367 c 0,31,32
 132 361 132 361 137 361 c 0,33,34
 145 361 145 361 154 372 c 0,35,36
 164 385 164 385 202 407 c 0,37,38
 229 423 229 423 247.5 426.5 c 128,-1,39
 266 430 266 430 325 430 c 0,40,41
 485 429 485 429 532 362 c 0,42,43
 546 342 546 342 549.5 326 c 128,-1,44
 553 310 553 310 553 269 c 0,45,46
 553 217 553 217 545 195.5 c 128,-1,47
 537 174 537 174 503 133 c 0,48,49
 482 107 482 107 466.5 98.5 c 128,-1,50
 451 90 451 90 405 77 c 1,51,52
 343 61 343 61 310 61 c 0,53,54
 305 61 305 61 300 61 c 0,55,56
 267 64 267 64 211 93 c 0,57,58
 138 131 138 131 91 184 c 128,-1,59
 44 237 44 237 32 296 c 0,60,61
 27 322 27 322 19.5 348 c 128,-1,62
 12 374 12 374 11 383 c 0,63,64
 11 387 11 387 11 392 c 0,65,66
 12 400 12 400 12 410 c 1,67,68
 14 428 14 428 20 463 c 1,69,70
 35 528 35 528 59 576 c 0,71,72
 80 617 80 617 126.5 666 c 128,-1,73
 173 715 173 715 209 734 c 0,0,1
472 290 m 0,74,75
 472 301 472 301 459.5 309 c 128,-1,76
 447 317 447 317 426 322.5 c 128,-1,77
 405 328 405 328 386.5 331 c 128,-1,78
 368 334 368 334 347 337 c 128,-1,79
 326 340 326 340 321 341 c 0,80,81
 318 342 318 342 315 342 c 0,82,83
 293 342 293 342 256 318 c 0,84,85
 214 291 214 291 199 262 c 0,86,87
 190 246 190 246 190 240 c 128,-1,88
 190 234 190 234 201 221 c 0,89,90
 220 198 220 198 258 186 c 0,91,92
 285 177 285 177 312 177 c 0,93,94
 323 177 323 177 333 178 c 0,95,96
 383 184 383 184 408 197.5 c 128,-1,97
 433 211 433 211 451 241 c 0,98,99
 472 277 472 277 472 290 c 0,74,75
EndSplineSet
Validated: 1
EndChar

StartChar: seven
Encoding: 55 55 26
Width: 596
Flags: W
LayerCount: 2
Fore
SplineSet
501 711 m 0,0,1
 517 717 517 717 530 717 c 0,2,3
 553 717 553 717 570 699 c 0,4,5
 579 690 579 690 582.5 682.5 c 128,-1,6
 586 675 586 675 586 645 c 128,-1,7
 586 615 586 615 582.5 576.5 c 128,-1,8
 579 538 579 538 570 446 c 0,9,10
 564 382 564 382 559 362.5 c 128,-1,11
 554 343 554 343 542 333 c 0,12,13
 529 321 529 321 525 299 c 128,-1,14
 521 277 521 277 515 188 c 1,15,16
 511 110 511 110 506.5 82 c 128,-1,17
 502 54 502 54 493 44 c 0,18,19
 479 28 479 28 459 28 c 2,20,21
 459 28 459 28 458 28 c 0,22,23
 436 28 436 28 418.5 45 c 128,-1,24
 401 62 401 62 399 92 c 0,25,26
 399 98 399 98 399 104 c 0,27,28
 399 133 399 133 406 181 c 0,29,30
 415 239 415 239 417 267 c 2,31,-1
 420 316 l 1,32,-1
 383 315 l 2,33,34
 359 314 359 314 337 311.5 c 128,-1,35
 315 309 315 309 306 307 c 128,-1,36
 297 305 297 305 289 305 c 128,-1,37
 281 305 281 305 277.5 308.5 c 128,-1,38
 274 312 274 312 269 322 c 0,39,40
 265 331 265 331 265 341 c 0,41,42
 265 353 265 353 271 365 c 0,43,44
 278 380 278 380 294.5 387.5 c 128,-1,45
 311 395 311 395 367 409 c 2,46,-1
 452 431 l 1,47,-1
 468 475 l 1,48,49
 483 520 483 520 484 567 c 0,50,51
 484 585 484 585 483.5 595 c 128,-1,52
 483 605 483 605 479.5 613 c 128,-1,53
 476 621 476 621 470.5 624 c 128,-1,54
 465 627 465 627 452.5 627 c 128,-1,55
 440 627 440 627 425.5 625 c 128,-1,56
 411 623 411 623 386 617 c 0,57,58
 314 602 314 602 179 599 c 2,59,-1
 44 595 l 1,60,-1
 27 617 l 2,61,62
 10 638 10 638 10 652 c 0,63,64
 10 665 10 665 22 679 c 0,65,66
 30 688 30 688 50 690 c 0,67,68
 57 690 57 690 70 690 c 0,69,70
 95 690 95 690 141 688 c 0,71,72
 161 687 161 687 185 687 c 0,73,74
 252 688 252 688 348 694 c 0,75,76
 476 702 476 702 501 711 c 0,0,1
EndSplineSet
Validated: 1
EndChar

StartChar: eight
Encoding: 56 56 27
Width: 581
Flags: W
LayerCount: 2
Fore
SplineSet
250 751 m 0,0,1
 270 760 270 760 291.5 770.5 c 128,-1,2
 313 781 313 781 321.5 785 c 128,-1,3
 330 789 330 789 343 793 c 128,-1,4
 356 797 356 797 368.5 798 c 128,-1,5
 381 799 381 799 402 800 c 1,6,7
 440 800 440 800 450.5 796.5 c 128,-1,8
 461 793 461 793 472 777 c 0,9,10
 489 752 489 752 507.5 681 c 128,-1,11
 526 610 526 610 526 567 c 0,12,13
 526 532 526 532 519 514.5 c 128,-1,14
 512 497 512 497 476 444 c 2,15,-1
 425 371 l 1,16,-1
 473 327 l 2,17,18
 513 291 513 291 541.5 241.5 c 128,-1,19
 570 192 570 192 571 160 c 1,20,21
 571 123 571 123 558.5 89 c 128,-1,22
 546 55 546 55 527 42 c 0,23,24
 504 25 504 25 428 17 c 0,25,26
 384 12 384 12 344 12 c 0,27,28
 314 12 314 12 285 15 c 0,29,30
 240 19 240 19 225 25 c 128,-1,31
 210 31 210 31 182 57 c 0,32,33
 143 92 143 92 112 136 c 0,34,35
 85 176 85 176 85 198 c 0,36,37
 85 202 85 202 86 206 c 0,38,39
 92 229 92 229 148 276 c 0,40,41
 179 302 179 302 193 316 c 128,-1,42
 207 330 207 330 208.5 343.5 c 128,-1,43
 210 357 210 357 198.5 366.5 c 128,-1,44
 187 376 187 376 160 390 c 1,45,46
 147 398 147 398 127.5 408 c 128,-1,47
 108 418 108 418 102 421.5 c 128,-1,48
 96 425 96 425 85 432 c 128,-1,49
 74 439 74 439 65.5 446.5 c 128,-1,50
 57 454 57 454 45 465 c 0,51,52
 19 489 19 489 14.5 500.5 c 128,-1,53
 10 512 10 512 10 551 c 2,54,-1
 10 604 l 1,55,-1
 71 650 l 1,56,57
 73 650 73 650 81 656.5 c 128,-1,58
 89 663 89 663 93 666 c 128,-1,59
 97 669 97 669 107.5 676 c 128,-1,60
 118 683 118 683 126 688 c 128,-1,61
 134 693 134 693 148 701 c 128,-1,62
 162 709 162 709 176 716 c 128,-1,63
 190 723 190 723 209.5 732.5 c 128,-1,64
 229 742 229 742 250 751 c 0,0,1
433 659 m 0,65,66
 412 670 412 670 347 670 c 0,67,68
 294 670 294 670 252 654.5 c 128,-1,69
 210 639 210 639 162 602 c 0,70,71
 128 576 128 576 122 560 c 0,72,73
 120 556 120 556 120 551 c 0,74,75
 120 539 120 539 133 526 c 0,76,77
 152 506 152 506 190.5 486 c 128,-1,78
 229 466 229 466 259 445 c 0,79,80
 289 423 289 423 319 423 c 0,81,82
 359 423 359 423 397 463 c 0,83,84
 436 504 436 504 447 529 c 0,85,86
 456 549 456 549 456 580 c 0,87,88
 456 589 456 589 455 598 c 0,89,90
 454 632 454 632 450 642 c 128,-1,91
 446 652 446 652 433 659 c 0,65,66
401 268 m 0,92,93
 365 295 365 295 332 295 c 0,94,95
 306 295 306 295 282 278 c 0,96,97
 256 259 256 259 218.5 222.5 c 128,-1,98
 181 186 181 186 181 179 c 0,99,100
 181 170 181 170 203.5 147.5 c 128,-1,101
 226 125 226 125 234 125 c 256,102,103
 242 125 242 125 262 116 c 1,104,105
 280 106 280 106 308 102 c 0,106,107
 312 102 312 102 316 102 c 128,-1,108
 320 102 320 102 325 102 c 0,109,110
 355 102 355 102 414 110 c 0,111,112
 448 115 448 115 459 121 c 128,-1,113
 470 127 470 127 478 142 c 0,114,115
 484 155 484 155 484 163 c 0,116,117
 484 172 484 172 464 203 c 0,118,119
 438 241 438 241 401 268 c 0,92,93
EndSplineSet
Validated: 1
EndChar

StartChar: nine
Encoding: 57 57 28
Width: 691
Flags: W
LayerCount: 2
Fore
SplineSet
40 680 m 0,0,1
 50 694 50 694 55.5 700.5 c 128,-1,2
 61 707 61 707 80.5 719.5 c 128,-1,3
 100 732 100 732 124 736 c 0,4,5
 146 740 146 740 185 740 c 0,6,7
 190 740 190 740 195 740 c 0,8,9
 241 740 241 740 302 731 c 0,10,11
 388 718 388 718 415.5 707.5 c 128,-1,12
 443 697 443 697 464 666 c 0,13,14
 483 639 483 639 500.5 623 c 128,-1,15
 518 607 518 607 525 602.5 c 128,-1,16
 532 598 532 598 539 582 c 128,-1,17
 546 566 546 566 552 532 c 0,18,19
 562 475 562 475 562 450 c 0,20,21
 562 430 562 430 575.5 384.5 c 128,-1,22
 589 339 589 339 610.5 276 c 128,-1,23
 632 213 632 213 642 178 c 2,24,-1
 671 74 l 2,25,26
 681 40 681 40 681 27 c 0,27,28
 681 22 681 22 680 20 c 0,29,30
 675 12 675 12 639 11 c 0,31,32
 608 11 608 11 590.5 28.5 c 128,-1,33
 573 46 573 46 566 82 c 1,34,35
 561 113 561 113 528.5 214 c 128,-1,36
 496 315 496 315 491 339 c 0,37,38
 487 360 487 360 478.5 365.5 c 128,-1,39
 470 371 470 371 454 363 c 0,40,41
 407 340 407 340 285 331 c 0,42,43
 246 328 246 328 218 328 c 0,44,45
 158 328 158 328 147 341 c 0,46,47
 137 353 137 353 128 353 c 0,48,49
 116 353 116 353 76.5 384.5 c 128,-1,50
 37 416 37 416 25 437 c 1,51,52
 14 454 14 454 12 474 c 0,53,54
 11 485 11 485 10 507 c 0,55,56
 10 525 10 525 11 552 c 0,57,58
 13 616 13 616 17 634 c 128,-1,59
 21 652 21 652 40 680 c 0,0,1
346 637 m 0,60,61
 312 654 312 654 236 658 c 0,62,63
 215 659 215 659 198 659 c 0,64,65
 153 659 153 659 137 650 c 0,66,67
 114 636 114 636 106 617 c 128,-1,68
 98 598 98 598 98 554 c 256,69,70
 98 510 98 510 109.5 489.5 c 128,-1,71
 121 469 121 469 159 443 c 0,72,73
 183 426 183 426 199.5 422 c 128,-1,74
 216 418 216 418 259 418 c 0,75,76
 309 418 309 418 362 429 c 128,-1,77
 415 440 415 440 438 455 c 0,78,79
 456 467 456 467 456 495 c 256,80,81
 456 523 456 523 418 572 c 128,-1,82
 380 621 380 621 346 637 c 0,60,61
EndSplineSet
Validated: 1
EndChar

StartChar: colon
Encoding: 58 58 29
Width: 442
Flags: W
LayerCount: 2
Fore
SplineSet
150 56 m 0,0,1
 150 86 150 86 160.5 122.5 c 128,-1,2
 171 159 171 159 183.5 182.5 c 128,-1,3
 196 206 196 206 202 206 c 0,4,5
 224 206 224 206 269 150 c 0,6,7
 309 101 309 101 309 79 c 0,8,9
 309 76 309 76 308 74 c 0,10,11
 294 26 294 26 250 4 c 0,12,13
 229 -6 229 -6 210 -6 c 0,14,15
 189 -6 189 -6 170 7 c 0,16,17
 157 15 157 15 153.5 24.5 c 128,-1,18
 150 34 150 34 150 56 c 0,0,1
117 552 m 0,19,20
 117 580 117 580 131 611.5 c 128,-1,21
 145 643 145 643 158.5 660.5 c 128,-1,22
 172 678 172 678 176 680 c 0,23,24
 185 683 185 683 191 683 c 0,25,26
 194 683 194 683 198 682 c 0,27,28
 207 680 207 680 242 665 c 0,29,30
 271 652 271 652 280 643.5 c 128,-1,31
 289 635 289 635 292 616 c 0,32,33
 294 609 294 609 294 603 c 0,34,35
 294 596 294 596 292 586 c 0,36,37
 289 574 289 574 276 555 c 0,38,39
 258 530 258 530 227.5 506 c 128,-1,40
 197 482 197 482 182 482 c 0,41,42
 170 482 170 482 143 498 c 0,43,44
 126 509 126 509 121.5 518 c 128,-1,45
 117 527 117 527 117 552 c 0,19,20
EndSplineSet
Validated: 1
EndChar

StartChar: semicolon
Encoding: 59 59 30
Width: 501
Flags: W
LayerCount: 2
Fore
SplineSet
199 159 m 0,0,1
 220 180 220 180 230 185 c 128,-1,2
 240 190 240 190 259 186 c 0,3,4
 323 175 323 175 366 113 c 1,5,-1
 392 77 l 1,6,-1
 373 -6 l 1,7,8
 338 -167 338 -167 295 -184 c 1,9,10
 277 -190 277 -190 266 -190 c 0,11,12
 263 -190 263 -190 261 -190 c 0,13,14
 250 -188 250 -188 240 -172 c 1,15,16
 230 -161 230 -161 231 -145.5 c 128,-1,17
 232 -130 232 -130 237 -119.5 c 128,-1,18
 242 -109 242 -109 247 -87 c 0,19,20
 251 -72 251 -72 251 -56 c 0,21,22
 251 -50 251 -50 250 -43 c 0,23,24
 249 -22 249 -22 243.5 -13 c 128,-1,25
 238 -4 238 -4 221 5 c 0,26,27
 193 20 193 20 181 39 c 128,-1,28
 169 58 169 58 169 90 c 0,29,30
 169 94 169 94 169 97 c 0,31,32
 169 116 169 116 174 126 c 0,33,34
 179 138 179 138 199 159 c 0,0,1
142 664 m 0,35,36
 160 675 160 675 177 675 c 0,37,38
 180 675 180 675 183 675 c 0,39,40
 203 673 203 673 229 654 c 0,41,42
 243 644 243 644 247.5 634 c 128,-1,43
 252 624 252 624 252 604 c 0,44,45
 252 583 252 583 245 570 c 128,-1,46
 238 557 238 557 212 531 c 0,47,48
 185 504 185 504 172.5 498 c 128,-1,49
 160 492 160 492 131 492 c 256,50,51
 102 492 102 492 94 495.5 c 128,-1,52
 86 499 86 499 80 515 c 0,53,54
 73 534 73 534 73 553 c 0,55,56
 73 574 73 574 82 596 c 0,57,58
 98 636 98 636 142 664 c 0,35,36
EndSplineSet
Validated: 1
EndChar

StartChar: equal
Encoding: 61 61 32
Width: 547
Flags: W
LayerCount: 2
Fore
SplineSet
158 267 m 1,0,1
 200 270 200 270 253 278.5 c 128,-1,2
 306 287 306 287 347.5 294.5 c 128,-1,3
 389 302 389 302 395 303 c 0,4,5
 398 303 398 303 402 303 c 0,6,7
 422 303 422 303 463 294 c 0,8,9
 512 283 512 283 522 275 c 1,10,11
 537 260 537 260 537 246 c 0,12,13
 537 230 537 230 518 223 c 0,14,15
 506 218 506 218 375.5 208 c 128,-1,16
 245 198 245 198 203 183 c 0,17,18
 157 167 157 167 104 162 c 0,19,20
 80 159 80 159 67 159 c 0,21,22
 60 159 60 159 56 160 c 0,23,24
 44 162 44 162 33 174 c 0,25,26
 18 189 18 189 18 203 c 0,27,28
 18 222 18 222 47 239 c 0,29,30
 85 260 85 260 158 267 c 1,0,1
301 500 m 0,31,32
 331 501 331 501 353.5 505 c 128,-1,33
 376 509 376 509 384 512 c 0,34,35
 388 514 388 514 394 514 c 128,-1,36
 400 514 400 514 407 512 c 0,37,38
 421 509 421 509 444 496 c 0,39,40
 463 486 463 486 469.5 477.5 c 128,-1,41
 476 469 476 469 476 455 c 0,42,43
 476 447 476 447 475 443 c 128,-1,44
 474 439 474 439 466.5 431.5 c 128,-1,45
 459 424 459 424 443.5 419.5 c 128,-1,46
 428 415 428 415 397 411 c 128,-1,47
 366 407 366 407 322 404 c 1,48,49
 250 401 250 401 154 385 c 0,50,51
 68 371 68 371 44 371 c 0,52,53
 41 371 41 371 39 371 c 0,54,55
 22 372 22 372 17 377 c 0,56,57
 10 384 10 384 10 402 c 0,58,59
 10 424 10 424 31 443 c 0,60,61
 45 456 45 456 69 463.5 c 128,-1,62
 93 471 93 471 159 482 c 0,63,64
 265 499 265 499 301 500 c 0,31,32
EndSplineSet
Validated: 1
EndChar

StartChar: question
Encoding: 63 63 34
Width: 499
Flags: W
LayerCount: 2
Fore
SplineSet
270 -182 m 1,0,1
 235 -158 235 -158 227 -110 c 1,2,3
 227 -70 227 -70 329 -18 c 1,4,5
 365 -1 365 -1 386 1 c 1,6,7
 424 -8 424 -8 442 -52 c 1,8,9
 445 -63 445 -63 445 -73 c 0,10,11
 445 -125 445 -125 366 -170 c 1,12,13
 329 -188 329 -188 301 -188 c 0,14,15
 284 -188 284 -188 270 -182 c 1,0,1
252 108 m 1,16,17
 211 157 211 157 211 221 c 0,18,19
 211 246 211 246 217 272 c 1,20,21
 221 282 221 282 223 288 c 1,22,23
 237 304 237 304 264 316 c 1,24,25
 324 336 324 336 375 426 c 0,26,27
 380 435 380 435 382 439 c 0,28,29
 395 472 395 472 397 513 c 1,30,-1
 397 556 l 1,31,-1
 371 582 l 1,32,33
 343 606 343 606 307 619 c 1,34,-1
 268 630 l 1,35,-1
 211 615 l 1,36,37
 157 599 157 599 134 585 c 2,38,-1
 113 572 l 1,39,-1
 113 540 l 2,40,41
 113 484 113 484 73 477 c 1,42,43
 64 478 64 478 60 478 c 1,44,45
 7 503 7 503 7 548 c 0,46,47
 7 560 7 560 11 574 c 1,48,49
 44 639 44 639 153 677 c 1,50,-1
 232 703 l 1,51,-1
 286 698 l 1,52,53
 343 690 343 690 396 664 c 1,54,-1
 452 634 l 1,55,-1
 475 584 l 2,56,57
 491 549 491 549 491 510 c 0,58,59
 491 479 491 479 480 447 c 0,60,61
 477 436 477 436 475 430 c 2,62,-1
 452 361 l 1,63,-1
 397 299 l 1,64,-1
 341 238 l 1,65,-1
 347 215 l 2,66,67
 353 190 353 190 357 160 c 2,68,-1
 362 128 l 1,69,-1
 329 112 l 1,70,71
 298 100 298 100 278 100 c 0,72,73
 276 100 276 100 275 100 c 0,74,75
 260 100 260 100 252 108 c 1,16,17
EndSplineSet
Validated: 1
EndChar

StartChar: A
Encoding: 65 65 36
Width: 634
Flags: W
LayerCount: 2
Fore
SplineSet
161 673 m 0,0,1
 171 698 171 698 178 704.5 c 128,-1,2
 185 711 185 711 201 711 c 0,3,4
 226 711 226 711 248 702 c 0,5,6
 266 695 266 695 299 665.5 c 128,-1,7
 332 636 332 636 332 627 c 0,8,9
 332 622 332 622 346 602 c 128,-1,10
 360 582 360 582 385 545 c 128,-1,11
 410 508 410 508 429 474 c 0,12,13
 445 445 445 445 490 398 c 0,14,15
 520 368 520 368 527.5 354.5 c 128,-1,16
 535 341 535 341 535 320 c 0,17,18
 535 291 535 291 552.5 256 c 128,-1,19
 570 221 570 221 599 190 c 0,20,21
 619 170 619 170 622 159 c 0,22,23
 624 153 624 153 624 142.5 c 128,-1,24
 624 132 624 132 622 115 c 0,25,26
 618 77 618 77 606 48.5 c 128,-1,27
 594 20 594 20 582 20 c 0,28,29
 574 20 574 20 542 29.5 c 128,-1,30
 510 39 510 39 495 68 c 0,31,32
 430 197 430 197 430 207 c 0,33,34
 430 215 430 215 408 244 c 0,35,36
 395 262 395 262 384.5 266.5 c 128,-1,37
 374 271 374 271 356.5 267 c 128,-1,38
 339 263 339 263 295 247 c 0,39,40
 225 222 225 222 177 195 c 128,-1,41
 129 168 129 168 129 154 c 0,42,43
 129 146 129 146 101 107 c 128,-1,44
 73 68 73 68 52 68 c 0,45,46
 35 68 35 68 20 88 c 0,47,48
 10 102 10 102 10 114 c 0,49,50
 10 119 10 119 12 124 c 0,51,52
 15 132 15 132 25 174 c 128,-1,53
 35 216 35 216 55 288 c 128,-1,54
 75 360 75 360 100 433 c 0,55,56
 121 494 121 494 126.5 532 c 128,-1,57
 132 570 132 570 136.5 598 c 128,-1,58
 141 626 141 626 161 673 c 0,0,1
346 376 m 0,59,60
 346 391 346 391 298 455 c 0,61,62
 246 524 246 524 233 524 c 0,63,64
 225 524 225 524 218.5 506.5 c 128,-1,65
 212 489 212 489 202.5 449 c 128,-1,66
 193 409 193 409 185 383 c 0,67,68
 175 351 175 351 174 340 c 0,69,70
 174 339 174 339 174 337 c 0,71,72
 174 328 174 328 180 322 c 0,73,74
 184 318 184 318 190 316 c 0,75,76
 192 316 192 316 195 315 c 1,77,78
 200 315 200 315 206 317 c 0,79,80
 216 320 216 320 226.5 324.5 c 128,-1,81
 237 329 237 329 260 337.5 c 128,-1,82
 283 346 283 346 307 354 c 0,83,84
 346 366 346 366 346 376 c 0,59,60
EndSplineSet
Validated: 1
EndChar

StartChar: B
Encoding: 66 66 37
Width: 739
Flags: W
LayerCount: 2
Fore
SplineSet
268 107 m 0,0,1
 268 133 268 133 251.5 158 c 128,-1,2
 235 183 235 183 235 189 c 0,3,4
 235 201 235 201 203 244 c 0,5,6
 180 274 180 274 175 288.5 c 128,-1,7
 170 303 170 303 170 339 c 0,8,9
 170 370 170 370 165.5 389.5 c 128,-1,10
 161 409 161 409 147 435 c 0,11,12
 123 479 123 479 105 483 c 1,13,14
 98 483 98 483 97 473 c 1,15,16
 98 461 98 461 76 431 c 0,17,18
 56 404 56 404 48 404 c 0,19,20
 47 404 47 404 46 404 c 0,21,22
 38 407 38 407 22 459 c 0,23,24
 10 497 10 497 10 508 c 128,-1,25
 10 519 10 519 20 537 c 0,26,27
 33 562 33 562 52.5 575 c 128,-1,28
 72 588 72 588 125 607 c 2,29,-1
 207 637 l 2,30,31
 234 647 234 647 300 662 c 128,-1,32
 366 677 366 677 398 678 c 1,33,34
 445 678 445 678 486.5 644 c 128,-1,35
 528 610 528 610 528 570 c 0,36,37
 528 550 528 550 514.5 514.5 c 128,-1,38
 501 479 501 479 485 456 c 0,39,40
 471 436 471 436 469 414 c 0,41,42
 469 411 469 411 469 408 c 0,43,44
 469 391 469 391 479 385 c 0,45,46
 491 378 491 378 549 361 c 0,47,48
 606 344 606 344 651.5 309 c 128,-1,49
 697 274 697 274 716 233 c 0,50,51
 730 203 730 203 730 193 c 0,52,53
 730 182 730 182 719 152 c 0,54,55
 710 127 710 127 690.5 100 c 128,-1,56
 671 73 671 73 627 25 c 0,57,58
 579 -27 579 -27 550 -53 c 0,59,60
 521 -78 521 -78 493 -90 c 0,61,62
 473 -98 473 -98 456 -99 c 0,63,64
 453 -99 453 -99 451 -99 c 0,65,66
 446 -99 446 -99 442 -98 c 0,67,68
 420 -94 420 -94 387 -74 c 1,69,70
 336 -46 336 -46 319 -27 c 0,71,72
 301 -7 301 -7 284.5 36.5 c 128,-1,73
 268 80 268 80 268 107 c 0,0,1
403 592 m 1,74,75
 380 602 380 602 363 602 c 0,76,77
 361 602 361 602 360 603 c 1,78,79
 345 603 345 603 337 598 c 0,80,81
 328 593 328 593 312 587.5 c 128,-1,82
 296 582 296 582 279 581 c 0,83,84
 261 580 261 580 236 560 c 1,85,-1
 212 539 l 1,86,-1
 225 501 l 2,87,88
 243 447 243 447 258 426 c 0,89,90
 272 407 272 407 291 407 c 0,91,92
 293 407 293 407 295 407 c 0,93,94
 317 409 317 409 353 439 c 0,95,96
 390 469 390 469 406 492.5 c 128,-1,97
 422 516 422 516 427 546 c 0,98,99
 429 560 429 560 429 569 c 0,100,101
 429 576 429 576 428 578 c 0,102,103
 425 584 425 584 403 592 c 1,74,75
560 254 m 1,104,105
 542 266 542 266 520.5 269 c 128,-1,106
 499 272 499 272 438 272 c 0,107,108
 343 272 343 272 338 266 c 0,109,110
 332 260 332 260 332 239 c 128,-1,111
 332 218 332 218 338 212 c 0,112,113
 349 200 349 200 357 164 c 0,114,115
 363 135 363 135 363 107 c 0,116,117
 363 100 363 100 363 93 c 0,118,119
 363 82 363 82 363 74 c 0,120,121
 362 53 362 53 364 46 c 0,122,123
 366 37 366 37 383 29 c 0,124,125
 397 23 397 23 411.5 23 c 128,-1,126
 426 23 426 23 456 28 c 1,127,128
 489 35 489 35 504 43 c 128,-1,129
 519 51 519 51 542 76 c 0,130,131
 625 167 625 167 625 191 c 0,132,133
 625 202 625 202 607.5 219.5 c 128,-1,134
 590 237 590 237 560 254 c 1,104,105
EndSplineSet
Validated: 33
EndChar

StartChar: C
Encoding: 67 67 38
Width: 553
Flags: W
LayerCount: 2
Fore
SplineSet
159 649 m 0,0,1
 183 658 183 658 198 658 c 0,2,3
 203 658 203 658 207 657 c 2,4,-1
 246 649 l 1,5,6
 265 644 265 644 295 612 c 128,-1,7
 325 580 325 580 325 563 c 0,8,9
 325 538 325 538 302 538 c 0,10,11
 288 538 288 538 264 548 c 0,12,13
 229 563 229 563 212 563 c 1,14,15
 210 562 210 562 208 562 c 0,16,17
 192 560 192 560 171 533 c 0,18,19
 131 484 131 484 118 398 c 0,20,21
 113 367 113 367 113 340 c 0,22,23
 113 293 113 293 128 259 c 0,24,25
 143 226 143 226 176 200 c 0,26,27
 199 182 199 182 213.5 178 c 128,-1,28
 228 174 228 174 269 174 c 0,29,30
 307 174 307 174 369.5 183 c 128,-1,31
 432 192 432 192 478 200 c 0,32,33
 510 205 510 205 524 205 c 0,34,35
 530 205 530 205 532 204 c 0,36,37
 543 199 543 199 543 179 c 0,38,39
 543 176 543 176 543 173 c 0,40,41
 541 155 541 155 530 148 c 128,-1,42
 519 141 519 141 467 124 c 0,43,44
 418 108 418 108 388 104.5 c 128,-1,45
 358 101 358 101 285 101 c 0,46,47
 177 101 177 101 149 114 c 0,48,49
 119 128 119 128 76.5 180 c 128,-1,50
 34 232 34 232 21 270 c 0,51,52
 10 300 10 300 10 317.5 c 128,-1,53
 10 335 10 335 20 394 c 0,54,55
 34 476 34 476 69 547 c 0,56,57
 99 607 99 607 112 622 c 128,-1,58
 125 637 125 637 159 649 c 0,0,1
EndSplineSet
Validated: 1
EndChar

StartChar: D
Encoding: 68 68 39
Width: 719
Flags: W
LayerCount: 2
Fore
SplineSet
140 687 m 0,0,1
 153 691 153 691 210 691 c 1,2,3
 234 690 234 690 264 690 c 0,4,5
 370 688 370 688 409 680 c 0,6,7
 443 673 443 673 502.5 644 c 128,-1,8
 562 615 562 615 594 589 c 0,9,10
 635 556 635 556 672 492.5 c 128,-1,11
 709 429 709 429 709 393 c 0,12,13
 709 339 709 339 635 250.5 c 128,-1,14
 561 162 561 162 487 127 c 0,15,16
 370 71 370 71 279 66 c 0,17,18
 272 66 272 66 265 66 c 0,19,20
 226 66 226 66 220 76 c 0,21,22
 218 79 218 79 217 86 c 1,23,24
 217 101 217 101 232 133 c 2,25,-1
 253 176 l 1,26,-1
 244 352 l 2,27,28
 241 416 241 416 237.5 461 c 128,-1,29
 234 506 234 506 228.5 534 c 128,-1,30
 223 562 223 562 219.5 578 c 128,-1,31
 216 594 216 594 207.5 601 c 128,-1,32
 199 608 199 608 194.5 609 c 128,-1,33
 190 610 190 610 178 611 c 0,34,35
 173 612 173 612 168 612 c 0,36,37
 144 612 144 612 122 600 c 0,38,39
 78 577 78 577 49 577 c 0,40,41
 34 577 34 577 23 583 c 0,42,43
 9 590 9 590 9 603 c 128,-1,44
 9 616 9 616 23 634 c 0,45,46
 30 642 30 642 39 650 c 0,47,48
 58 669 58 669 73 674 c 128,-1,49
 88 679 88 679 106.5 680.5 c 128,-1,50
 125 682 125 682 140 687 c 0,0,1
582 498 m 1,51,52
 557 528 557 528 521.5 552 c 128,-1,53
 486 576 486 576 452 588 c 1,54,55
 417 602 417 602 385 608 c 0,56,57
 361 613 361 613 344 613 c 0,58,59
 341 613 341 613 338 613 c 0,60,61
 334 613 334 613 332 613 c 0,62,63
 312 612 312 612 307 606 c 0,64,65
 306 604 306 604 306 601 c 0,66,67
 306 594 306 594 309 580 c 0,68,69
 313 559 313 559 320.5 517.5 c 128,-1,70
 328 476 328 476 332 438 c 0,71,72
 336 393 336 393 343 335.5 c 128,-1,73
 350 278 350 278 354 244 c 0,74,75
 357 217 357 217 357 204 c 2,76,-1
 357 195 l 2,77,78
 357 177 357 177 376 177 c 0,79,80
 379 177 379 177 381 177 c 0,81,82
 402 179 402 179 445 199 c 0,83,84
 501 224 501 224 556 280 c 0,85,86
 618 344 618 344 624 390 c 0,87,88
 625 395 625 395 625 400 c 0,89,90
 625 443 625 443 582 498 c 1,51,52
EndSplineSet
Validated: 1
EndChar

StartChar: E
Encoding: 69 69 40
Width: 545
Flags: W
LayerCount: 2
Fore
SplineSet
151 646 m 1,0,1
 203 652 203 652 260 659.5 c 128,-1,2
 317 667 317 667 346 671 c 0,3,4
 376 675 376 675 404 677 c 0,5,6
 414 678 414 678 421 678 c 0,7,8
 438 678 438 678 446 675 c 0,9,10
 460 671 460 671 467 660 c 0,11,12
 478 644 478 644 478 634 c 0,13,14
 478 632 478 632 478 630 c 0,15,16
 474 620 474 620 449 605 c 0,17,18
 430 593 430 593 403.5 588.5 c 128,-1,19
 377 584 377 584 308 580 c 0,20,21
 133 569 133 569 104 552 c 0,22,23
 96 547 96 547 97.5 533 c 128,-1,24
 99 519 99 519 110 485 c 0,25,26
 115 470 115 470 118.5 461.5 c 128,-1,27
 122 453 122 453 127 444 c 128,-1,28
 132 435 132 435 136.5 432 c 128,-1,29
 141 429 141 429 149 424.5 c 128,-1,30
 157 420 157 420 166.5 420.5 c 128,-1,31
 176 421 176 421 190 419 c 0,32,33
 197 418 197 418 205.5 418 c 128,-1,34
 214 418 214 418 222 419 c 1,35,36
 237 419 237 419 250 419 c 0,37,38
 302 419 302 419 324 413 c 0,39,40
 350 406 350 406 368 384 c 0,41,42
 379 370 379 370 380 358 c 0,43,44
 380 352 380 352 376 346 c 0,45,46
 371 338 371 338 350 334.5 c 128,-1,47
 329 331 329 331 265 328 c 0,48,49
 162 324 162 324 155 316 c 0,50,51
 152 313 152 313 152 303 c 0,52,53
 152 288 152 288 159 259 c 0,54,55
 171 210 171 210 184 197 c 0,56,57
 195 186 195 186 218 186 c 128,-1,58
 241 186 241 186 351 195.5 c 128,-1,59
 461 205 461 205 484.5 205 c 128,-1,60
 508 205 508 205 520 194 c 0,61,62
 536 181 536 181 536 160 c 0,63,64
 536 141 536 141 521 134 c 0,65,66
 508 127 508 127 427.5 118 c 128,-1,67
 347 109 347 109 249 103 c 0,68,69
 211 101 211 101 190 101 c 0,70,71
 176 101 176 101 170 102 c 0,72,73
 156 104 156 104 139 119 c 0,74,75
 117 140 117 140 97 143 c 0,76,77
 80 145 80 145 69 173.5 c 128,-1,78
 58 202 58 202 57 247 c 0,79,80
 56 291 56 291 39 385.5 c 128,-1,81
 22 480 22 480 14 514 c 0,82,83
 10 529 10 529 10 542.5 c 128,-1,84
 10 556 10 556 14 568 c 0,85,86
 22 592 22 592 48 616 c 1,87,88
 62 631 62 631 80 636 c 128,-1,89
 98 641 98 641 151 646 c 1,0,1
EndSplineSet
Validated: 1
EndChar

StartChar: F
Encoding: 70 70 41
Width: 412
Flags: W
LayerCount: 2
Fore
SplineSet
207 673 m 0,0,1
 223 675 223 675 259 675 c 0,2,3
 271 675 271 675 285 675 c 0,4,5
 319 674 319 674 335.5 670 c 128,-1,6
 352 666 352 666 368.5 654 c 128,-1,7
 385 642 385 642 389.5 633.5 c 128,-1,8
 394 625 394 625 393 609 c 2,9,-1
 390 585 l 1,10,-1
 263 580 l 2,11,12
 143 576 143 576 123 564 c 1,13,14
 112 556 112 556 112 535 c 0,15,16
 112 528 112 528 113 520 c 0,17,18
 126 433 126 433 136 420 c 0,19,20
 144 410 144 410 176 410 c 0,21,22
 178 410 178 410 180 410 c 0,23,24
 216 410 216 410 256 422 c 0,25,26
 286 430 286 430 313 430 c 0,27,28
 336 430 336 430 356 424 c 0,29,30
 402 412 402 412 402 382 c 0,31,32
 402 345 402 345 359 344 c 0,33,34
 344 344 344 344 316.5 336 c 128,-1,35
 289 328 289 328 261 318.5 c 128,-1,36
 233 309 233 309 226 307 c 0,37,38
 200 300 200 300 196 284 c 0,39,40
 195 281 195 281 196 276 c 1,41,42
 196 258 196 258 206 217 c 0,43,44
 209 204 209 204 216 179 c 0,45,46
 237 111 237 111 237 76 c 0,47,48
 237 36 237 36 196 36 c 0,49,50
 179 36 179 36 170.5 41 c 128,-1,51
 162 46 162 46 152 63 c 1,52,53
 138 84 138 84 124.5 133.5 c 128,-1,54
 111 183 111 183 102 209 c 1,55,56
 85 251 85 251 85 263 c 0,57,58
 85 273 85 273 74 312 c 128,-1,59
 63 351 63 351 44.5 417 c 128,-1,60
 26 483 26 483 13 539 c 0,61,62
 10 552 10 552 10 564 c 0,63,64
 10 603 10 603 41 630 c 0,65,66
 51 638 51 638 100 650.5 c 128,-1,67
 149 663 149 663 207 673 c 0,0,1
EndSplineSet
Validated: 1
EndChar

StartChar: G
Encoding: 71 71 42
Width: 634
Flags: W
LayerCount: 2
Fore
SplineSet
49 558 m 0,0,1
 54 577 54 577 79.5 604 c 128,-1,2
 105 631 105 631 143 654 c 0,3,4
 182 678 182 678 222 692 c 0,5,6
 249 702 249 702 276 702 c 0,7,8
 290 702 290 702 302 700 c 0,9,10
 342 693 342 693 365 661 c 1,11,-1
 382 639 l 1,12,-1
 363 614 l 1,13,14
 348 592 348 592 332 590 c 0,15,16
 330 590 330 590 326 590 c 0,17,18
 310 590 310 590 285 602 c 0,19,20
 266 611 266 611 256.5 610 c 128,-1,21
 247 609 247 609 220 595 c 0,22,23
 152 561 152 561 105 471 c 0,24,25
 90 442 90 442 88 424 c 0,26,27
 87 417 87 417 87 402 c 0,28,29
 87 381 87 381 89 345 c 0,30,31
 94 259 94 259 108 231 c 0,32,33
 148 146 148 146 218 121 c 0,34,35
 250 109 250 109 292 109 c 0,36,37
 340 109 340 109 400 125 c 0,38,39
 450 138 450 138 473 154 c 0,40,41
 491 167 491 167 491 181 c 0,42,43
 491 185 491 185 489 189 c 0,44,45
 489 190 489 190 483 214.5 c 128,-1,46
 477 239 477 239 470 263.5 c 128,-1,47
 463 288 463 288 450 310.5 c 128,-1,48
 437 333 437 333 423 335 c 0,49,50
 422 335 422 335 421 335 c 0,51,52
 403 335 403 335 348 304 c 0,53,54
 302 278 302 278 286 274 c 128,-1,55
 270 270 270 270 259 281 c 128,-1,56
 248 292 248 292 248 310 c 0,57,58
 248 316 248 316 250 322 c 1,59,60
 254 348 254 348 274 365 c 0,61,62
 308 393 308 393 354.5 417 c 128,-1,63
 401 441 401 441 430 446 c 0,64,65
 443 448 443 448 452 448 c 0,66,67
 462 448 462 448 467 446 c 0,68,69
 476 442 476 442 503 410 c 0,70,71
 539 368 539 368 581 285 c 0,72,73
 620 208 620 208 624 166 c 0,74,75
 624 163 624 163 624 160 c 128,-1,76
 624 157 624 157 624 154 c 0,77,78
 624 119 624 119 603 85 c 2,79,-1
 582 52 l 1,80,-1
 539 57 l 2,81,82
 527 58 527 58 514 58 c 0,83,84
 479 58 479 58 435 49 c 0,85,86
 350 32 350 32 278 32 c 0,87,88
 266 32 266 32 256 32 c 0,89,90
 176 35 176 35 133 60 c 0,91,92
 112 73 112 73 79 109 c 128,-1,93
 46 145 46 145 46 155 c 0,94,95
 46 163 46 163 28 203 c 0,96,97
 17 229 17 229 14 256 c 128,-1,98
 11 283 11 283 10 357 c 1,99,100
 10 433 10 433 12.5 457.5 c 128,-1,101
 15 482 15 482 26 503 c 0,102,103
 43 536 43 536 49 558 c 0,0,1
EndSplineSet
Validated: 1
EndChar

StartChar: H
Encoding: 72 72 43
Width: 636
Flags: W
LayerCount: 2
Fore
SplineSet
355 692 m 0,0,1
 366 709 366 709 385 709 c 0,2,3
 387 709 387 709 389 709 c 0,4,5
 402 707 402 707 407.5 701 c 128,-1,6
 413 695 413 695 417 678 c 0,7,8
 426 630 426 630 445.5 566 c 128,-1,9
 465 502 465 502 475 488 c 1,10,11
 487 468 487 468 514 463 c 0,12,13
 608 446 608 446 619 424 c 0,14,15
 626 411 626 411 626 402 c 0,16,17
 626 395 626 395 622 391 c 0,18,19
 613 380 613 380 578 374 c 2,20,-1
 533 365 l 1,21,-1
 534 333 l 2,22,23
 534 315 534 315 546 274.5 c 128,-1,24
 558 234 558 234 569 198 c 0,25,26
 580 164 580 164 585 126 c 0,27,28
 586 116 586 116 586 108 c 0,29,30
 586 86 586 86 576 78 c 1,31,32
 566 68 566 68 538 68 c 2,33,34
 538 68 538 68 536 68 c 0,35,36
 506 68 506 68 499.5 78.5 c 128,-1,37
 493 89 493 89 488 125 c 0,38,39
 483 158 483 158 463 213.5 c 128,-1,40
 443 269 443 269 429 291 c 1,41,42
 415 311 415 311 415 324 c 128,-1,43
 415 337 415 337 396 349 c 0,44,45
 382 358 382 358 370 358 c 0,46,47
 369 358 369 358 368 358 c 0,48,49
 355 358 355 358 324 353 c 0,50,51
 235 337 235 337 208.5 330 c 128,-1,52
 182 323 182 323 170 313 c 0,53,54
 156 302 156 302 155 296 c 128,-1,55
 154 290 154 290 162 271 c 0,56,57
 174 243 174 243 178 200 c 0,58,59
 179 188 179 188 178 178 c 1,60,61
 178 153 178 153 172 146 c 0,62,63
 162 135 162 135 141 130 c 0,64,65
 137 129 137 129 132 129 c 0,66,67
 117 130 117 130 102 142 c 0,68,69
 82 158 82 158 82 178 c 0,70,71
 82 187 82 187 64.5 246.5 c 128,-1,72
 47 306 47 306 41 373 c 0,73,74
 38 403 38 403 31 445.5 c 128,-1,75
 24 488 24 488 19 518.5 c 128,-1,76
 14 549 14 549 10 579 c 0,77,78
 9 588 9 588 9 595 c 0,79,80
 9 599 9 599 9 603 c 0,81,82
 10 618 10 618 12 626 c 0,83,84
 16 642 16 642 29 644 c 0,85,86
 31 644 31 644 33 644 c 0,87,88
 56 644 56 644 72 612 c 0,89,90
 90 577 90 577 125 454 c 0,91,92
 131 436 131 436 137 428.5 c 128,-1,93
 143 421 143 421 153 419 c 0,94,95
 155 419 155 419 159 419 c 0,96,97
 182 419 182 419 258 430 c 0,98,99
 346 443 346 443 365 451 c 0,100,101
 383 458 383 458 383 486 c 0,102,103
 383 517 383 517 368 559 c 0,104,105
 355 596 355 596 349 634 c 0,106,107
 347 647 347 647 347 657 c 0,108,109
 347 679 347 679 355 692 c 0,0,1
EndSplineSet
Validated: 1
EndChar

StartChar: I
Encoding: 73 73 44
Width: 650
Flags: W
LayerCount: 2
Fore
SplineSet
96 638 m 1,0,1
 139 646 139 646 181 654.5 c 128,-1,2
 223 663 223 663 243.5 667 c 128,-1,3
 264 671 264 671 286 675 c 128,-1,4
 308 679 308 679 323.5 680 c 128,-1,5
 339 681 339 681 359.5 681 c 128,-1,6
 380 681 380 681 408 679 c 0,7,8
 450 677 450 677 463 672.5 c 128,-1,9
 476 668 476 668 492 650 c 0,10,11
 514 625 514 625 512 605 c 2,12,-1
 510 585 l 1,13,-1
 391 585 l 2,14,15
 272 585 272 585 266 579 c 0,16,17
 264 577 264 577 264 573 c 0,18,19
 264 565 264 565 270 548 c 0,20,21
 279 522 279 522 291 507 c 0,22,23
 302 494 302 494 322.5 425.5 c 128,-1,24
 343 357 343 357 343 336 c 0,25,26
 343 316 343 316 358.5 249 c 128,-1,27
 374 182 374 182 385 159 c 1,28,29
 388 150 388 150 390 147 c 128,-1,30
 392 144 392 144 402 142.5 c 128,-1,31
 412 141 412 141 423.5 141.5 c 128,-1,32
 435 142 435 142 465 145 c 0,33,34
 506 148 506 148 537 148 c 0,35,36
 623 148 623 148 637 124 c 0,37,38
 641 118 641 118 641 112 c 0,39,40
 641 102 641 102 632 92 c 0,41,42
 618 76 618 76 592 73 c 0,43,44
 567 70 567 70 437 53 c 2,45,-1
 239 27 l 2,46,47
 208 22 208 22 188 22 c 0,48,49
 173 22 173 22 166 25 c 0,50,51
 148 31 148 31 148 56 c 0,52,53
 148 75 148 75 164 86.5 c 128,-1,54
 180 98 180 98 221 110 c 2,55,-1
 266 123 l 1,56,-1
 265 173 l 2,57,58
 264 270 264 270 239.5 379.5 c 128,-1,59
 215 489 215 489 196 528 c 1,60,-1
 185 552 l 1,61,-1
 109 549 l 2,62,63
 91 548 91 548 76 548 c 0,64,65
 44 548 44 548 30 552 c 0,66,67
 10 558 10 558 10 580 c 0,68,69
 10 599 10 599 34 615.5 c 128,-1,70
 58 632 58 632 96 638 c 1,0,1
EndSplineSet
Validated: 33
EndChar

StartChar: J
Encoding: 74 74 45
Width: 815
Flags: W
LayerCount: 2
Fore
SplineSet
655 662 m 0,0,1
 725 676 725 676 760 676 c 0,2,3
 787 676 787 676 795 668 c 0,4,5
 805 658 805 658 805 645 c 128,-1,6
 805 632 805 632 796 618 c 0,7,8
 778 588 778 588 736 568 c 0,9,10
 703 553 703 553 581 547 c 0,11,12
 545 545 545 545 523 544 c 128,-1,13
 501 543 501 543 478 539.5 c 128,-1,14
 455 536 455 536 443 533.5 c 128,-1,15
 431 531 431 531 420 524 c 128,-1,16
 409 517 409 517 406 511 c 128,-1,17
 403 505 403 505 403 491.5 c 128,-1,18
 403 478 403 478 407.5 466.5 c 128,-1,19
 412 455 412 455 422.5 433.5 c 128,-1,20
 433 412 433 412 444 392.5 c 128,-1,21
 455 373 455 373 473 341 c 2,22,-1
 501 294 l 2,23,24
 506 286 506 286 510.5 281 c 128,-1,25
 515 276 515 276 521 270 c 128,-1,26
 527 264 527 264 545.5 243.5 c 128,-1,27
 564 223 564 223 590 191 c 0,28,29
 629 144 629 144 637.5 128 c 128,-1,30
 646 112 646 112 646 84 c 0,31,32
 646 66 646 66 645 56.5 c 128,-1,33
 644 47 644 47 637 37.5 c 128,-1,34
 630 28 630 28 621.5 24.5 c 128,-1,35
 613 21 613 21 591 17 c 128,-1,36
 569 13 569 13 545 12 c 128,-1,37
 521 11 521 11 477 9 c 0,38,39
 363 5 363 5 298.5 -9 c 128,-1,40
 234 -23 234 -23 187 -26 c 0,41,42
 156 -28 156 -28 140 -28 c 0,43,44
 130 -28 130 -28 125 -28 c 0,45,46
 113 -26 113 -26 99 -11 c 0,47,48
 84 5 84 5 84 19 c 0,49,50
 84 30 84 30 94 38 c 1,51,52
 114 58 114 58 175 65 c 0,53,54
 207 68 207 68 286.5 84.5 c 128,-1,55
 366 101 366 101 425 108 c 0,56,57
 481 115 481 115 500.5 120 c 128,-1,58
 520 125 520 125 520 133 c 0,59,60
 520 137 520 137 509 149 c 128,-1,61
 498 161 498 161 465.5 201.5 c 128,-1,62
 433 242 433 242 396 300 c 0,63,64
 339 387 339 387 327 406.5 c 128,-1,65
 315 426 315 426 300 456 c 1,66,67
 284 492 284 492 276 496 c 0,68,69
 274 497 274 497 267 497 c 0,70,71
 246 497 246 497 179 486 c 0,72,73
 119 477 119 477 84 477 c 0,74,75
 64 477 64 477 52 480 c 0,76,77
 19 488 19 488 11 528 c 0,78,79
 10 534 10 534 10 538 c 0,80,81
 10 560 10 560 28 570 c 0,82,83
 50 582 50 582 123 589 c 0,84,85
 444 620 444 620 655 662 c 0,0,1
EndSplineSet
Validated: 1
EndChar

StartChar: K
Encoding: 75 75 46
Width: 822
Flags: W
LayerCount: 2
Fore
SplineSet
308 309 m 0,0,1
 308 289 308 289 380 243.5 c 128,-1,2
 452 198 452 198 526.5 161.5 c 128,-1,3
 601 125 601 125 612 125 c 0,4,5
 620 125 620 125 633.5 113 c 128,-1,6
 647 101 647 101 667 96 c 0,7,8
 691 91 691 91 738 70 c 128,-1,9
 785 49 785 49 799 37 c 0,10,11
 812 26 812 26 812 5 c 0,12,13
 812 2 812 2 812 0 c 0,14,15
 810 -24 810 -24 792 -42 c 0,16,17
 773 -61 773 -61 755 -61 c 0,18,19
 754 -61 754 -61 753 -61 c 0,20,21
 734 -60 734 -60 711 -39 c 0,22,23
 682 -12 682 -12 631 11.5 c 128,-1,24
 580 35 580 35 476.5 83.5 c 128,-1,25
 373 132 373 132 257 200 c 0,26,27
 225 219 225 219 202 225 c 128,-1,28
 179 231 179 231 174 223 c 0,29,30
 173 221 173 221 173 216 c 0,31,32
 173 203 173 203 182 172 c 0,33,34
 193 134 193 134 193 118 c 0,35,36
 193 100 193 100 170 88 c 0,37,38
 148 77 148 77 138 77 c 2,39,40
 138 77 138 77 136 77 c 0,41,42
 126 78 126 78 111 97 c 1,43,44
 69 145 69 145 55 292 c 0,45,46
 48 362 48 362 32.5 463 c 128,-1,47
 17 564 17 564 11 573 c 0,48,49
 10 575 10 575 10 578 c 0,50,51
 10 586 10 586 19 601 c 0,52,53
 32 621 32 621 42 621 c 0,54,55
 54 621 54 621 71.5 602 c 128,-1,56
 89 583 89 583 89 569 c 0,57,58
 89 558 89 558 102.5 508.5 c 128,-1,59
 116 459 116 459 122 414 c 0,60,61
 127 370 127 370 133 344.5 c 128,-1,62
 139 319 139 319 146 307.5 c 128,-1,63
 153 296 153 296 161 298 c 0,64,65
 167 299 167 299 202.5 334 c 128,-1,66
 238 369 238 369 282 417 c 0,67,68
 356 500 356 500 373.5 524.5 c 128,-1,69
 391 549 391 549 399 583 c 0,70,71
 405 610 405 610 411.5 622.5 c 128,-1,72
 418 635 418 635 430 641 c 0,73,74
 434 643 434 643 440 647 c 0,75,76
 450 653 450 653 454 653 c 1,77,78
 454 653 454 653 454 652 c 1,79,80
 458 652 458 652 471 644 c 0,81,82
 474 642 474 642 475 641 c 0,83,84
 488 633 488 633 491.5 623 c 128,-1,85
 495 613 495 613 495 589 c 0,86,87
 495 549 495 549 471 509 c 128,-1,88
 447 469 447 469 381 398 c 0,89,90
 308 320 308 320 308 309 c 0,0,1
EndSplineSet
Validated: 1
EndChar

StartChar: L
Encoding: 76 76 47
Width: 691
Flags: W
LayerCount: 2
Fore
SplineSet
19 510 m 0,0,1
 10 529 10 529 10 548 c 0,2,3
 10 558 10 558 12 568 c 0,4,5
 19 596 19 596 34.5 616.5 c 128,-1,6
 50 637 50 637 60 637 c 0,7,8
 78 637 78 637 108 586.5 c 128,-1,9
 138 536 138 536 138 506 c 0,10,11
 138 487 138 487 158 380 c 0,12,13
 173 300 173 300 189 260 c 128,-1,14
 205 220 205 220 231 199 c 0,15,16
 241 190 241 190 303 190 c 0,17,18
 331 190 331 190 370 192 c 0,19,20
 494 198 494 198 546 215 c 0,21,22
 595 231 595 231 626 231 c 0,23,24
 641 231 641 231 652 227 c 0,25,26
 681 217 681 217 681 179 c 0,27,28
 681 174 681 174 681 169 c 0,29,30
 679 139 679 139 666 133 c 1,31,32
 646 122 646 122 618 114.5 c 128,-1,33
 590 107 590 107 546.5 101.5 c 128,-1,34
 503 96 503 96 473.5 92.5 c 128,-1,35
 444 89 444 89 381.5 84 c 128,-1,36
 319 79 319 79 293 77 c 2,37,-1
 200 68 l 1,38,-1
 175 93 l 1,39,40
 142 124 142 124 117 191.5 c 128,-1,41
 92 259 92 259 64 385 c 0,42,43
 50 450 50 450 19 510 c 0,0,1
EndSplineSet
Validated: 1
EndChar

StartChar: M
Encoding: 77 77 48
Width: 728
Flags: WO
LayerCount: 2
Fore
SplineSet
16 628 m 0,0,1
 21 636 21 636 32 636 c 0,2,3
 48 636 48 636 76 620 c 0,4,5
 124 592 124 592 237 501 c 0,6,7
 321 434 321 434 337 434 c 0,8,9
 347 434 347 434 389.5 463.5 c 128,-1,10
 432 493 432 493 447 511 c 0,11,12
 468 536 468 536 520 578.5 c 128,-1,13
 572 621 572 621 581 621 c 0,14,15
 599 621 599 621 626.5 592 c 128,-1,16
 654 563 654 563 662 536 c 0,17,18
 669 510 669 510 678 341 c 128,-1,19
 687 172 687 172 693 164 c 0,20,21
 701 154 701 154 711 127 c 1,22,23
 718 112 718 112 718 104 c 128,-1,24
 718 96 718 96 704 80 c 0,25,26
 685 60 685 60 658 60 c 128,-1,27
 631 60 631 60 618 80 c 0,28,29
 600 107 600 107 593.5 150 c 128,-1,30
 587 193 587 193 582 311 c 0,31,32
 576 467 576 467 566 479 c 0,33,34
 559 487 559 487 548.5 482.5 c 128,-1,35
 538 478 538 478 508 454 c 256,36,37
 478 430 478 430 446.5 403 c 128,-1,38
 415 376 415 376 401.5 363 c 128,-1,39
 388 350 388 350 369 338.5 c 128,-1,40
 350 327 350 327 340.5 326.5 c 128,-1,41
 331 326 331 326 312.5 332.5 c 128,-1,42
 294 339 294 339 276.5 353 c 128,-1,43
 259 367 259 367 228 394 c 0,44,45
 154 457 154 457 134 457 c 0,46,47
 130 457 130 457 128 455 c 0,48,49
 126 452 126 452 126 445 c 0,50,51
 126 420 126 420 152.5 310.5 c 128,-1,52
 179 201 179 201 183 176 c 1,53,54
 189 147 189 147 189 129 c 0,55,56
 189 115 189 115 185 107 c 0,57,58
 178 94 178 94 154 94 c 0,59,60
 149 94 149 94 144 94 c 0,61,62
 114 97 114 97 99 132 c 128,-1,63
 84 167 84 167 65 280 c 2,64,-1
 40 434 l 2,65,66
 35 462 35 462 23 486 c 1,67,68
 12 504 12 504 10 560 c 0,69,70
 10 566 10 566 10 572 c 128,-1,71
 10 578 10 578 10 584 c 0,72,73
 10 619 10 619 16 628 c 0,0,1
EndSplineSet
Validated: 1
EndChar

StartChar: N
Encoding: 78 78 49
Width: 685
Flags: W
LayerCount: 2
Fore
SplineSet
472 446 m 0,0,1
 472 449 472 449 451.5 478 c 128,-1,2
 431 507 431 507 431 514 c 0,3,4
 431 524 431 524 415 550 c 0,5,6
 400 576 400 576 400 608 c 0,7,8
 400 635 400 635 412 652 c 0,9,10
 424 670 424 670 449 670 c 0,11,12
 450 670 450 670 452 670 c 0,13,14
 478 669 478 669 496 650 c 0,15,16
 512 633 512 633 516.5 602.5 c 128,-1,17
 521 572 521 572 528.5 530 c 128,-1,18
 536 488 536 488 555 452 c 0,19,20
 570 425 570 425 570 418 c 0,21,22
 570 409 570 409 607 332.5 c 128,-1,23
 644 256 644 256 659 235 c 0,24,25
 675 211 675 211 675 181 c 256,26,27
 675 151 675 151 662.5 110 c 128,-1,28
 650 69 650 69 634 49 c 0,29,30
 624 35 624 35 613 31.5 c 128,-1,31
 602 28 602 28 574 28 c 0,32,33
 543 28 543 28 530 33.5 c 128,-1,34
 517 39 517 39 487 65 c 0,35,36
 460 89 460 89 418.5 130 c 128,-1,37
 377 171 377 171 341.5 202.5 c 128,-1,38
 306 234 306 234 268 259 c 2,39,-1
 186 313 l 2,40,41
 167 326 167 326 153 328 c 0,42,43
 134 330 134 330 134 315 c 0,44,45
 134 307 134 307 140 285 c 0,46,47
 148 258 148 258 170.5 196.5 c 128,-1,48
 193 135 193 135 206 94 c 2,49,-1
 231 19 l 1,50,-1
 212 -1 l 2,51,52
 193 -21 193 -21 177 -21 c 0,53,54
 162 -21 162 -21 146.5 -8 c 128,-1,55
 131 5 131 5 131 17 c 0,56,57
 131 24 131 24 114.5 58.5 c 128,-1,58
 98 93 98 93 98 110.5 c 128,-1,59
 98 128 98 128 82 174 c 128,-1,60
 66 220 66 220 66 229 c 0,61,62
 66 243 66 243 46 296 c 0,63,64
 28 345 28 345 17 405 c 0,65,66
 10 445 10 445 10 468 c 0,67,68
 10 479 10 479 12 486 c 0,69,70
 18 507 18 507 36 520 c 0,71,72
 47 527 47 527 59 527 c 0,73,74
 68 527 68 527 76 523 c 0,75,76
 96 514 96 514 139 475 c 0,77,78
 173 443 173 443 219.5 406 c 128,-1,79
 266 369 266 369 273 369 c 0,80,81
 282 369 282 369 346.5 317 c 128,-1,82
 411 265 411 265 470 210 c 0,83,84
 548 137 548 137 566 137 c 0,85,86
 567 137 567 137 568 137 c 0,87,88
 576 139 576 139 576 162 c 0,89,90
 576 172 576 172 575 185 c 0,91,92
 570 220 570 220 538.5 299.5 c 128,-1,93
 507 379 507 379 507 381 c 0,94,95
 503 394 503 394 487.5 418 c 128,-1,96
 472 442 472 442 472 446 c 0,0,1
EndSplineSet
Validated: 1
EndChar

StartChar: O
Encoding: 79 79 50
Width: 644
Flags: W
LayerCount: 2
Fore
SplineSet
43 483 m 0,0,1
 43 492 43 492 59 515.5 c 128,-1,2
 75 539 75 539 75 546 c 256,3,4
 75 553 75 553 98.5 573.5 c 128,-1,5
 122 594 122 594 156 617 c 0,6,7
 175 629 175 629 194.5 632.5 c 128,-1,8
 214 636 214 636 274 637 c 0,9,10
 327 637 327 637 354 634 c 128,-1,11
 381 631 381 631 406 621 c 0,12,13
 449 605 449 605 464 605 c 0,14,15
 476 605 476 605 531.5 548.5 c 128,-1,16
 587 492 587 492 587 480 c 0,17,18
 587 473 587 473 602 452 c 0,19,20
 626 418 626 418 632 344 c 0,21,22
 633 329 633 329 633 314 c 0,23,24
 633 306 633 306 633 299 c 0,25,26
 633 248 633 248 623 200 c 0,27,28
 617 171 617 171 570 124.5 c 128,-1,29
 523 78 523 78 477 56 c 0,30,31
 445 41 445 41 421.5 36.5 c 128,-1,32
 398 32 398 32 339 30 c 0,33,34
 313 29 313 29 295 29 c 0,35,36
 266 29 266 29 254 31 c 0,37,38
 234 34 234 34 193 52 c 0,39,40
 160 67 160 67 135 86 c 128,-1,41
 110 105 110 105 73 143 c 2,42,-1
 10 207 l 1,43,-1
 10 319 l 2,44,45
 10 392 10 392 12.5 414.5 c 128,-1,46
 15 437 15 437 26 450 c 0,47,48
 43 471 43 471 43 483 c 0,0,1
457 515 m 0,49,50
 418 532 418 532 362 533 c 0,51,52
 359 533 359 533 356 533 c 0,53,54
 306 533 306 533 286 518 c 0,55,56
 248 490 248 490 236 488 c 0,57,58
 235 488 235 488 233 488 c 0,59,60
 221 488 221 488 204 504 c 2,61,-1
 181 527 l 1,62,-1
 160 508 l 2,63,64
 140 489 140 489 140 481 c 128,-1,65
 140 473 140 473 125 451 c 0,66,67
 106 423 106 423 98 376 c 0,68,69
 94 352 94 352 94 331 c 128,-1,70
 94 310 94 310 98 290 c 0,71,72
 105 256 105 256 132 216 c 128,-1,73
 159 176 159 176 180 168 c 0,74,75
 193 163 193 163 221 144 c 0,76,77
 239 131 239 131 258.5 128 c 128,-1,78
 278 125 278 125 338 125 c 0,79,80
 401 125 401 125 419.5 128.5 c 128,-1,81
 438 132 438 132 459 146 c 0,82,83
 489 166 489 166 496 166 c 0,84,85
 504 166 504 166 524.5 190 c 128,-1,86
 545 214 545 214 553 233 c 0,87,88
 563 256 563 256 563 311 c 0,89,90
 563 469 563 469 457 515 c 0,49,50
EndSplineSet
Validated: 1
EndChar

StartChar: P
Encoding: 80 80 51
Width: 594
Flags: W
LayerCount: 2
Fore
SplineSet
77 683 m 0,0,1
 102 692 102 692 177 692 c 0,2,3
 197 692 197 692 222 691 c 0,4,5
 306 689 306 689 329.5 685 c 128,-1,6
 353 681 353 681 398 659 c 256,7,8
 443 637 443 637 484.5 604 c 128,-1,9
 526 571 526 571 541 545 c 0,10,11
 565 504 565 504 574.5 473 c 128,-1,12
 584 442 584 442 584 406 c 0,13,14
 584 364 584 364 575.5 338.5 c 128,-1,15
 567 313 567 313 540 273 c 0,16,17
 521 244 521 244 495.5 234.5 c 128,-1,18
 470 225 470 225 395 218 c 0,19,20
 331 213 331 213 327 203 c 0,21,22
 326 199 326 199 326 193 c 0,23,24
 326 183 326 183 328 165 c 0,25,26
 332 136 332 136 340 106 c 1,27,28
 347 74 347 74 347 43 c 0,29,30
 347 15 347 15 336 3 c 0,31,32
 321 -14 321 -14 304 -14 c 0,33,34
 298 -14 298 -14 292 -12 c 0,35,36
 268 -3 268 -3 247 37 c 0,37,38
 234 61 234 61 230 81.5 c 128,-1,39
 226 102 226 102 226 143 c 0,40,41
 225 210 225 210 218.5 230.5 c 128,-1,42
 212 251 212 251 192 253 c 0,43,44
 168 256 168 256 156 276 c 1,45,46
 150 288 150 288 149 300 c 0,47,48
 149 310 149 310 153 320 c 0,49,50
 163 344 163 344 178.5 358 c 128,-1,51
 194 372 194 372 194 406.5 c 128,-1,52
 194 441 194 441 178 489 c 0,53,54
 166 526 166 526 166 538 c 128,-1,55
 166 550 166 550 175 572 c 0,56,57
 183 592 183 592 183 603 c 1,58,59
 182 608 182 608 180 612 c 0,60,61
 177 617 177 617 169 617 c 128,-1,62
 161 617 161 617 148 613 c 0,63,64
 96 593 96 593 96 559 c 0,65,66
 96 523 96 523 74 511 c 0,67,68
 66 507 66 507 57 507 c 0,69,70
 41 507 41 507 24 521 c 0,71,72
 10 533 10 533 10 544 c 0,73,74
 10 556 10 556 18 595 c 1,75,76
 27 646 27 646 35.5 658.5 c 128,-1,77
 44 671 44 671 77 683 c 0,0,1
395 580 m 0,78,79
 353 600 353 600 304 608 c 0,80,81
 283 612 283 612 269 612 c 0,82,83
 252 612 252 612 248 606 c 0,84,85
 245 602 245 602 245 595 c 0,86,87
 245 586 245 586 250 571 c 0,88,89
 261 538 261 538 280.5 452 c 128,-1,90
 300 366 300 366 300 353 c 0,91,92
 300 338 300 338 319 329.5 c 128,-1,93
 338 321 338 321 390 313 c 0,94,95
 417 309 417 309 431 309 c 0,96,97
 434 309 434 309 436 309 c 0,98,99
 450 310 450 310 470 320 c 0,100,101
 497 334 497 334 505 360 c 0,102,103
 510 375 510 375 510 399 c 0,104,105
 510 417 510 417 507 439 c 0,106,107
 495 533 495 533 395 580 c 0,78,79
EndSplineSet
Validated: 1
EndChar

StartChar: Q
Encoding: 81 81 52
Width: 817
Flags: W
LayerCount: 2
Fore
SplineSet
580 605 m 0,0,1
 585 605 585 605 622 588.5 c 128,-1,2
 659 572 659 572 669 572 c 0,3,4
 698 572 698 572 726 536 c 0,5,6
 753 502 753 502 761 456 c 0,7,8
 764 439 764 439 764 423 c 0,9,10
 764 395 764 395 755 367 c 1,11,12
 709 259 709 259 703 215 c 0,13,14
 702 208 702 208 702 202 c 0,15,16
 702 188 702 188 707 178 c 0,17,18
 714 166 714 166 752 126 c 0,19,20
 797 80 797 80 805 54 c 0,21,22
 807 47 807 47 807 40 c 0,23,24
 807 21 807 21 792 3 c 1,25,26
 782 -12 782 -12 776 -12 c 2,27,-1
 775 -12 l 2,28,29
 769 -12 769 -12 749 -2 c 0,30,31
 720 12 720 12 673 54 c 0,32,33
 641 82 641 82 631 87 c 128,-1,34
 621 92 621 92 609 84 c 0,35,36
 568 58 568 58 539 51 c 128,-1,37
 510 44 510 44 447 44 c 0,38,39
 388 44 388 44 317.5 54.5 c 128,-1,40
 247 65 247 65 234 76 c 0,41,42
 225 83 225 83 205 89 c 256,43,44
 185 95 185 95 144 122 c 128,-1,45
 103 149 103 149 87 167 c 0,46,47
 51 208 51 208 30.5 275 c 128,-1,48
 10 342 10 342 10 420 c 0,49,50
 10 467 10 467 24.5 504 c 128,-1,51
 39 541 39 541 75 590 c 0,52,53
 97 620 97 620 118.5 636.5 c 128,-1,54
 140 653 140 653 193 683 c 1,55,56
 232 703 232 703 282 703 c 1,57,58
 290 702 290 702 298 702 c 0,59,60
 358 698 358 698 408 684 c 128,-1,61
 458 670 458 670 475 656 c 0,62,63
 487 646 487 646 529 625.5 c 128,-1,64
 571 605 571 605 580 605 c 0,0,1
487 361 m 0,65,66
 493 361 493 361 550 308 c 128,-1,67
 607 255 607 255 620 255 c 0,68,69
 626 255 626 255 631 259 c 128,-1,70
 636 263 636 263 642.5 274 c 128,-1,71
 649 285 649 285 654.5 296.5 c 128,-1,72
 660 308 660 308 671.5 332.5 c 128,-1,73
 683 357 683 357 695 379 c 0,74,75
 706 401 706 401 706 409 c 0,76,77
 706 416 706 416 693 438 c 0,78,79
 678 463 678 463 657 481 c 128,-1,80
 636 499 636 499 622 499 c 0,81,82
 611 499 611 499 543.5 528.5 c 128,-1,83
 476 558 476 558 420 584 c 128,-1,84
 364 610 364 610 358 613 c 0,85,86
 347 619 347 619 324 619 c 0,87,88
 297 619 297 619 254 611 c 0,89,90
 226 606 226 606 210.5 597.5 c 128,-1,91
 195 589 195 589 172 567 c 0,92,93
 134 531 134 531 116 494 c 0,94,95
 104 470 104 470 102 448 c 0,96,97
 101 436 101 436 100 411 c 0,98,99
 100 391 100 391 101 363 c 2,100,-1
 103 269 l 1,101,-1
 160 217 l 2,102,103
 217 166 217 166 223.5 166 c 128,-1,104
 230 166 230 166 269 148 c 0,105,106
 304 132 304 132 374 124 c 0,107,108
 406 120 406 120 433 120 c 0,109,110
 438 120 438 120 443 120 c 0,111,112
 469 120 469 120 489 123 c 0,113,114
 516 127 516 127 527 132.5 c 128,-1,115
 538 138 538 138 546 150 c 1,116,117
 555 166 555 166 551.5 175 c 128,-1,118
 548 184 548 184 522 215 c 0,119,120
 506 235 506 235 495 249 c 128,-1,121
 484 263 484 263 475 273.5 c 128,-1,122
 466 284 466 284 462.5 292.5 c 128,-1,123
 459 301 459 301 455.5 305 c 128,-1,124
 452 309 452 309 453.5 314.5 c 128,-1,125
 455 320 455 320 454.5 321 c 128,-1,126
 454 322 454 322 458 328.5 c 128,-1,127
 462 335 462 335 463 336 c 0,128,129
 477 361 477 361 487 361 c 0,65,66
EndSplineSet
Validated: 1
EndChar

StartChar: R
Encoding: 82 82 53
Width: 799
Flags: W
LayerCount: 2
Fore
SplineSet
19 611 m 0,0,1
 45 642 45 642 121 671.5 c 128,-1,2
 197 701 197 701 252 702 c 0,3,4
 287 702 287 702 340.5 686.5 c 128,-1,5
 394 671 394 671 433 649 c 0,6,7
 462 633 462 633 507.5 592.5 c 128,-1,8
 553 552 553 552 553 543 c 0,9,10
 553 533 553 533 565 524 c 0,11,12
 576 515 576 515 589 471 c 128,-1,13
 602 427 602 427 602 400 c 0,14,15
 602 374 602 374 577 324.5 c 128,-1,16
 552 275 552 275 531 258 c 0,17,18
 519 249 519 249 515.5 241 c 128,-1,19
 512 233 512 233 515 222 c 0,20,21
 525 183 525 183 606 105.5 c 128,-1,22
 687 28 687 28 718 28 c 0,23,24
 738 28 738 28 763.5 0.5 c 128,-1,25
 789 -27 789 -27 789 -49 c 0,26,27
 789 -68 789 -68 773 -89.5 c 128,-1,28
 757 -111 757 -111 742 -111 c 0,29,30
 730 -111 730 -111 679 -87 c 0,31,32
 648 -72 648 -72 614 -42.5 c 128,-1,33
 580 -13 580 -13 501 67 c 2,34,-1
 374 196 l 1,35,-1
 320 202 l 2,36,37
 300 204 300 204 286 204 c 0,38,39
 264 204 264 204 258 198 c 0,40,41
 254 194 254 194 254 177 c 0,42,43
 254 157 254 157 259 119 c 0,44,45
 263 84 263 84 263 61 c 0,46,47
 263 40 263 40 260 30 c 0,48,49
 253 7 253 7 227 7 c 0,50,51
 226 7 226 7 225 7 c 0,52,53
 195 7 195 7 182 32 c 0,54,55
 164 68 164 68 134 271 c 0,56,57
 133 281 133 281 131 292 c 0,58,59
 101 502 101 502 35 533 c 0,60,61
 16 542 16 542 12 561 c 0,62,63
 10 571 10 571 9 579 c 0,64,65
 9 586 9 586 11 593 c 0,66,67
 15 606 15 606 19 611 c 0,0,1
314 614 m 1,68,69
 275 619 275 619 244 619 c 0,70,71
 178 619 178 619 149 595 c 0,72,73
 143 591 143 591 143 581 c 1,74,75
 144 577 144 577 144 572 c 1,76,77
 148 555 148 555 155.5 539.5 c 128,-1,78
 163 524 163 524 171 506 c 128,-1,79
 179 488 179 488 179 479 c 0,80,81
 179 467 179 467 193.5 424 c 128,-1,82
 208 381 208 381 211 361 c 0,83,84
 213 349 213 349 217 343 c 128,-1,85
 221 337 221 337 228 332 c 128,-1,86
 235 327 235 327 254 325.5 c 128,-1,87
 273 324 273 324 296 323 c 128,-1,88
 319 322 319 322 363 321 c 1,89,90
 434 321 434 321 451.5 323.5 c 128,-1,91
 469 326 469 326 487 341 c 0,92,93
 527 375 527 375 527 415 c 0,94,95
 527 464 527 464 469 524 c 1,96,97
 425 568 425 568 391 587.5 c 128,-1,98
 357 607 357 607 314 614 c 1,68,69
EndSplineSet
Validated: 1
EndChar

StartChar: S
Encoding: 83 83 54
Width: 577
Flags: W
LayerCount: 2
Fore
SplineSet
473 205 m 0,0,1
 473 222 473 222 454.5 244.5 c 128,-1,2
 436 267 436 267 418 281.5 c 128,-1,3
 400 296 400 296 397 296 c 0,4,5
 390 296 390 296 369 311 c 0,6,7
 353 322 353 322 265 345.5 c 128,-1,8
 177 369 177 369 153 369 c 0,9,10
 137 369 137 369 106 388.5 c 128,-1,11
 75 408 75 408 44 437 c 0,12,13
 23 458 23 458 16.5 469.5 c 128,-1,14
 10 481 10 481 10 500 c 0,15,16
 10 560 10 560 56.5 601 c 128,-1,17
 103 642 103 642 217 683 c 0,18,19
 270 702 270 702 324 702 c 128,-1,20
 378 702 378 702 417 682 c 0,21,22
 449 666 449 666 462 649 c 0,23,24
 473 635 473 635 473 619 c 0,25,26
 473 615 473 615 472 611 c 0,27,28
 469 595 469 595 455 594 c 0,29,30
 453 594 453 594 451 594 c 0,31,32
 436 594 436 594 414 600 c 0,33,34
 388 606 388 606 356 611 c 0,35,36
 344 613 344 613 331 613 c 0,37,38
 328 613 328 613 324 613 c 0,39,40
 304 613 304 613 280 608 c 0,41,42
 234 600 234 600 190 573 c 0,43,44
 136 541 136 541 121 525 c 0,45,46
 111 513 111 513 112.5 508 c 128,-1,47
 114 503 114 503 134 488 c 0,48,49
 162 467 162 467 173 467 c 0,50,51
 180 467 180 467 236.5 450.5 c 128,-1,52
 293 434 293 434 312.5 434 c 128,-1,53
 332 434 332 434 391 407.5 c 128,-1,54
 450 381 450 381 477 360 c 0,55,56
 498 343 498 343 525 300 c 128,-1,57
 552 257 552 257 562 224 c 0,58,59
 568 205 568 205 568 185 c 0,60,61
 568 144 568 144 544 103 c 0,62,63
 508 42 508 42 442 19 c 0,64,65
 424 12 424 12 414 9 c 256,66,67
 404 6 404 6 390 4 c 0,68,69
 380 3 380 3 373 3 c 1,70,71
 372 4 372 4 370 4 c 0,72,73
 364 4 364 4 346 8 c 128,-1,74
 328 12 328 12 317 15.5 c 128,-1,75
 306 19 306 19 275.5 28 c 128,-1,76
 245 37 245 37 221 44 c 0,77,78
 117 74 117 74 104 85 c 0,79,80
 96 93 96 93 74 93 c 0,81,82
 49 93 49 93 44.5 105.5 c 128,-1,83
 40 118 40 118 50 132.5 c 128,-1,84
 60 147 60 147 75 154 c 0,85,86
 96 165 96 165 120 165 c 0,87,88
 122 165 122 165 124 165 c 0,89,90
 150 164 150 164 201 149 c 0,91,92
 242 136 242 136 328 126 c 0,93,94
 375 120 375 120 402 120 c 0,95,96
 406 120 406 120 409 120 c 0,97,98
 424 120 424 120 430 122 c 0,99,100
 442 127 442 127 457.5 157 c 128,-1,101
 473 187 473 187 473 205 c 0,0,1
EndSplineSet
Validated: 1
EndChar

StartChar: T
Encoding: 84 84 55
Width: 849
Flags: W
LayerCount: 2
Fore
SplineSet
560 55 m 0,0,1
 560 62 560 62 551.5 73 c 128,-1,2
 543 84 543 84 535 100.5 c 128,-1,3
 527 117 527 117 527 138 c 0,4,5
 527 171 527 171 511 191 c 0,6,7
 501 203 501 203 497.5 219.5 c 128,-1,8
 494 236 494 236 494 272 c 0,9,10
 494 349 494 349 473 435.5 c 128,-1,11
 452 522 452 522 428 546 c 0,12,13
 420 554 420 554 395 554 c 0,14,15
 389 554 389 554 381 554 c 0,16,17
 344 552 344 552 235 532 c 0,18,19
 184 523 184 523 147 523 c 0,20,21
 89 523 89 523 70 546 c 0,22,23
 64 554 64 554 64 564 c 0,24,25
 64 578 64 578 76 596 c 0,26,27
 85 608 85 608 98 611 c 128,-1,28
 111 614 111 614 158 614 c 0,29,30
 247 614 247 614 495 660 c 1,31,-1
 600 679 l 2,32,33
 626 684 626 684 650 684 c 0,34,35
 686 684 686 684 715 673 c 0,36,37
 763 655 763 655 763 617 c 0,38,39
 763 591 763 591 743 577 c 0,40,41
 731 568 731 568 718 568 c 0,42,43
 709 568 709 568 700 572 c 0,44,45
 674 584 674 584 617 587 c 0,46,47
 607 587 607 587 598 587 c 0,48,49
 558 587 558 587 547 578 c 0,50,51
 536 570 536 570 536 562.5 c 128,-1,52
 536 555 536 555 546 524 c 0,53,54
 560 482 560 482 560 465 c 0,55,56
 560 441 560 441 589.5 333.5 c 128,-1,57
 619 226 619 226 651 132 c 1,58,59
 662 103 662 103 662 87 c 0,60,61
 662 81 662 81 660 77 c 0,62,63
 654 63 654 63 618 53 c 0,64,65
 591 45 591 45 576 45 c 0,66,67
 560 45 560 45 560 55 c 0,0,1
EndSplineSet
Validated: 1
EndChar

StartChar: U
Encoding: 85 85 56
Width: 613
Flags: W
LayerCount: 2
Fore
SplineSet
454 701 m 1,0,1
 465 711 465 711 477 711 c 0,2,3
 479 711 479 711 480 711 c 0,4,5
 484 711 484 711 488 710 c 0,6,7
 506 704 506 704 523 676 c 1,8,9
 541 649 541 649 557.5 584 c 128,-1,10
 574 519 574 519 575 478 c 0,11,12
 575 444 575 444 592 356 c 0,13,14
 603 297 603 297 603 256 c 0,15,16
 603 250 603 250 603 244 c 0,17,18
 601 200 601 200 582 131 c 0,19,20
 574 102 574 102 517.5 45 c 128,-1,21
 461 -12 461 -12 433 -19 c 0,22,23
 421 -22 421 -22 402 -22 c 0,24,25
 376 -22 376 -22 336 -16 c 0,26,27
 266 -6 266 -6 236 10 c 0,28,29
 202 27 202 27 160 74 c 0,30,31
 130 108 130 108 100.5 159.5 c 128,-1,32
 71 211 71 211 71 231 c 0,33,34
 71 249 71 249 24 410 c 1,35,36
 10 454 10 454 10 556 c 0,37,38
 10 647 10 647 16 655 c 0,39,40
 19 659 19 659 29 661 c 0,41,42
 48 663 48 663 56 655 c 0,43,44
 63 648 63 648 83 572.5 c 128,-1,45
 103 497 103 497 103 477 c 0,46,47
 103 471 103 471 104.5 463 c 128,-1,48
 106 455 106 455 111 440 c 128,-1,49
 116 425 116 425 121 410 c 128,-1,50
 126 395 126 395 136.5 363 c 128,-1,51
 147 331 147 331 157 300 c 0,52,53
 174 246 174 246 199.5 198.5 c 128,-1,54
 225 151 225 151 247 132 c 0,55,56
 289 96 289 96 351 87 c 0,57,58
 363 85 363 85 372 85.5 c 128,-1,59
 381 86 381 86 387 87 c 0,60,61
 399 90 399 90 421 105 c 0,62,63
 454 128 454 128 484 165 c 0,64,65
 506 192 506 192 510 205 c 0,66,67
 512 212 512 212 512 234 c 0,68,69
 512 240 512 240 512 249 c 0,70,71
 512 259 512 259 512 271 c 0,72,73
 510 331 510 331 493.5 386 c 128,-1,74
 477 441 477 441 477 501 c 0,75,76
 477 541 477 541 474 559.5 c 128,-1,77
 471 578 471 578 461 593 c 0,78,79
 447 613 447 613 445 651 c 0,80,81
 445 657 445 657 445 662 c 0,82,83
 445 691 445 691 454 701 c 1,0,1
EndSplineSet
Validated: 1
EndChar

StartChar: V
Encoding: 86 86 57
Width: 621
Flags: W
LayerCount: 2
Fore
SplineSet
516 676 m 0,0,1
 525 693 525 693 533.5 697.5 c 128,-1,2
 542 702 542 702 563 702 c 0,3,4
 583 702 583 702 590.5 698.5 c 128,-1,5
 598 695 598 695 603 682 c 0,6,7
 611 661 611 661 611 641 c 0,8,9
 611 624 611 624 594.5 564.5 c 128,-1,10
 578 505 578 505 570 495 c 0,11,12
 567 491 567 491 522 407 c 128,-1,13
 477 323 477 323 461 299 c 0,14,15
 446 276 446 276 444 262 c 0,16,17
 443 255 443 255 442 243 c 1,18,19
 442 227 442 227 444 202 c 0,20,21
 446 176 446 176 446 161 c 0,22,23
 446 148 446 148 444 142 c 0,24,25
 442 130 442 130 424 109 c 0,26,27
 409 92 409 92 398.5 86.5 c 128,-1,28
 388 81 388 81 370 81 c 0,29,30
 342 81 342 81 326.5 84 c 128,-1,31
 311 87 311 87 299 98 c 128,-1,32
 287 109 287 109 280 120.5 c 128,-1,33
 273 132 273 132 255.5 158.5 c 128,-1,34
 238 185 238 185 217 211 c 0,35,36
 192 242 192 242 176 274.5 c 128,-1,37
 160 307 160 307 138 353 c 128,-1,38
 116 399 116 399 81 451 c 0,39,40
 50 498 50 498 50 503 c 0,41,42
 50 507 50 507 39.5 521 c 128,-1,43
 29 535 29 535 20 550 c 0,44,45
 9 568 9 568 9 588 c 0,46,47
 9 606 9 606 26 621 c 1,48,49
 41 637 41 637 60 637 c 1,50,51
 60 637 60 637 61 636 c 1,52,53
 81 636 81 636 96 620 c 0,54,55
 117 598 117 598 226 372 c 0,56,57
 238 348 238 348 282 304 c 0,58,59
 321 265 321 265 330 265 c 0,60,61
 331 265 331 265 332 266 c 0,62,63
 337 269 337 269 348.5 290 c 128,-1,64
 360 311 360 311 380.5 348 c 128,-1,65
 401 385 401 385 422 416 c 0,66,67
 457 467 457 467 457 476 c 0,68,69
 457 483 457 483 462 491 c 128,-1,70
 467 499 467 499 474 507.5 c 128,-1,71
 481 516 481 516 488 538.5 c 128,-1,72
 495 561 495 561 497 592 c 0,73,74
 502 650 502 650 516 676 c 0,0,1
EndSplineSet
Validated: 1
EndChar

StartChar: W
Encoding: 87 87 58
Width: 823
Flags: W
LayerCount: 2
Fore
SplineSet
744 620 m 0,0,1
 751 629 751 629 771 629 c 0,2,3
 773 629 773 629 775 629 c 0,4,5
 798 628 798 628 807 617 c 0,6,7
 813 609 813 609 813 591 c 0,8,9
 813 566 813 566 801 520 c 0,10,11
 780 441 780 441 733 341 c 0,12,13
 702 273 702 273 660 159 c 0,14,15
 650 133 650 133 633.5 113 c 128,-1,16
 617 93 617 93 606 93 c 0,17,18
 598 93 598 93 561 127.5 c 128,-1,19
 524 162 524 162 478.5 205 c 128,-1,20
 433 248 433 248 414 261 c 0,21,22
 394 275 394 275 383 275 c 0,23,24
 378 275 378 275 376 273 c 0,25,26
 366 266 366 266 344 215 c 0,27,28
 280 66 280 66 259 62 c 0,29,30
 256 61 256 61 254 61 c 0,31,32
 224 62 224 62 184 122 c 0,33,34
 140 188 140 188 102.5 275.5 c 128,-1,35
 65 363 65 363 37.5 445.5 c 128,-1,36
 10 528 10 528 10 555 c 0,37,38
 10 572 10 572 28 586 c 0,39,40
 40 595 40 595 48 594 c 0,41,42
 53 594 53 594 57 592 c 0,43,44
 73 582 73 582 98.5 542.5 c 128,-1,45
 124 503 124 503 124 488 c 0,46,47
 124 478 124 478 129 461 c 128,-1,48
 134 444 134 444 146.5 410 c 128,-1,49
 159 376 159 376 165 361 c 0,50,51
 177 325 177 325 186 303 c 128,-1,52
 195 281 195 281 204 266.5 c 128,-1,53
 213 252 213 252 220 248.5 c 128,-1,54
 227 245 227 245 235.5 250.5 c 128,-1,55
 244 256 244 256 252.5 269.5 c 128,-1,56
 261 283 261 283 273 307 c 0,57,58
 294 349 294 349 303 383 c 0,59,60
 309 404 309 404 309 413 c 0,61,62
 309 423 309 423 295 437 c 1,63,64
 277 457 277 457 257 462 c 0,65,66
 216 472 216 472 208 480 c 0,67,68
 204 484 204 484 204 493 c 0,69,70
 204 501 204 501 207 515 c 0,71,72
 215 547 215 547 230 561 c 0,73,74
 240 570 240 570 249 570 c 0,75,76
 250 570 250 570 250 571 c 1,77,78
 259 571 259 571 280 565 c 0,79,80
 306 557 306 557 327 542.5 c 128,-1,81
 348 528 348 528 356.5 521 c 128,-1,82
 365 514 365 514 380.5 519 c 128,-1,83
 396 524 396 524 421 548 c 1,84,85
 456 579 456 579 473 579 c 2,86,87
 473 579 473 579 474 579 c 0,88,89
 491 578 491 578 507 543 c 2,90,-1
 523 507 l 1,91,-1
 496 472 l 2,92,93
 468 436 468 436 458 414 c 0,94,95
 451 398 451 398 451 385 c 0,96,97
 451 380 451 380 452 374 c 0,98,99
 456 359 456 359 511 307 c 128,-1,100
 566 255 566 255 578 255 c 0,101,102
 586 255 586 255 609.5 290.5 c 128,-1,103
 633 326 633 326 643 353 c 2,104,-1
 670 422 l 2,105,106
 682 453 682 453 699 502.5 c 128,-1,107
 716 552 716 552 727.5 582.5 c 128,-1,108
 739 613 739 613 744 620 c 0,0,1
EndSplineSet
Validated: 1
EndChar

StartChar: X
Encoding: 88 88 59
Width: 538
Flags: W
LayerCount: 2
Fore
SplineSet
357 581 m 0,0,1
 357 588 357 588 373 613 c 128,-1,2
 389 638 389 638 393 648 c 0,3,4
 397 660 397 660 412 660 c 0,5,6
 415 660 415 660 419 660 c 0,7,8
 445 656 445 656 450 640 c 0,9,10
 451 635 451 635 451 629 c 0,11,12
 451 612 451 612 442 583 c 0,13,14
 427 536 427 536 421 528 c 0,15,16
 415 519 415 519 386 460.5 c 128,-1,17
 357 402 357 402 357 398 c 0,18,19
 357 395 357 395 406 363 c 0,20,21
 434 344 434 344 453 324.5 c 128,-1,22
 472 305 472 305 492 274 c 0,23,24
 528 219 528 219 528 202 c 0,25,26
 528 179 528 179 510.5 163.5 c 128,-1,27
 493 148 493 148 467 147 c 0,28,29
 444 146 444 146 438 152 c 128,-1,30
 432 158 432 158 418 197 c 0,31,32
 401 245 401 245 388.5 259.5 c 128,-1,33
 376 274 376 274 338 294 c 2,34,-1
 297 315 l 1,35,-1
 269 283 l 2,36,37
 246 256 246 256 228.5 222 c 128,-1,38
 211 188 211 188 211 168 c 0,39,40
 211 150 211 150 180.5 132 c 128,-1,41
 150 114 150 114 118 114 c 2,42,-1
 85 113 l 1,43,-1
 87 153 l 2,44,45
 88 180 88 180 96.5 199.5 c 128,-1,46
 105 219 105 219 113 229 c 128,-1,47
 121 239 121 239 121 243 c 0,48,49
 121 248 121 248 153 290 c 0,50,51
 154 291 154 291 156 294 c 0,52,53
 171 315 171 315 177 323 c 128,-1,54
 183 331 183 331 187 345 c 128,-1,55
 191 359 191 359 189.5 364 c 128,-1,56
 188 369 188 369 177 385 c 128,-1,57
 166 401 166 401 155 411.5 c 128,-1,58
 144 422 144 422 117 449 c 0,59,60
 114 452 114 452 113 453 c 0,61,62
 38 526 38 526 20 553 c 0,63,64
 10 568 10 568 10 583 c 0,65,66
 10 594 10 594 16 603 c 1,67,68
 30 629 30 629 54 629 c 0,69,70
 62 629 62 629 70 626 c 0,71,72
 104 615 104 615 138 566 c 0,73,74
 158 537 158 537 179.5 514 c 128,-1,75
 201 491 201 491 208 491 c 0,76,77
 214 491 214 491 225 481 c 128,-1,78
 236 471 236 471 245.5 463 c 128,-1,79
 255 455 255 455 271 461 c 128,-1,80
 287 467 287 467 305 493 c 2,81,-1
 342 550 l 2,82,83
 357 572 357 572 357 581 c 0,0,1
EndSplineSet
Validated: 1
EndChar

StartChar: Y
Encoding: 89 89 60
Width: 596
Flags: W
LayerCount: 2
Fore
SplineSet
480 695 m 1,0,1
 504 702 504 702 506 702 c 0,2,3
 511 702 511 702 530 676 c 0,4,5
 550 650 550 650 568 619 c 2,6,-1
 586 588 l 1,7,-1
 565 550 l 2,8,9
 553 529 553 529 542 512.5 c 128,-1,10
 531 496 531 496 526 489.5 c 128,-1,11
 521 483 521 483 521 480 c 0,12,13
 521 471 521 471 493.5 436 c 128,-1,14
 466 401 466 401 457 398 c 0,15,16
 442 393 442 393 423 374 c 1,17,18
 410 359 410 359 408 346 c 0,19,20
 408 344 408 344 408 340 c 0,21,22
 408 323 408 323 414 274 c 0,23,24
 421 221 421 221 429.5 168.5 c 128,-1,25
 438 116 438 116 442 93 c 128,-1,26
 446 70 446 70 448 48 c 0,27,28
 448 43 448 43 448 39 c 0,29,30
 448 24 448 24 444 16 c 0,31,32
 439 6 439 6 427 -1 c 0,33,34
 410 -12 410 -12 404 -12 c 1,35,36
 404 -12 404 -12 404 -12 c 1,37,38
 397 -12 397 -12 383 -3 c 0,39,40
 361 11 361 11 349.5 40 c 128,-1,41
 338 69 338 69 333.5 104 c 128,-1,42
 329 139 329 139 314.5 204 c 128,-1,43
 300 269 300 269 277 333 c 0,44,45
 275 339 275 339 258 353 c 128,-1,46
 241 367 241 367 219 380 c 2,47,-1
 151 420 l 1,48,49
 96 454 96 454 70 494 c 0,50,51
 34 552 34 552 18 608 c 0,52,53
 10 637 10 637 10 656 c 0,54,55
 10 674 10 674 17 682 c 0,56,57
 27 694 27 694 50 694 c 0,58,59
 71 694 71 694 83 677.5 c 128,-1,60
 95 661 95 661 106 617 c 0,61,62
 123 554 123 554 226 482 c 0,63,64
 248 467 248 467 263.5 463 c 128,-1,65
 279 459 279 459 317 459 c 0,66,67
 359 459 359 459 371.5 463.5 c 128,-1,68
 384 468 384 468 412 493 c 0,69,70
 446 525 446 525 454 544 c 0,71,72
 458 553 458 553 458 566 c 0,73,74
 458 580 458 580 454 599 c 0,75,76
 449 619 449 619 449 636 c 1,77,78
 448 650 448 650 452 662 c 0,79,80
 460 688 460 688 480 695 c 1,0,1
EndSplineSet
Validated: 5
EndChar

StartChar: Z
Encoding: 90 90 61
Width: 693
Flags: W
LayerCount: 2
Fore
SplineSet
22 679 m 0,0,1
 30 689 30 689 64 691 c 0,2,3
 81 692 81 692 124 692 c 128,-1,4
 167 692 167 692 236 691 c 0,5,6
 437 689 437 689 447 683 c 0,7,8
 458 676 458 676 458 655 c 0,9,10
 458 640 458 640 452 622 c 0,11,12
 446 601 446 601 435.5 573 c 128,-1,13
 425 545 425 545 413.5 519 c 128,-1,14
 402 493 402 493 391.5 464.5 c 128,-1,15
 381 436 381 436 376 416 c 0,16,17
 371 393 371 393 358.5 374.5 c 128,-1,18
 346 356 346 356 315 326 c 1,19,20
 277 287 277 287 259 254 c 0,21,22
 246 230 246 230 246 214 c 0,23,24
 246 208 246 208 248 202 c 0,25,26
 252 192 252 192 265 192 c 0,27,28
 284 192 284 192 416 211 c 0,29,30
 481 221 481 221 534 232 c 128,-1,31
 587 243 587 243 603.5 247.5 c 128,-1,32
 620 252 620 252 633 251.5 c 128,-1,33
 646 251 646 251 660 241 c 1,34,35
 683 222 683 222 683 204 c 0,36,37
 683 201 683 201 682 198 c 0,38,39
 677 178 677 178 662.5 164 c 128,-1,40
 648 150 648 150 642 150 c 0,41,42
 635 150 635 150 613 134 c 0,43,44
 597 122 597 122 545.5 114.5 c 128,-1,45
 494 107 494 107 380 96.5 c 128,-1,46
 266 86 266 86 192 76 c 0,47,48
 155 72 155 72 140 72 c 0,49,50
 136 72 136 72 134 72 c 0,51,52
 120 73 120 73 107 83 c 0,53,54
 84 100 84 100 84 126 c 0,55,56
 84 153 84 153 110 189 c 0,57,58
 146 240 146 240 179.5 312.5 c 128,-1,59
 213 385 213 385 213 414 c 0,60,61
 213 426 213 426 244 446 c 0,62,63
 272 465 272 465 295 499 c 128,-1,64
 318 533 318 533 323 563 c 0,65,66
 327 586 327 586 323.5 591 c 128,-1,67
 320 596 320 596 297 600 c 0,68,69
 266 605 266 605 147.5 605 c 128,-1,70
 29 605 29 605 19 615 c 0,71,72
 10 624 10 624 10 642 c 0,73,74
 10 665 10 665 22 679 c 0,0,1
EndSplineSet
Validated: 1
EndChar

StartChar: backslash
Encoding: 92 92 63
Width: 359
Flags: W
LayerCount: 2
Fore
SplineSet
26 673 m 0,0,1
 41 693 41 693 56 693 c 0,2,3
 60 693 60 693 62 692 c 0,4,5
 80 688 80 688 100 658 c 0,6,7
 122 626 122 626 138 576.5 c 128,-1,8
 154 527 154 527 174.5 458.5 c 128,-1,9
 195 390 195 390 220 333 c 2,10,-1
 254 253 l 2,11,12
 264 228 264 228 278 204 c 128,-1,13
 292 180 292 180 303 166.5 c 128,-1,14
 314 153 314 153 325 136.5 c 128,-1,15
 336 120 336 120 341 108.5 c 128,-1,16
 346 97 346 97 348 79 c 0,17,18
 348 75 348 75 348 71 c 0,19,20
 348 57 348 57 343 43 c 1,21,22
 336 18 336 18 321 6 c 0,23,24
 311 -2 311 -2 301 -2 c 0,25,26
 296 -2 296 -2 290 0 c 0,27,28
 272 7 272 7 234 72 c 128,-1,29
 196 137 196 137 196 161 c 0,30,31
 196 168 196 168 190.5 183 c 128,-1,32
 185 198 185 198 170.5 232 c 128,-1,33
 156 266 156 266 148 286 c 2,34,-1
 20 603 l 2,35,36
 10 628 10 628 10 640 c 0,37,38
 10 653 10 653 26 673 c 0,0,1
EndSplineSet
Validated: 1
EndChar

StartChar: grave
Encoding: 96 96 65
Width: 528
Flags: W
LayerCount: 2
Fore
SplineSet
377 465 m 1,0,1
 333 474 333 474 309 506 c 0,2,3
 298 522 298 522 297 544 c 1,4,5
 297 580 297 580 327 632 c 1,6,7
 349 666 349 666 372 680 c 1,8,-1
 394 692 l 1,9,-1
 405 686 l 1,10,11
 414 677 414 677 416 666 c 1,12,-1
 416 652 l 1,13,-1
 394 631 l 2,14,15
 375 612 375 612 372 604 c 1,16,17
 377 599 377 599 394 597 c 2,18,-1
 417 594 l 1,19,-1
 447 562 l 1,20,-1
 478 530 l 1,21,-1
 474 514 l 2,22,23
 469 497 469 497 456 479 c 2,24,-1
 441 460 l 1,25,-1
 422 461 l 2,26,27
 402 462 402 462 377 465 c 1,0,1
113 441 m 1,28,29
 77 460 77 460 58 494 c 2,30,-1
 48 512 l 1,31,-1
 52 566 l 2,32,33
 55 617 55 617 61 631 c 1,34,35
 78 658 78 658 123 672 c 1,36,-1
 137 675 l 1,37,-1
 146 667 l 2,38,39
 150 663 150 663 152.5 660 c 128,-1,40
 155 657 155 657 155 656 c 0,41,42
 151 650 151 650 130 628 c 2,43,-1
 105 602 l 1,44,-1
 105 585 l 1,45,-1
 105 567 l 1,46,-1
 150 566 l 1,47,-1
 195 565 l 1,48,-1
 209 552 l 1,49,-1
 223 538 l 1,50,-1
 225 506 l 1,51,-1
 227 474 l 1,52,-1
 209 459 l 1,53,54
 174 434 174 434 138 433 c 1,55,56
 128 435 128 435 113 441 c 1,28,29
EndSplineSet
Validated: 1
EndChar

StartChar: a
Encoding: 97 97 66
Width: 782
Flags: W
LayerCount: 2
Fore
SplineSet
185 499 m 0,0,1
 229 522 229 522 263 522 c 0,2,3
 264 522 264 522 265 523 c 1,4,5
 298 523 298 523 328 503 c 0,6,7
 358 482 358 482 358 476 c 0,8,9
 358 473 358 473 373.5 454 c 128,-1,10
 389 435 389 435 414.5 399 c 128,-1,11
 440 363 440 363 459 325 c 0,12,13
 489 265 489 265 552 194.5 c 128,-1,14
 615 124 615 124 647 115 c 0,15,16
 663 110 663 110 716 91 c 0,17,18
 754 77 754 77 761.5 70 c 128,-1,19
 769 63 769 63 771 42 c 0,20,21
 772 35 772 35 772 30 c 0,22,23
 772 20 772 20 769 16 c 0,24,25
 765 10 765 10 748 4 c 0,26,27
 724 -5 724 -5 703 -5 c 1,28,29
 700 -4 700 -4 696 -4 c 0,30,31
 672 -2 672 -2 639 11 c 0,32,33
 555 43 555 43 457 114 c 0,34,35
 445 123 445 123 436 122 c 128,-1,36
 427 121 427 121 397 107 c 0,37,38
 328 73 328 73 249 64 c 0,39,40
 224 61 224 61 201 61 c 0,41,42
 154 61 154 61 121 74 c 0,43,44
 73 92 73 92 50.5 122.5 c 128,-1,45
 28 153 28 153 16 215 c 0,46,47
 15 218 15 218 14 223 c 0,48,49
 11 241 11 241 11 254 c 0,50,51
 11 257 11 257 11 260 c 0,52,53
 11 266 11 266 12 271 c 0,54,55
 16 288 16 288 52 358 c 0,56,57
 57 369 57 369 60 376 c 0,58,59
 78 412 78 412 111.5 445 c 128,-1,60
 145 478 145 478 185 499 c 0,0,1
340 425 m 0,61,62
 298 443 298 443 276 445 c 0,63,64
 273 445 273 445 270 445 c 0,65,66
 252 445 252 445 236 436 c 0,67,68
 203 415 203 415 175.5 384 c 128,-1,69
 148 353 148 353 134 323 c 0,70,71
 109 270 109 270 109 247 c 0,72,73
 109 225 109 225 127 191 c 2,74,-1
 148 150 l 1,75,-1
 195 150 l 2,76,77
 234 150 234 150 281.5 164.5 c 128,-1,78
 329 179 329 179 342 195 c 0,79,80
 351 206 351 206 359 296 c 128,-1,81
 367 386 367 386 370 396 c 1,82,83
 372 399 372 399 372 402 c 0,84,85
 372 406 372 406 368 410 c 0,86,87
 362 416 362 416 340 425 c 0,61,62
EndSplineSet
Validated: 1
EndChar

StartChar: b
Encoding: 98 98 67
Width: 501
Flags: W
LayerCount: 2
Fore
SplineSet
12 787 m 0,0,1
 17 800 17 800 50 800 c 128,-1,2
 83 800 83 800 83 798 c 2,3,-1
 116 626 l 1,4,5
 124 578 124 578 135 552 c 0,6,7
 143 534 143 534 151.5 529 c 128,-1,8
 160 524 160 524 190 521 c 0,9,10
 232 516 232 516 287 498.5 c 128,-1,11
 342 481 342 481 351.5 470 c 128,-1,12
 361 459 361 459 370.5 459 c 128,-1,13
 380 459 380 459 435 408 c 2,14,-1
 490 357 l 1,15,-1
 491 286 l 2,16,17
 491 238 491 238 488 221.5 c 128,-1,18
 485 205 485 205 470 184 c 0,19,20
 449 154 449 154 410.5 121 c 128,-1,21
 372 88 372 88 345 77 c 0,22,23
 330 71 330 71 309 70 c 0,24,25
 303 70 303 70 297 70 c 0,26,27
 282 70 282 70 268 72 c 0,28,29
 248 74 248 74 214.5 77 c 128,-1,30
 181 80 181 80 152 80 c 0,31,32
 104 80 104 80 94 86 c 0,33,34
 84 93 84 93 83 131 c 0,35,36
 83 163 83 163 92 187 c 0,37,38
 96 200 96 200 96 221 c 0,39,40
 96 250 96 250 89 292 c 0,41,42
 76 368 76 368 55 401 c 0,43,44
 35 432 35 432 35 461 c 0,45,46
 35 483 35 483 46 503 c 0,47,48
 54 518 54 518 54 536 c 0,49,50
 54 542 54 542 54 546 c 0,51,52
 52 570 52 570 34 626 c 0,53,54
 21 669 21 669 14 721 c 0,55,56
 10 751 10 751 10 769 c 0,57,58
 10 781 10 781 12 787 c 0,0,1
377 351 m 0,59,60
 320 398 320 398 256 416 c 0,61,62
 220 426 220 426 200 427 c 0,63,64
 183 427 183 427 177 420 c 1,65,66
 172 411 172 411 172 398 c 0,67,68
 172 386 172 386 177 364 c 0,69,70
 182 340 182 340 187.5 319 c 128,-1,71
 193 298 193 298 199.5 271.5 c 128,-1,72
 206 245 206 245 208 229 c 0,73,74
 213 200 213 200 239 183 c 128,-1,75
 265 166 265 166 304 166 c 0,76,77
 328 166 328 166 340 172.5 c 128,-1,78
 352 179 352 179 378 205 c 128,-1,79
 404 231 404 231 410 243.5 c 128,-1,80
 416 256 416 256 416 281 c 0,81,82
 416 307 416 307 410 318 c 128,-1,83
 404 329 404 329 377 351 c 0,59,60
EndSplineSet
Validated: 1
EndChar

StartChar: c
Encoding: 99 99 68
Width: 518
Flags: W
LayerCount: 2
Fore
SplineSet
136 507 m 1,0,1
 152 522 152 522 158 522 c 1,2,3
 158 522 158 522 159 523 c 1,4,5
 166 523 166 523 200 515 c 0,6,7
 238 506 238 506 264 479.5 c 128,-1,8
 290 453 290 453 290 422 c 0,9,10
 290 406 290 406 284.5 396.5 c 128,-1,11
 279 387 279 387 262 374 c 0,12,13
 241 358 241 358 227 354.5 c 128,-1,14
 213 351 213 351 205 357 c 128,-1,15
 197 363 197 363 191 371.5 c 128,-1,16
 185 380 185 380 176 386.5 c 128,-1,17
 167 393 167 393 154 392 c 0,18,19
 132 390 132 390 122.5 367.5 c 128,-1,20
 113 345 113 345 108 286 c 0,21,22
 106 258 106 258 106 242 c 0,23,24
 106 232 106 232 106 228 c 0,25,26
 108 216 108 216 128 195 c 1,27,28
 149 171 149 171 186.5 160.5 c 128,-1,29
 224 150 224 150 289 150 c 0,30,31
 331 150 331 150 384.5 161 c 128,-1,32
 438 172 438 172 449 183 c 128,-1,33
 460 194 460 194 478 189.5 c 128,-1,34
 496 185 496 185 503 170 c 0,35,36
 507 162 507 162 507 152 c 0,37,38
 507 138 507 138 499 120 c 1,39,40
 491 98 491 98 480.5 91 c 128,-1,41
 470 84 470 84 431 73 c 0,42,43
 375 58 375 58 274 57 c 0,44,45
 269 57 269 57 264 57 c 0,46,47
 162 57 162 57 116 76 c 0,48,49
 68 96 68 96 31 158 c 0,50,51
 16 183 16 183 13 202.5 c 128,-1,52
 10 222 10 222 10 284 c 0,53,54
 10 341 10 341 13.5 362.5 c 128,-1,55
 17 384 17 384 28 404 c 0,56,57
 46 435 46 435 46 446 c 0,58,59
 46 456 46 456 69 473.5 c 128,-1,60
 92 491 92 491 105 491 c 0,61,62
 115 491 115 491 136 507 c 1,0,1
EndSplineSet
Validated: 1
EndChar

StartChar: d
Encoding: 100 100 69
Width: 660
Flags: W
LayerCount: 2
Fore
SplineSet
313 711 m 0,0,1
 330 718 330 718 336 718 c 0,2,3
 360 718 360 718 412 499 c 0,4,5
 423 453 423 453 441 404.5 c 128,-1,6
 459 356 459 356 469 344 c 0,7,8
 481 331 481 331 481 326 c 0,9,10
 481 320 481 320 501.5 291.5 c 128,-1,11
 522 263 522 263 542 241 c 0,12,13
 557 225 557 225 569.5 220 c 128,-1,14
 582 215 582 215 607 213 c 2,15,-1
 647 211 l 1,16,-1
 650 177 l 2,17,18
 651 170 651 170 651 165 c 0,19,20
 651 151 651 151 647 144 c 0,21,22
 642 135 642 135 617 115 c 0,23,24
 576 82 576 82 558 82 c 1,25,26
 558 82 558 82 557 81 c 1,27,28
 539 81 539 81 507 112 c 0,29,30
 467 150 467 150 453 150 c 0,31,32
 443 150 443 150 425 135.5 c 128,-1,33
 407 121 407 121 384 106 c 1,34,35
 362 90 362 90 330 78 c 0,36,37
 311 71 311 71 286 71 c 0,38,39
 282 71 282 71 279 71 c 0,40,41
 274 71 274 71 269 71 c 0,42,43
 260 71 260 71 249 72 c 0,44,45
 200 78 200 78 142 106 c 0,46,47
 108 122 108 122 70.5 156 c 128,-1,48
 33 190 33 190 18 217 c 1,49,50
 10 236 10 236 10 255 c 0,51,52
 10 265 10 265 12 276 c 0,53,54
 19 306 19 306 38 332.5 c 128,-1,55
 57 359 57 359 73 375 c 128,-1,56
 89 391 89 391 94 393 c 0,57,58
 106 399 106 399 121 410.5 c 128,-1,59
 136 422 136 422 156 425.5 c 128,-1,60
 176 429 176 429 226 430 c 0,61,62
 271 430 271 430 288 432.5 c 128,-1,63
 305 435 305 435 309 442 c 0,64,65
 313 448 313 448 313 463 c 0,66,67
 313 466 313 466 313 469 c 0,68,69
 313 482 313 482 310 500 c 0,70,71
 304 546 304 546 291 575 c 0,72,73
 277 607 277 607 277 623 c 0,74,75
 277 648 277 648 289 677 c 128,-1,76
 301 706 301 706 313 711 c 0,0,1
317 332 m 128,-1,78
 286 344 286 344 252 344 c 0,79,80
 236 344 236 344 220 342 c 0,81,82
 168 334 168 334 132 301 c 0,83,84
 115 286 115 286 115 268 c 0,85,86
 115 256 115 256 122 244 c 0,87,88
 140 212 140 212 197 182 c 0,89,90
 246 157 246 157 281.5 157 c 128,-1,91
 317 157 317 157 346 183 c 0,92,93
 365 199 365 199 370 210 c 128,-1,94
 375 221 375 221 375 244 c 0,95,96
 375 279 375 279 361.5 299.5 c 128,-1,77
 348 320 348 320 317 332 c 128,-1,78
EndSplineSet
Validated: 1
EndChar

StartChar: e
Encoding: 101 101 70
Width: 586
Flags: W
LayerCount: 2
Fore
SplineSet
224 477 m 0,0,1
 246 481 246 481 267 482 c 1,2,3
 347 482 347 482 414 418 c 0,4,5
 450 384 450 384 457 366 c 0,6,7
 461 357 461 357 461 345 c 128,-1,8
 461 333 461 333 457 318 c 0,9,10
 446 274 446 274 401.5 251.5 c 128,-1,11
 357 229 357 229 268 222 c 0,12,13
 189 216 189 216 182 212 c 0,14,15
 174 207 174 207 174 197 c 0,16,17
 174 189 174 189 178 178 c 0,18,19
 188 153 188 153 215 127 c 0,20,21
 231 111 231 111 242.5 107.5 c 128,-1,22
 254 104 254 104 293 104 c 0,23,24
 348 104 348 104 390 116 c 1,25,26
 422 124 422 124 449 124 c 0,27,28
 452 124 452 124 455 124 c 0,29,30
 463 124 463 124 470 124 c 0,31,32
 504 121 504 121 516 104 c 0,33,34
 525 92 525 92 526 81 c 1,35,36
 526 59 526 59 492 39 c 0,37,38
 431 4 431 4 307 4 c 0,39,40
 303 4 303 4 300 4 c 0,41,42
 224 4 224 4 201 13 c 0,43,44
 175 23 175 23 138 69 c 0,45,46
 129 79 129 79 109 104 c 0,47,48
 65 160 65 160 49 222 c 0,49,50
 42 250 42 250 42 272 c 0,51,52
 42 298 42 298 53 315 c 2,53,-1
 101 386 l 2,54,55
 132 433 132 433 156 450.5 c 128,-1,56
 180 468 180 468 224 477 c 0,0,1
345 320 m 0,57,58
 363 327 363 327 364 338 c 0,59,60
 364 345 364 345 357 354 c 0,61,62
 334 381 334 381 279 388 c 0,63,64
 269 389 269 389 258 389 c 0,65,66
 231 389 231 389 220 385 c 128,-1,67
 209 381 209 381 190 362 c 0,68,69
 178 351 178 351 170 340 c 0,70,71
 163 330 163 330 162 327 c 1,72,73
 162 317 162 317 245 314 c 0,74,75
 262 314 262 314 277 314 c 0,76,77
 329 314 329 314 345 320 c 0,57,58
EndSplineSet
Validated: 1
EndChar

StartChar: f
Encoding: 102 102 71
Width: 360
Flags: W
LayerCount: 2
Fore
SplineSet
126 725 m 0,0,1
 147 743 147 743 160 747 c 128,-1,2
 173 751 173 751 214 751 c 256,3,4
 255 751 255 751 267 747 c 128,-1,5
 279 743 279 743 298 723 c 0,6,7
 332 687 332 687 332 654 c 0,8,9
 332 639 332 639 325 624 c 0,10,11
 313 599 313 599 297 599 c 1,12,13
 297 599 297 599 296 600 c 1,14,15
 280 600 280 600 253 624 c 0,16,17
 220 654 220 654 196 654 c 0,18,19
 174 654 174 654 160 629 c 1,20,21
 141 598 141 598 141 536 c 0,22,23
 141 505 141 505 146 466 c 0,24,25
 167 293 167 293 181 275 c 0,26,27
 186 268 186 268 262.5 260.5 c 128,-1,28
 339 253 339 253 343 251 c 0,29,30
 350 246 350 246 350 226 c 0,31,32
 350 209 350 209 326 191.5 c 128,-1,33
 302 174 302 174 278 174 c 0,34,35
 259 174 259 174 236 157 c 1,36,37
 215 143 215 143 215 122.5 c 128,-1,38
 215 102 215 102 238 24 c 0,39,40
 252 -25 252 -25 255 -67 c 0,41,42
 256 -77 256 -77 256 -85 c 0,43,44
 256 -112 256 -112 248 -119 c 0,45,46
 239 -128 239 -128 216 -129 c 0,47,48
 214 -129 214 -129 211 -129 c 0,49,50
 200 -129 200 -129 194 -125 c 0,51,52
 187 -120 187 -120 178 -100 c 0,53,54
 166 -76 166 -76 141 20.5 c 128,-1,55
 116 117 116 117 106 130 c 0,56,57
 97 141 97 141 67 141 c 0,58,59
 40 141 40 141 24 156 c 0,60,61
 10 169 10 169 10 190 c 0,62,63
 10 193 10 193 10 195 c 0,64,65
 12 212 12 212 21.5 220.5 c 128,-1,66
 31 229 31 229 60 239 c 0,67,68
 71 243 71 243 76 248 c 0,69,70
 82 254 82 254 82 274 c 0,71,72
 82 290 82 290 78 310 c 0,73,74
 74 334 74 334 66 382 c 0,75,76
 50 471 50 471 50 548 c 0,77,78
 50 602 50 602 53.5 619.5 c 128,-1,79
 57 637 57 637 72 662 c 0,80,81
 95 698 95 698 126 725 c 0,0,1
EndSplineSet
Validated: 1
EndChar

StartChar: g
Encoding: 103 103 72
Width: 561
Flags: W
LayerCount: 2
Fore
SplineSet
222.969726562 -256.146484375 m 0,0,1
 164.959960938 -247.415039062 164.959960938 -247.415039062 141.182617188 -225.603515625 c 0,2,3
 117.952148438 -203.680664062 117.952148438 -203.680664062 116.823242188 -192.427734375 c 0,4,5
 115.825195312 -182.48046875 115.825195312 -182.48046875 99.154296875 -165.780273438 c 0,6,7
 84.1708984375 -150.155273438 84.1708984375 -150.155273438 86.4794921875 -141.239257812 c 0,8,9
 89.0068359375 -131.110351562 89.0068359375 -131.110351562 79.802734375 -123.471679688 c 128,-1,10
 70.4326171875 -115.6953125 70.4326171875 -115.6953125 70.4326171875 -104.401367188 c 0,11,12
 70.4326171875 -90.453125 70.4326171875 -90.453125 78.8818359375 -79.7822265625 c 0,13,14
 87.8505859375 -68.455078125 87.8505859375 -68.455078125 97.205078125 -65.8349609375 c 1,15,16
 115.767578125 -66.486328125 115.767578125 -66.486328125 138.278320312 -95.1943359375 c 0,17,18
 170.662109375 -138.064453125 170.662109375 -138.064453125 185.150390625 -145.083007812 c 0,19,20
 198.591796875 -151.595703125 198.591796875 -151.595703125 246.655273438 -151.595703125 c 0,21,22
 250.392578125 -151.595703125 250.392578125 -151.595703125 254.33984375 -151.556640625 c 0,23,24
 360.010742188 -149.530273438 360.010742188 -149.530273438 388.506835938 -120.83203125 c 0,25,26
 400.168945312 -108.665039062 400.168945312 -108.665039062 400.168945312 -77.2578125 c 0,27,28
 400.168945312 -67.4072265625 400.168945312 -67.4072265625 399.021484375 -55.6640625 c 0,29,30
 398.2265625 -47.74609375 398.2265625 -47.74609375 397.418945312 -40.19140625 c 0,31,32
 394.014178254 -8.65824695154 394.014178254 -8.65824695154 394.014178254 2.17327212939 c 0,33,34
 394.014178254 7.84054314597 394.014178254 7.84054314597 394.946265638 7.84054314597 c 0,35,36
 395.249938089 7.84054314597 395.249938089 7.84054314597 395.652546497 7.23899344874 c 0,37,38
 399.652749245 1.26216658497 399.652749245 1.26216658497 399.884765625 8.7509765625 c 0,39,40
 400.002473569 12.5411723663 400.002473569 12.5411723663 400.002473569 16.119611124 c 0,41,42
 400.002473569 76.5909115353 400.002473569 76.5909115353 366.388704442 76.5909115353 c 0,43,44
 365.685592568 76.5909115353 365.685592568 76.5909115353 364.967773438 76.564453125 c 0,45,46
 348.85546875 74.9052734375 348.85546875 74.9052734375 328.923828125 65.2236328125 c 0,47,48
 264.713089199 34.1460876907 264.713089199 34.1460876907 177.207185164 34.1460876907 c 0,49,50
 171.802324952 34.1460876907 171.802324952 34.1460876907 166.30859375 34.2646484375 c 1,51,52
 126.419921875 37.2021484375 126.419921875 37.2021484375 96.048828125 64.5888671875 c 0,53,54
 65.962890625 91.6689453125 65.962890625 91.6689453125 57.859375 93.94921875 c 1,55,56
 13.5952946663 113.068883627 13.5952946663 113.068883627 13.5952946663 206.074270211 c 0,57,58
 13.5952946663 218.062707829 13.5952946663 218.062707829 18.6181640625 265.135742188 c 0,59,60
 25.0322265625 324.288085938 25.0322265625 324.288085938 57.9521484375 369.99609375 c 0,61,62
 64.0771484375 378.405273438 64.0771484375 378.405273438 70.0712890625 386.381835938 c 0,63,64
 124.712182655 458.81055445 124.712182655 458.81055445 191.603515625 485.200195312 c 0,65,66
 210.081300239 492.489960342 210.081300239 492.489960342 221.105558681 492.489960342 c 0,67,68
 275.507115858 492.489960342 275.507115858 492.489960342 344.90625 462.048828125 c 0,69,70
 359.741210938 455.362304688 359.741210938 455.362304688 375.063476562 454.651367188 c 0,71,72
 390.576171875 453.009765625 390.576171875 453.009765625 403.892578125 439.971679688 c 0,73,74
 425.143554688 416.408203125 425.143554688 416.408203125 443.901367188 254.025390625 c 0,75,76
 447.366210938 222.944335938 447.366210938 222.944335938 448.404296875 200.571289062 c 0,77,78
 451.083984375 152.8515625 451.083984375 152.8515625 464.607421875 130.439453125 c 0,79,80
 475.923683713 113.169445511 475.923683713 113.169445511 475.923683713 97.9348494291 c 0,81,82
 475.923683713 94.1456779502 475.923683713 94.1456779502 475.223632812 90.482421875 c 0,83,84
 473.328125 72.7216796875 473.328125 72.7216796875 483.22265625 61.3349609375 c 0,85,86
 493.807971996 47.9776288421 493.807971996 47.9776288421 493.807971996 -14.1472398911 c 0,87,88
 493.807971996 -18.0310555973 493.807971996 -18.0310555973 493.766601562 -22.10546875 c 0,89,90
 494.925090719 -27.198443355 494.925090719 -27.198443355 493.721751302 -31.7861624023 c 0,91,92
 491.479300301 -41.7025430828 491.479300301 -41.7025430828 491.479300301 -49.7114163718 c 0,93,94
 491.479300301 -57.9369607268 491.479300301 -57.9369607268 493.844726562 -64.150390625 c 0,95,96
 500.427734375 -85.5107421875 500.427734375 -85.5107421875 500.427734375 -113.455078125 c 0,97,98
 500.427734375 -150.779296875 500.427734375 -150.779296875 491.530273438 -187.326171875 c 0,99,100
 487.357421875 -204.46484375 487.357421875 -204.46484375 485.033203125 -207.88671875 c 0,101,102
 476.217773438 -220.862304688 476.217773438 -220.862304688 455.762695312 -227.173828125 c 0,103,104
 434.311523438 -233.4140625 434.311523438 -233.4140625 421.389648438 -244.915039062 c 0,105,106
 406.696289062 -256.647460938 406.696289062 -256.647460938 361.584960938 -257.19921875 c 0,107,108
 315.333984375 -257.477539062 315.333984375 -257.477539062 297.174804688 -260.504882812 c 0,109,110
 292.009765625 -261.262695312 292.009765625 -261.262695312 283.985351562 -261.262695312 c 0,111,112
 263.133789062 -261.262695312 263.133789062 -261.262695312 222.969726562 -256.146484375 c 0,0,1
273.717773438 146.080078125 m 0,113,114
 285.62890625 150.458007812 285.62890625 150.458007812 295.780273438 154.40234375 c 128,-1,115
 305.9296875 158.349609375 305.9296875 158.349609375 311.84375 160.893554688 c 128,-1,116
 317.756835938 163.438476562 317.756835938 163.438476562 317.756835938 163.875 c 0,117,118
 318.901367188 168.513671875 318.901367188 168.513671875 334.33984375 210.85546875 c 0,119,120
 346.814382281 247.76280869 346.814382281 247.76280869 346.814382281 298.338268854 c 0,121,122
 346.814382281 313.676777887 346.814382281 313.676777887 345.666992188 330.272460938 c 2,123,-1
 340.411132812 404.321289062 l 1,124,-1
 297.625976562 405.99609375 l 2,125,126
 284.0812009 406.526176529 284.0812009 406.526176529 272.210231893 406.526176529 c 0,127,128
 211.167672605 406.526176529 211.167672605 406.526176529 194.383789062 392.509765625 c 0,129,130
 187.625976562 386.30078125 187.625976562 386.30078125 181.674804688 379.799804688 c 0,131,132
 160.170898438 356.482421875 160.170898438 356.482421875 152.205078125 353.63671875 c 1,133,134
 131.770507812 352.502929688 131.770507812 352.502929688 110.408203125 282.313476562 c 0,135,136
 104.506835938 261.74609375 104.506835938 261.74609375 102.646484375 246.078125 c 0,137,138
 102.048578355 238.049192896 102.048578355 238.049192896 102.048578355 230.544099508 c 0,139,140
 102.048578355 192.326473817 102.048578355 192.326473817 117.552734375 167.692382812 c 0,141,142
 144.805600098 125.094847827 144.805600098 125.094847827 189.514831183 125.094847827 c 0,143,144
 198.167787513 125.094847827 198.167787513 125.094847827 207.474609375 126.690429688 c 0,145,146
 234.434570312 131.7734375 234.434570312 131.7734375 273.717773438 146.080078125 c 0,113,114
EndSplineSet
EndChar

StartChar: h
Encoding: 104 104 73
Width: 597
Flags: W
LayerCount: 2
Fore
SplineSet
555 178 m 0,0,1
 555 164 555 164 562.5 132 c 128,-1,2
 570 100 570 100 577 69 c 128,-1,3
 584 38 584 38 587 7 c 0,4,5
 588 0 588 0 588 -6 c 0,6,7
 588 -28 588 -28 580 -43 c 0,8,9
 570 -62 570 -62 542 -62 c 0,10,11
 525 -62 525 -62 517.5 -57.5 c 128,-1,12
 510 -53 510 -53 502 -38 c 0,13,14
 489 -14 489 -14 489 7 c 0,15,16
 489 17 489 17 488 26 c 128,-1,17
 487 35 487 35 485 46.5 c 128,-1,18
 483 58 483 58 475.5 95.5 c 128,-1,19
 468 133 468 133 460 178 c 0,20,21
 438 300 438 300 404 328 c 0,22,23
 390 340 390 340 368 340 c 0,24,25
 367 340 367 340 365 340 c 0,26,27
 334 340 334 340 289 320 c 0,28,29
 252 303 252 303 240 280 c 0,30,31
 231 263 231 263 231 233 c 0,32,33
 231 223 231 223 232 211 c 0,34,35
 243 101 243 101 243 65 c 0,36,37
 243 53 243 53 242 49 c 0,38,39
 240 41 240 41 229 33 c 0,40,41
 210 20 210 20 195 20 c 128,-1,42
 180 20 180 20 169 34 c 0,43,44
 147 60 147 60 131 151 c 0,45,46
 115 243 115 243 115 267 c 0,47,48
 115 307 115 307 77 474 c 128,-1,49
 39 641 39 641 24 668 c 0,50,51
 11 692 11 692 11 712 c 0,52,53
 11 731 11 731 23 744 c 0,54,55
 35 756 35 756 46 758 c 0,56,57
 48 758 48 758 49 759 c 1,58,59
 60 759 60 759 81 751 c 0,60,61
 135 731 135 731 135 693 c 0,62,63
 135 688 135 688 134 683 c 0,64,65
 133 675 133 675 133 662 c 0,66,67
 133 616 133 616 150 516 c 0,68,69
 172 388 172 388 197 379 c 0,70,71
 198 379 198 379 200 379 c 0,72,73
 210 379 210 379 244 392 c 0,74,75
 284 408 284 408 323 429 c 0,76,77
 338 437 338 437 390 441 c 0,78,79
 406 442 406 442 416 442 c 0,80,81
 430 442 430 442 436 440 c 0,82,83
 448 438 448 438 462 426 c 1,84,85
 479 409 479 409 500.5 367 c 128,-1,86
 522 325 522 325 522 307 c 0,87,88
 522 295 522 295 538.5 242.5 c 128,-1,89
 555 190 555 190 555 178 c 0,0,1
EndSplineSet
Validated: 1
EndChar

StartChar: i
Encoding: 105 105 74
Width: 310
Flags: W
LayerCount: 2
Fore
SplineSet
81 391 m 0,0,1
 117 412 117 412 154 417 c 0,2,3
 164 418 164 418 172 418 c 0,4,5
 194 418 194 418 202 408 c 0,6,7
 209 399 209 399 230 341.5 c 128,-1,8
 251 284 251 284 267 227 c 1,9,10
 296 132 296 132 298 112 c 0,11,12
 299 108 299 108 299 103 c 0,13,14
 299 85 299 85 292 59 c 0,15,16
 283 27 283 27 276.5 20 c 128,-1,17
 270 13 270 13 246 8 c 0,18,19
 229 4 229 4 218.5 4 c 128,-1,20
 208 4 208 4 204 8 c 128,-1,21
 200 12 200 12 191.5 76.5 c 128,-1,22
 183 141 183 141 170.5 208 c 128,-1,23
 158 275 158 275 142 289 c 0,24,25
 134 295 134 295 125 293 c 128,-1,26
 116 291 116 291 106.5 284.5 c 128,-1,27
 97 278 97 278 81 274 c 0,28,29
 74 273 74 273 67 273 c 0,30,31
 56 273 56 273 44 276 c 0,32,33
 23 281 23 281 17.5 287 c 128,-1,34
 12 293 12 293 11 313 c 0,35,36
 10 318 10 318 10 323 c 0,37,38
 10 340 10 340 19 350 c 0,39,40
 30 362 30 362 81 391 c 0,0,1
55 680 m 128,-1,42
 61 686 61 686 76 686 c 0,43,44
 82 686 82 686 88 686 c 0,45,46
 114 682 114 682 129 671 c 0,47,48
 151 656 151 656 176 650 c 0,49,50
 212 641 212 641 228 615 c 0,51,52
 235 603 235 603 236 593 c 1,53,54
 236 581 236 581 225 572 c 0,55,56
 217 566 217 566 198 566 c 0,57,58
 180 566 180 566 152 572 c 0,59,60
 94 584 94 584 72 603 c 1,61,62
 57 618 57 618 51 644 c 0,63,64
 49 654 49 654 49 661 c 0,65,41
 49 674 49 674 55 680 c 128,-1,42
EndSplineSet
Validated: 1
EndChar

StartChar: j
Encoding: 106 106 75
Width: 371
Flags: W
LayerCount: 2
Fore
SplineSet
163 -197 m 2,0,1
 18.2617699135 -139.104707965 18.2617699135 -139.104707965 -5 -41 c 1,2,3
 -3 -16 -3 -16 4 -4 c 1,4,-1
 15 5 l 1,5,-1
 72 -31 l 1,6,7
 179 -96 179 -96 225 -99 c 1,8,9
 262 -78 262 -78 264 -33 c 1,10,11
 263.943962015 -6.25867362299 263.943962015 -6.25867362299 233 112 c 0,12,13
 216.172296603 176.310506938 216.172296603 176.310506938 215 179 c 0,14,15
 181.001059264 257.000665536 181.001059264 257.000665536 128 332 c 1,16,17
 109 327 109 327 89 318 c 1,18,19
 63 309 63 309 47 307 c 1,20,21
 12 325 12 325 12 377 c 1,22,-1
 18 400 l 1,23,-1
 70 422 l 1,24,25
 146 452 146 452 185 452 c 0,26,27
 193 452 193 452 200 451 c 1,28,29
 200.821550458 451.089184786 200.821550458 451.089184786 201.63328708 451.089184786 c 0,30,31
 230.538773934 451.089184786 230.538773934 451.089184786 247 338 c 0,32,33
 247.188005974 335.863051348 247.188005974 335.863051348 272.5 276.200195312 c 0,34,35
 311.811030882 180.309229926 311.811030882 180.309229926 313 174 c 0,36,37
 338.788465576 37.1542599937 338.788465576 37.1542599937 357 -26 c 1,38,-1
 362 -89 l 1,39,-1
 348 -138 l 1,40,-1
 333 -187 l 1,41,-1
 314 -195 l 1,42,43
 287 -202 287 -202 246 -207 c 1,44,-1
 198 -211 l 1,45,-1
 163 -197 l 2,0,1
98 545 m 1,46,-1
 84 567 l 1,47,-1
 92 591 l 1,48,49
 106 615 106 615 122 631 c 1,50,-1
 145 648 l 1,51,-1
 171 642 l 1,52,53
 210 622 210 622 210 582 c 0,54,55
 210 574 210 574 209 565 c 1,56,57
 182 528 182 528 139 524 c 1,58,-1
 112 524 l 1,59,-1
 98 545 l 1,46,-1
EndSplineSet
Validated: 1
EndChar

StartChar: k
Encoding: 107 107 76
Width: 651
Flags: W
LayerCount: 2
Fore
SplineSet
559 -27 m 1,0,1
 519 41 519 41 366 137 c 0,2,3
 349 147 349 147 339 153 c 1,4,5
 293 175 293 175 258 178 c 1,6,-1
 225 179 l 1,7,-1
 227 161 l 2,8,9
 229 138 229 138 231 83 c 2,10,-1
 233 23 l 1,11,-1
 216 4 l 1,12,13
 199 -9 199 -9 184 -9 c 0,14,15
 167 -9 167 -9 152 9 c 1,16,-1
 137 32 l 1,17,-1
 133 141 l 1,18,19
 126 302 126 302 71 519 c 0,20,21
 49 607 49 607 37 662 c 0,22,23
 25 713 25 713 15 741 c 1,24,25
 7 767 7 767 6 790 c 1,26,27
 6 835 6 835 39 836 c 1,28,29
 61 829 61 829 74 813 c 1,30,31
 112 755 112 755 173 456 c 0,32,33
 176 442 176 442 177 434 c 0,34,35
 196 333 196 333 213 326 c 1,36,37
 257 326 257 326 318 439 c 1,38,39
 335 475 335 475 337 495 c 1,40,-1
 337 514 l 1,41,-1
 359 514 l 2,42,43
 399 514 399 514 399 476 c 0,44,45
 399 455 399 455 387 423 c 1,46,47
 375 396 375 396 362 374 c 0,48,49
 338 336 338 336 331 304 c 1,50,-1
 326 273 l 1,51,-1
 342 267 l 1,52,53
 423 238 423 238 479 197 c 0,54,55
 502 179 502 179 521 165 c 0,56,57
 544 149 544 149 584 119 c 2,58,-1
 628 86 l 1,59,-1
 639 44 l 1,60,-1
 650 2 l 1,61,-1
 632 -28 l 1,62,63
 613 -51 613 -51 594 -51 c 0,64,65
 576 -51 576 -51 559 -27 c 1,0,1
EndSplineSet
Validated: 1
EndChar

StartChar: l
Encoding: 108 108 77
Width: 272
Flags: W
LayerCount: 2
Fore
SplineSet
135 -31 m 1,0,1
 71 3 71 3 56 341 c 0,2,3
 44 615 44 615 19 697 c 0,4,5
 9 732 9 732 9 756 c 0,6,7
 9 808 9 808 55 808 c 0,8,9
 56 808 56 808 57 808 c 2,10,-1
 58 808 l 1,11,-1
 83 805 l 1,12,-1
 101 769 l 1,13,-1
 119 733 l 1,14,-1
 130 590 l 2,15,16
 141 450 141 450 150 382 c 0,17,18
 159 315 159 315 169 228 c 1,19,20
 188 87 188 87 237 60 c 1,21,-1
 260 50 l 1,22,-1
 260 24 l 1,23,24
 256 0 256 0 246 -14 c 1,25,26
 216 -36 216 -36 176 -36 c 0,27,28
 156 -36 156 -36 135 -31 c 1,0,1
EndSplineSet
Validated: 1
EndChar

StartChar: m
Encoding: 109 109 78
Width: 800
Flags: W
LayerCount: 2
Fore
SplineSet
15 543 m 0,0,1
 19 547 19 547 31 547 c 0,2,3
 37 547 37 547 45 546 c 0,4,5
 61 545 61 545 68 535 c 128,-1,6
 75 525 75 525 89 483 c 0,7,8
 109 422 109 422 115 415 c 0,9,10
 118 412 118 412 122 412 c 0,11,12
 134 412 134 412 159 430 c 0,13,14
 194 455 194 455 228 485 c 128,-1,15
 262 515 262 515 266 515 c 0,16,17
 271 515 271 515 292 531 c 1,18,19
 310 546 310 546 328 546 c 0,20,21
 330 546 330 546 334 546 c 0,22,23
 354 542 354 542 386 515 c 1,24,25
 422 483 422 483 433.5 483 c 128,-1,26
 445 483 445 483 473 504 c 0,27,28
 492 518 492 518 504 520 c 0,29,30
 510 521 510 521 520 522 c 1,31,32
 532 522 532 522 549 520 c 0,33,34
 640 510 640 510 690 444 c 0,35,36
 713 414 713 414 752 334 c 0,37,38
 777 282 777 282 783.5 259 c 128,-1,39
 790 236 790 236 790 200 c 0,40,41
 790 167 790 167 786.5 153 c 128,-1,42
 783 139 783 139 772 128 c 0,43,44
 755 109 755 109 747 109 c 0,45,46
 736 109 736 109 714 132 c 128,-1,47
 692 155 692 155 692 167 c 0,48,49
 692 178 692 178 673 234 c 128,-1,50
 654 290 654 290 639 326 c 1,51,52
 625 357 625 357 594 387.5 c 128,-1,53
 563 418 563 418 545 418 c 0,54,55
 531 418 531 418 510 397 c 128,-1,56
 489 376 489 376 489 363 c 0,57,58
 489 358 489 358 483.5 347.5 c 128,-1,59
 478 337 478 337 469.5 308 c 128,-1,60
 461 279 461 279 456 234 c 1,61,62
 446 162 446 162 438 152 c 0,63,64
 431 143 431 143 406 143 c 0,65,66
 401 143 401 143 396 143 c 0,67,68
 383 144 383 144 376 147 c 128,-1,69
 369 150 369 150 363.5 156 c 128,-1,70
 358 162 358 162 356 179 c 128,-1,71
 354 196 354 196 353 217 c 128,-1,72
 352 238 352 238 352 280 c 0,73,74
 350 423 350 423 318 432 c 0,75,76
 307 435 307 435 292 427 c 0,77,78
 274 417 274 417 229 375.5 c 128,-1,79
 184 334 184 334 162 306 c 0,80,81
 145 284 145 284 143 263 c 0,82,83
 143 259 143 259 143 255 c 0,84,85
 143 238 143 238 149 226 c 0,86,87
 157 210 157 210 169 182 c 0,88,89
 180 155 180 155 184 128 c 0,90,91
 186 111 186 111 187 100 c 0,92,93
 187 94 187 94 186 90 c 0,94,95
 184 80 184 80 173 69 c 0,96,97
 158 53 158 53 138 52 c 0,98,99
 137 52 137 52 135 52 c 0,100,101
 117 52 117 52 105 66 c 0,102,103
 97 75 97 75 91 92.5 c 128,-1,104
 85 110 85 110 75.5 149.5 c 128,-1,105
 66 189 66 189 58 215 c 0,106,107
 33 304 33 304 18 417 c 0,108,109
 10 480 10 480 10 512 c 0,110,111
 10 537 10 537 15 543 c 0,0,1
EndSplineSet
Validated: 1
EndChar

StartChar: n
Encoding: 110 110 79
Width: 548
Flags: W
LayerCount: 2
Fore
SplineSet
193 515 m 1,0,1
 198 515 198 515 207 523.5 c 128,-1,2
 216 532 216 532 234 540 c 128,-1,3
 252 548 252 548 277 548 c 0,4,5
 305 548 305 548 321 537 c 128,-1,6
 337 526 337 526 398 469 c 0,7,8
 427 441 427 441 443 425 c 128,-1,9
 459 409 459 409 473 390 c 128,-1,10
 487 371 487 371 492.5 362 c 128,-1,11
 498 353 498 353 504 331 c 128,-1,12
 510 309 510 309 512 295 c 128,-1,13
 514 281 514 281 520 244 c 128,-1,14
 526 207 526 207 531 176 c 1,15,16
 538 141 538 141 538 127.5 c 128,-1,17
 538 114 538 114 522 97 c 0,18,19
 504 78 504 78 494 78 c 1,20,21
 494 78 494 78 494 77 c 1,22,23
 484 77 484 77 468 94 c 0,24,25
 442 124 442 124 430 180 c 128,-1,26
 418 236 418 236 412.5 288 c 128,-1,27
 407 340 407 340 397 355 c 256,28,29
 387 370 387 370 343.5 405.5 c 128,-1,30
 300 441 300 441 283 447 c 0,31,32
 281 448 281 448 278 448 c 0,33,34
 268 448 268 448 242 436 c 0,35,36
 210 421 210 421 196 405 c 0,37,38
 178 383 178 383 159.5 340.5 c 128,-1,39
 141 298 141 298 138 266 c 0,40,41
 133 224 133 224 120 198 c 0,42,43
 112 183 112 183 104.5 178.5 c 128,-1,44
 97 174 97 174 82 176 c 0,45,46
 56 178 56 178 50 190 c 0,47,48
 43 205 43 205 26.5 317.5 c 128,-1,49
 10 430 10 430 10 465 c 0,50,51
 10 514 10 514 32 516 c 0,52,53
 33 516 33 516 33 517 c 1,54,55
 54 517 54 517 79 470 c 0,56,57
 95 439 95 439 104 436 c 1,58,59
 104 436 104 436 105 436 c 0,60,61
 112 436 112 436 150 474 c 0,62,63
 190 514 190 514 193 515 c 1,0,1
EndSplineSet
Validated: 1
EndChar

StartChar: o
Encoding: 111 111 80
Width: 500
Flags: W
LayerCount: 2
Fore
SplineSet
98 491 m 2,0,-1
 136 516 l 1,1,-1
 266 514 l 2,2,3
 357 512 357 512 380.5 509 c 128,-1,4
 404 506 404 506 423 493 c 0,5,6
 449 474 449 474 449 462 c 128,-1,7
 449 450 449 450 469 418 c 0,8,9
 483 397 483 397 486.5 378.5 c 128,-1,10
 490 360 490 360 490 313 c 0,11,12
 490 263 490 263 486 246.5 c 128,-1,13
 482 230 482 230 464 202 c 0,14,15
 410 121 410 121 345 91 c 0,16,17
 320 80 320 80 301 80 c 0,18,19
 299 80 299 80 298 80 c 0,20,21
 278 81 278 81 189 100 c 0,22,23
 148 109 148 109 105 132.5 c 128,-1,24
 62 156 62 156 40 183 c 0,25,26
 19 208 19 208 14.5 221.5 c 128,-1,27
 10 235 10 235 10 275 c 0,28,29
 10 433 10 433 98 491 c 2,0,-1
378 395 m 0,30,31
 370 402 370 402 260 407 c 2,32,-1
 151 412 l 1,33,-1
 134 388 l 2,34,35
 117 364 117 364 106 310 c 1,36,-1
 96 255 l 1,37,-1
 120 231 l 2,38,39
 142 208 142 208 170.5 199 c 128,-1,40
 199 190 199 190 262 188 c 0,41,42
 272 188 272 188 281 188 c 0,43,44
 335 188 335 188 356 198 c 1,45,-1
 380 211 l 1,46,-1
 382 299 l 2,47,48
 383 324 383 324 383 343 c 0,49,50
 383 390 383 390 378 395 c 0,30,31
EndSplineSet
Validated: 1
EndChar

StartChar: p
Encoding: 112 112 81
Width: 422
Flags: W
LayerCount: 2
Fore
SplineSet
138 508 m 0,0,1
 265 506 265 506 337 451 c 2,2,-1
 384 415 l 1,3,-1
 401 357 l 2,4,5
 414 311 414 311 414 271 c 0,6,7
 414 208 414 208 381 158 c 2,8,-1
 354 118 l 1,9,-1
 305 102 l 2,10,11
 256 86 256 86 205 78 c 2,12,-1
 156 71 l 1,13,-1
 156 28 l 1,14,-1
 158 4 l 2,15,16
 165 -81 165 -81 165 -130 c 0,17,18
 165 -184 165 -184 157 -194 c 1,19,20
 144 -202 144 -202 130 -202 c 0,21,22
 113 -202 113 -202 94 -191 c 2,23,-1
 66 -176 l 1,24,-1
 66 -141 l 1,25,26
 56 -99 56 -99 56 -80 c 0,27,28
 55 -38 55 -38 55 -11 c 0,29,30
 55 31 55 31 43 69 c 1,31,32
 15 167 15 167 12 314 c 1,33,34
 4 332 4 332 -25 364 c 2,35,-1
 -63 406 l 1,36,-1
 -43 434 l 1,37,38
 15 501 15 501 102 506 c 0,39,40
 127 508 127 508 138 508 c 0,0,1
249 400 m 1,41,-1
 187 400 l 1,42,43
 128 398 128 398 117 386 c 1,44,45
 107 370 107 370 107 337 c 0,46,47
 107 296 107 296 122 228 c 1,48,49
 126 216 126 216 128 211 c 1,50,51
 135 202 135 202 161 202 c 0,52,53
 185 202 185 202 226 211 c 0,54,55
 235 213 235 213 239 213 c 0,56,57
 299 227 299 227 314 241 c 1,58,59
 320 256 320 256 320 272 c 0,60,61
 320 319 320 319 282 368 c 1,62,-1
 249 400 l 1,41,-1
EndSplineSet
Validated: 1
EndChar

StartChar: q
Encoding: 113 113 82
Width: 857
Flags: W
LayerCount: 2
Fore
SplineSet
633 -70 m 0,0,1
 629 -70 629 -70 586 -102.5 c 128,-1,2
 543 -135 543 -135 539 -135 c 0,3,4
 533 -135 533 -135 514 -122 c 0,5,6
 500 -113 500 -113 498 -99 c 0,7,8
 497 -91 497 -91 497 -70 c 0,9,10
 497 -53 497 -53 498 -26 c 0,11,12
 498 -12 498 -12 498 -1 c 0,13,14
 498 39 498 39 496 53 c 1,15,16
 492 71 492 71 470 111 c 0,17,18
 440 167 440 167 440 174.5 c 128,-1,19
 440 182 440 182 420 215 c 0,20,21
 405 238 405 238 398 242 c 128,-1,22
 391 246 391 246 374 243 c 1,23,24
 349 237 349 237 321 221 c 0,25,26
 302 210 302 210 286 208 c 0,27,28
 279 207 279 207 269 207 c 0,29,30
 253 207 253 207 227 209 c 0,31,32
 150 214 150 214 92 237 c 128,-1,33
 34 260 34 260 34 285 c 0,34,35
 34 294 34 294 22 304 c 128,-1,36
 10 314 10 314 10 339 c 0,37,38
 10 354 10 354 14 372 c 0,39,40
 24 424 24 424 56 469 c 0,41,42
 84 509 84 509 130 531 c 0,43,44
 176 552 176 552 222 554 c 0,45,46
 228 554 228 554 235 555 c 1,47,48
 273 555 273 555 307 547 c 0,49,50
 346 538 346 538 363 523 c 0,51,52
 375 512 375 512 401.5 503 c 128,-1,53
 428 494 428 494 448 475 c 0,54,55
 463 461 463 461 468 449.5 c 128,-1,56
 473 438 473 438 473 417 c 0,57,58
 473 385 473 385 493 307.5 c 128,-1,59
 513 230 513 230 524 207 c 0,60,61
 536 180 536 180 548 150 c 128,-1,62
 560 120 560 120 565 106.5 c 128,-1,63
 570 93 570 93 578 78.5 c 128,-1,64
 586 64 586 64 590 60.5 c 128,-1,65
 594 57 594 57 605 54.5 c 128,-1,66
 616 52 616 52 626 54 c 128,-1,67
 636 56 636 56 657 60 c 1,68,69
 705 72 705 72 731 82 c 0,70,71
 758 93 758 93 784 93 c 1,72,73
 796 92 796 92 808 90 c 0,74,75
 846 82 846 82 847 60 c 0,76,77
 847 46 847 46 821 25.5 c 128,-1,78
 795 5 795 5 770 -1 c 0,79,80
 750 -6 750 -6 724.5 -21.5 c 128,-1,81
 699 -37 699 -37 691 -37 c 0,82,83
 682 -37 682 -37 660 -53.5 c 128,-1,84
 638 -70 638 -70 633 -70 c 0,0,1
302 460 m 0,85,86
 278 473 278 473 250 473 c 1,87,88
 244 472 244 472 238 472 c 0,89,90
 202 468 202 468 171.5 455.5 c 128,-1,91
 141 443 141 443 120 418 c 128,-1,92
 99 393 99 393 99 366 c 0,93,94
 99 336 99 336 120 320.5 c 128,-1,95
 141 305 141 305 189 301 c 0,96,97
 215 298 215 298 235.5 298 c 128,-1,98
 256 298 256 298 272 301 c 0,99,100
 302 307 302 307 326 327 c 2,101,-1
 352 349 l 1,102,-1
 341 398 l 2,103,104
 333 430 333 430 326.5 440.5 c 128,-1,105
 320 451 320 451 302 460 c 0,85,86
EndSplineSet
Validated: 1
EndChar

StartChar: r
Encoding: 114 114 83
Width: 612
Flags: W
LayerCount: 2
Fore
SplineSet
358 486 m 0,0,1
 418 498 418 498 448 498 c 0,2,3
 449 498 449 498 451 498 c 0,4,5
 479 498 479 498 499 487 c 0,6,7
 522 475 522 475 534 475 c 0,8,9
 545 475 545 475 573.5 447.5 c 128,-1,10
 602 420 602 420 602 411 c 0,11,12
 602 403 602 403 577 385 c 2,13,-1
 552 367 l 1,14,-1
 466 382 l 2,15,16
 426 389 426 389 388 389 c 0,17,18
 311 389 311 389 248 360 c 2,19,-1
 219 347 l 1,20,-1
 216 121 l 2,21,22
 216 89 216 89 210 54 c 1,23,24
 208 35 208 35 198 24 c 0,25,26
 184 8 184 8 168 8 c 0,27,28
 167 8 167 8 166 8 c 0,29,30
 155 8 155 8 143 15 c 0,31,32
 112 34 112 34 84 98 c 0,33,34
 65 142 65 142 65 275 c 0,35,36
 65 281 65 281 65 288 c 0,37,38
 65 294 65 294 60 303 c 128,-1,39
 55 312 55 312 43 331 c 128,-1,40
 31 350 31 350 21 370 c 0,41,42
 10 392 10 392 10 399.5 c 128,-1,43
 10 407 10 407 22 427 c 0,44,45
 28 438 28 438 39.5 450 c 128,-1,46
 51 462 51 462 59 466 c 0,47,48
 74 475 74 475 80 474 c 128,-1,49
 86 473 86 473 99 460 c 1,50,51
 116 446 116 446 145 444 c 0,52,53
 150 444 150 444 156 443 c 1,54,55
 178 443 178 443 200 448 c 0,56,57
 226 454 226 454 275.5 467 c 128,-1,58
 325 480 325 480 358 486 c 0,0,1
EndSplineSet
Validated: 1
EndChar

StartChar: s
Encoding: 115 115 84
Width: 478
Flags: W
LayerCount: 2
Fore
SplineSet
215 512 m 0,0,1
 245 518 245 518 262 518 c 0,2,3
 268 518 268 518 273 517 c 0,4,5
 289 514 289 514 317 493 c 0,6,7
 380 446 380 446 380 423 c 0,8,9
 380 418 380 418 376 414 c 0,10,11
 367 402 367 402 341 402 c 0,12,13
 338 402 338 402 335 402 c 0,14,15
 304 403 304 403 292 418 c 1,16,17
 281 430 281 430 258 431 c 0,18,19
 254 431 254 431 249 432 c 1,20,21
 230 432 230 432 208 425 c 0,22,23
 182 417 182 417 160 405.5 c 128,-1,24
 138 394 138 394 125 380.5 c 128,-1,25
 112 367 112 367 115 356 c 1,26,27
 122 339 122 339 149.5 330 c 128,-1,28
 177 321 177 321 239 315 c 0,29,30
 332 307 332 307 369.5 279.5 c 128,-1,31
 407 252 407 252 426 182 c 0,32,33
 433 154 433 154 433 142 c 0,34,35
 433 128 433 128 423 105 c 0,36,37
 415 85 415 85 402 73 c 128,-1,38
 389 61 389 61 355 42 c 0,39,40
 285 2 285 2 253 -3 c 0,41,42
 246 -4 246 -4 238 -4 c 0,43,44
 207 -4 207 -4 153 11 c 0,45,46
 85 30 85 30 58 57 c 0,47,48
 43 72 43 72 42 89 c 0,49,50
 42 102 42 102 51 115.5 c 128,-1,51
 60 129 60 129 69 131 c 0,52,53
 72 132 72 132 80 132 c 0,54,55
 92 132 92 132 114 130 c 0,56,57
 165 125 165 125 179 117 c 0,58,59
 192 110 192 110 225 110 c 0,60,61
 227 110 227 110 230 110 c 0,62,63
 267 110 267 110 290 118 c 0,64,65
 325 130 325 130 331 152 c 0,66,67
 332 157 332 157 333 161 c 1,68,69
 333 179 333 179 313 199 c 0,70,71
 299 214 299 214 286 217 c 128,-1,72
 273 220 273 220 222 220 c 0,73,74
 179 220 179 220 159 223 c 128,-1,75
 139 226 139 226 120 235 c 2,76,-1
 70 259 l 2,77,78
 22 281 22 281 22 348 c 0,79,80
 22 377 22 377 26 390 c 128,-1,81
 30 403 30 403 42 421 c 1,82,83
 67 454 67 454 113 478 c 128,-1,84
 159 502 159 502 215 512 c 0,0,1
EndSplineSet
Validated: 1
EndChar

StartChar: t
Encoding: 116 116 85
Width: 432
Flags: W
LayerCount: 2
Fore
SplineSet
19 708 m 0,0,1
 24 718 24 718 32 718 c 2,2,3
 32 718 32 718 34 718 c 0,4,5
 42 718 42 718 60 711 c 0,6,7
 79 704 79 704 96.5 671 c 128,-1,8
 114 638 114 638 114 607 c 0,9,10
 115 576 115 576 133 511 c 2,11,-1
 150 446 l 1,12,-1
 196 444 l 2,13,14
 242 441 242 441 256 425 c 1,15,16
 270 407 270 407 264 398 c 128,-1,17
 258 389 258 389 241 376.5 c 128,-1,18
 224 364 224 364 205 353.5 c 128,-1,19
 186 343 186 343 174 323 c 0,20,21
 165 308 165 308 164 290 c 0,22,23
 164 284 164 284 165 278 c 0,24,25
 169 258 169 258 185.5 214 c 128,-1,26
 202 170 202 170 218 142 c 0,27,28
 224 130 224 130 266 116 c 128,-1,29
 308 102 308 102 339 101 c 1,30,31
 373 101 373 101 397.5 80.5 c 128,-1,32
 422 60 422 60 422 33 c 0,33,34
 422 2 422 2 406 -5.5 c 128,-1,35
 390 -13 390 -13 327 -13 c 0,36,37
 260 -13 260 -13 230 -2.5 c 128,-1,38
 200 8 200 8 163 45 c 0,39,40
 137 71 137 71 109 123 c 128,-1,41
 81 175 81 175 81 198 c 0,42,43
 81 213 81 213 71 255 c 0,44,45
 66 280 66 280 58 293 c 128,-1,46
 50 306 50 306 34 318 c 0,47,48
 15 333 15 333 12 341 c 0,49,50
 10 345 10 345 10 352.5 c 128,-1,51
 10 360 10 360 12 372 c 0,52,53
 17 406 17 406 34 424 c 2,54,-1
 51 441 l 1,55,-1
 33 527 l 2,56,57
 19 593 19 593 15 644 c 0,58,59
 14 661 14 661 14 674 c 0,60,61
 14 699 14 699 19 708 c 0,0,1
EndSplineSet
Validated: 1
EndChar

StartChar: u
Encoding: 117 117 86
Width: 681
Flags: W
LayerCount: 2
Fore
SplineSet
22 477 m 0,0,1
 35 496 35 496 54 498 c 0,2,3
 56 498 56 498 58 498 c 0,4,5
 74 498 74 498 87 485 c 1,6,7
 107 462 107 462 115 434 c 0,8,9
 123 408 123 408 123 387 c 1,10,-1
 122 381 l 1,11,12
 122 359 122 359 129 331 c 0,13,14
 136 301 136 301 152 275 c 1,15,16
 169 250 169 250 178 244.5 c 128,-1,17
 187 239 187 239 211 239 c 0,18,19
 246 239 246 239 255 250 c 0,20,21
 269 266 269 266 280 309 c 128,-1,22
 291 352 291 352 294 402 c 0,23,24
 298 455 298 455 308 477 c 128,-1,25
 318 499 318 499 338 499 c 0,26,27
 353 499 353 499 370 476 c 128,-1,28
 387 453 387 453 395 423 c 0,29,30
 419 333 419 333 485 278 c 0,31,32
 522 247 522 247 562.5 222.5 c 128,-1,33
 603 198 603 198 618 198 c 0,34,35
 639 198 639 198 655 182 c 128,-1,36
 671 166 671 166 671 145 c 0,37,38
 671 127 671 127 665 119 c 128,-1,39
 659 111 659 111 637 100 c 0,40,41
 609 86 609 86 586 86 c 0,42,43
 580 86 580 86 575 87 c 0,44,45
 548 92 548 92 497 117 c 128,-1,46
 446 142 446 142 408 171 c 1,47,-1
 368 200 l 1,48,-1
 322 154 l 2,49,50
 288 121 288 121 275.5 115 c 128,-1,51
 263 109 263 109 228 109 c 0,52,53
 183 109 183 109 153.5 123 c 128,-1,54
 124 137 124 137 96 172 c 0,55,56
 63 213 63 213 48 243 c 128,-1,57
 33 273 33 273 23 319 c 0,58,59
 10 380 10 380 10 420 c 0,60,61
 10 458 10 458 22 477 c 0,0,1
EndSplineSet
Validated: 1
EndChar

StartChar: v
Encoding: 118 118 87
Width: 410
Flags: W
LayerCount: 2
Fore
SplineSet
91 332 m 128,-1,1
 91 335 91 335 50.5 396.5 c 128,-1,2
 10 458 10 458 10 475 c 0,3,4
 10 483 10 483 26 499 c 0,5,6
 43 516 43 516 62 516 c 0,7,8
 73 516 73 516 85 510 c 0,9,10
 116 492 116 492 148 431 c 1,11,12
 161 404 161 404 172.5 387 c 128,-1,13
 184 370 184 370 188.5 365.5 c 128,-1,14
 193 361 193 361 195 357 c 128,-1,15
 197 353 197 353 197 346 c 0,16,17
 197 333 197 333 219 302.5 c 128,-1,18
 241 272 241 272 251 272 c 256,19,20
 261 272 261 272 273 291 c 128,-1,21
 285 310 285 310 290 337 c 0,22,23
 296 365 296 365 317 433 c 0,24,25
 329 473 329 473 337.5 489 c 128,-1,26
 346 505 346 505 358 510 c 0,27,28
 368 514 368 514 373 514 c 0,29,30
 374 514 374 514 376 514 c 0,31,32
 382 513 382 513 390 505 c 0,33,34
 400 495 400 495 400 483 c 128,-1,35
 400 471 400 471 393 436 c 2,36,-1
 368 290 l 2,37,38
 349 181 349 181 324 141 c 128,-1,39
 299 101 299 101 250 101 c 0,40,41
 221 101 221 101 209 110 c 128,-1,42
 197 119 197 119 197 140 c 0,43,44
 197 151 197 151 190.5 164 c 128,-1,45
 184 177 184 177 167.5 203.5 c 128,-1,46
 151 230 151 230 138 254 c 0,47,48
 125 279 125 279 113 297.5 c 128,-1,49
 101 316 101 316 96 322.5 c 128,-1,0
 91 329 91 329 91 332 c 128,-1,1
EndSplineSet
Validated: 1
EndChar

StartChar: w
Encoding: 119 119 88
Width: 633
Flags: W
LayerCount: 2
Fore
SplineSet
329 247 m 0,0,1
 325 247 325 247 313.5 229.5 c 128,-1,2
 302 212 302 212 287 190.5 c 128,-1,3
 272 169 272 169 246 151 c 128,-1,4
 220 133 220 133 192 133 c 0,5,6
 173 133 173 133 158.5 143 c 128,-1,7
 144 153 144 153 108 191 c 0,8,9
 53 249 53 249 53 261 c 0,10,11
 53 267 53 267 47.5 278.5 c 128,-1,12
 42 290 42 290 33 317 c 128,-1,13
 24 344 24 344 17 383 c 0,14,15
 10 423 10 423 10 436.5 c 128,-1,16
 10 450 10 450 22 462 c 0,17,18
 33 474 33 474 38 474 c 128,-1,19
 43 474 43 474 59 461 c 0,20,21
 70 453 70 453 75.5 446 c 128,-1,22
 81 439 81 439 83 433 c 128,-1,23
 85 427 85 427 90 411.5 c 128,-1,24
 95 396 95 396 103 379 c 0,25,26
 118 345 118 345 118 332 c 0,27,28
 118 314 118 314 137.5 288.5 c 128,-1,29
 157 263 157 263 179 251 c 2,30,-1
 207 236 l 1,31,-1
 232 259 l 2,32,33
 257 283 257 283 257 297.5 c 128,-1,34
 257 312 257 312 282 357 c 0,35,36
 298 385 298 385 306.5 393.5 c 128,-1,37
 315 402 315 402 329 402 c 0,38,39
 346 402 346 402 358 389 c 128,-1,40
 370 376 370 376 420 307 c 0,41,42
 439 280 439 280 461 270 c 0,43,44
 472 265 472 265 482 264 c 0,45,46
 491 264 491 264 500 269 c 0,47,48
 512 277 512 277 527 325 c 0,49,50
 538 361 538 361 538 380 c 0,51,52
 538 386 538 386 537 390 c 0,53,54
 535 401 535 401 523 418 c 128,-1,55
 511 435 511 435 502 448 c 128,-1,56
 493 461 493 461 493 481.5 c 128,-1,57
 493 502 493 502 509 524 c 0,58,59
 525 547 525 547 549 547 c 0,60,61
 552 547 552 547 558 546 c 0,62,63
 588 541 588 541 607 507 c 0,64,65
 623 477 623 477 623 422 c 0,66,67
 623 393 623 393 619 357 c 0,68,69
 606 252 606 252 570 200 c 0,70,71
 553 175 553 175 529 158 c 128,-1,72
 505 141 505 141 486 141 c 0,73,74
 459 141 459 141 422 167.5 c 128,-1,75
 385 194 385 194 358 220.5 c 128,-1,76
 331 247 331 247 329 247 c 0,0,1
EndSplineSet
Validated: 1
EndChar

StartChar: x
Encoding: 120 120 89
Width: 440
Flags: W
LayerCount: 2
Fore
SplineSet
266 455 m 1,0,1
 304 496 304 496 318 506 c 0,2,3
 330 514 330 514 343 514 c 0,4,5
 346 514 346 514 348 514 c 0,6,7
 364 512 364 512 368.5 506.5 c 128,-1,8
 373 501 373 501 374 480 c 0,9,10
 374 476 374 476 374 471 c 0,11,12
 374 454 374 454 368 442 c 0,13,14
 360 426 360 426 340 397.5 c 128,-1,15
 320 369 320 369 306 344 c 1,16,17
 296 324 296 324 297 318 c 128,-1,18
 298 312 298 312 316 298 c 1,19,20
 339 278 339 278 377 254 c 0,21,22
 413 232 413 232 424 208 c 0,23,24
 430 196 430 196 430 182 c 128,-1,25
 430 168 430 168 424 152 c 0,26,27
 414 128 414 128 406 118 c 0,28,29
 400 111 400 111 391 111 c 0,30,31
 388 111 388 111 382 112 c 0,32,33
 366 116 366 116 344.5 132.5 c 128,-1,34
 323 149 323 149 283 184 c 1,35,-1
 223 239 l 1,36,-1
 202 213 l 2,37,38
 166 167 166 167 148 151 c 1,39,40
 131 134 131 134 119 134 c 2,41,-1
 118 134 l 2,42,43
 106 134 106 134 91 150 c 0,44,45
 76 165 76 165 76 186 c 0,46,47
 76 201 76 201 82 215 c 0,48,49
 89 230 89 230 98.5 251.5 c 128,-1,50
 108 273 108 273 111 288 c 0,51,52
 112 296 112 296 112 302 c 0,53,54
 112 313 112 313 108 320 c 0,55,56
 101 331 101 331 63 366 c 0,57,58
 33 394 33 394 21.5 409.5 c 128,-1,59
 10 425 10 425 10 437 c 0,60,61
 10 458 10 458 23 478.5 c 128,-1,62
 36 499 36 499 49 499 c 0,63,64
 59 499 59 499 120 451 c 128,-1,65
 181 403 181 403 192 399 c 0,66,67
 201 396 201 396 216 407.5 c 128,-1,68
 231 419 231 419 266 455 c 1,0,1
EndSplineSet
Validated: 1
EndChar

StartChar: y
Encoding: 121 121 90
Width: 522
Flags: W
LayerCount: 2
Fore
SplineSet
18 544 m 0,0,1
 28 556 28 556 45 556 c 2,2,3
 45 556 45 556 46 556 c 0,4,5
 64 556 64 556 77 541 c 0,6,7
 89 528 89 528 104 463 c 0,8,9
 113 423 113 423 118 405.5 c 128,-1,10
 123 388 123 388 133.5 376 c 128,-1,11
 144 364 144 364 156 362 c 0,12,13
 161 361 161 361 168 362 c 1,14,15
 178 362 178 362 192 363 c 2,16,-1
 241 365 l 1,17,-1
 264 414 l 2,18,19
 290 469 290 469 297 478 c 128,-1,20
 304 487 304 487 319 487 c 0,21,22
 339 487 339 487 354 456 c 1,23,24
 362 436 362 436 364 418 c 0,25,26
 364 412 364 412 365 408 c 1,27,28
 364 396 364 396 362 386 c 0,29,30
 358 372 358 372 354.5 347 c 128,-1,31
 351 322 351 322 351 298 c 0,32,33
 351 279 351 279 381.5 215.5 c 128,-1,34
 412 152 412 152 432 129 c 0,35,36
 445 113 445 113 467 69.5 c 128,-1,37
 489 26 489 26 489 14 c 0,38,39
 489 1 489 1 503 -42 c 0,40,41
 512 -72 512 -72 512 -82 c 0,42,43
 512 -91 512 -91 495 -113 c 0,44,45
 475 -140 475 -140 432 -163 c 0,46,47
 402 -180 402 -180 384 -182 c 0,48,49
 376 -183 376 -183 360 -183 c 0,50,51
 340 -183 340 -183 308 -181 c 0,52,53
 258 -179 258 -179 231 -173.5 c 128,-1,54
 204 -168 204 -168 172 -155 c 0,55,56
 118 -132 118 -132 108 -122 c 0,57,58
 100 -114 100 -114 100 -95 c 0,59,60
 100 -89 100 -89 101 -83 c 0,61,62
 102 -58 102 -58 107 -53.5 c 128,-1,63
 112 -49 112 -49 138 -47 c 0,64,65
 142 -47 142 -47 146 -47 c 0,66,67
 179 -47 179 -47 223 -61 c 1,68,69
 274 -79 274 -79 324 -79 c 1,70,71
 324 -78 324 -78 326 -78 c 0,72,73
 378 -78 378 -78 397 -60 c 0,74,75
 416 -43 416 -43 416 -30 c 0,76,77
 415 -16 415 -16 391 23.5 c 128,-1,78
 367 63 367 63 335 113 c 128,-1,79
 303 163 303 163 291 190 c 0,80,81
 289 193 289 193 287 199 c 0,82,83
 267 244 267 244 256 252 c 128,-1,84
 245 260 245 260 198 262 c 0,85,86
 192 262 192 262 189 262 c 0,87,88
 144 263 144 263 126.5 268 c 128,-1,89
 109 273 109 273 86 289 c 0,90,91
 50 313 50 313 50 321 c 128,-1,92
 50 329 50 329 33 367 c 0,93,94
 18 402 18 402 12 466 c 0,95,96
 10 486 10 486 10 501 c 0,97,98
 10 534 10 534 18 544 c 0,0,1
EndSplineSet
Validated: 1
EndChar

StartChar: z
Encoding: 122 122 91
Width: 526
Flags: W
LayerCount: 2
Fore
SplineSet
99 534 m 0,0,1
 207 538 207 538 260 538 c 0,2,3
 272 538 272 538 280 538 c 0,4,5
 330 537 330 537 347 529 c 0,6,7
 372 516 372 516 388.5 481.5 c 128,-1,8
 405 447 405 447 405 409 c 0,9,10
 405 380 405 380 409.5 369 c 128,-1,11
 414 358 414 358 431 344 c 0,12,13
 454 325 454 325 454 314 c 0,14,15
 454 296 454 296 399 296 c 0,16,17
 367 296 367 296 356.5 292 c 128,-1,18
 346 288 346 288 332 269 c 0,19,20
 285 208 285 208 285 180 c 0,21,22
 285 173 285 173 288 167 c 1,23,24
 294 159 294 159 313.5 156 c 128,-1,25
 333 153 333 153 395 151 c 1,26,27
 431 151 431 151 448 149.5 c 128,-1,28
 465 148 465 148 479.5 146 c 128,-1,29
 494 144 494 144 499.5 138 c 128,-1,30
 505 132 505 132 508 125.5 c 128,-1,31
 511 119 511 119 514 104 c 0,32,33
 516 96 516 96 516 90 c 0,34,35
 516 79 516 79 510 73 c 0,36,37
 500 64 500 64 462 53 c 0,38,39
 414 38 414 38 350 37 c 0,40,41
 345 37 345 37 341 37 c 0,42,43
 284 37 284 37 251 49 c 0,44,45
 202 66 202 66 190 100 c 0,46,47
 185 114 185 114 185 136 c 0,48,49
 185 166 185 166 194 209 c 0,50,51
 201 245 201 245 201 256 c 128,-1,52
 201 267 201 267 188 282 c 0,53,54
 170 301 170 301 170 323 c 0,55,56
 170 344 170 344 186 353 c 0,57,58
 201 361 201 361 235 361 c 0,59,60
 268 361 268 361 288 378 c 128,-1,61
 308 395 308 395 308 423 c 0,62,63
 308 449 308 449 295 459 c 0,64,65
 288 465 288 465 265 465 c 0,66,67
 222 465 222 465 123 441 c 0,68,69
 83 431 83 431 66.5 430.5 c 128,-1,70
 50 430 50 430 40 437.5 c 128,-1,71
 30 445 30 445 18 469 c 0,72,73
 10 485 10 485 10 492 c 128,-1,74
 10 499 10 499 18.5 512 c 128,-1,75
 27 525 27 525 40.5 528.5 c 128,-1,76
 54 532 54 532 99 534 c 0,0,1
EndSplineSet
Validated: 1
EndChar

StartChar: braceleft
Encoding: 123 123 92
Width: 630
Flags: W
LayerCount: 2
Fore
SplineSet
462 488 m 1,0,1
 405 499 405 499 373 541 c 1,2,3
 359 562 359 562 358 590 c 1,4,5
 358 636 358 636 395 702 c 1,6,7
 424 749 424 749 454 768 c 1,8,-1
 483 784 l 1,9,-1
 498 776 l 1,10,11
 510 765 510 765 512 750 c 1,12,-1
 512 731 l 1,13,-1
 484 703 l 2,14,15
 455 675 455 675 455 669 c 1,16,17
 461 663 461 663 484 659 c 2,18,-1
 514 655 l 1,19,-1
 553 614 l 1,20,-1
 593 573 l 1,21,-1
 589 552 l 1,22,23
 583 530 583 530 565 507 c 2,24,-1
 545 482 l 1,25,-1
 520 483 l 2,26,27
 494 484 494 484 462 488 c 1,0,1
118 456 m 1,28,29
 72 480 72 480 46 525 c 1,30,-1
 34 549 l 1,31,-1
 38 619 l 1,32,33
 43 686 43 686 50 704 c 1,34,35
 72 739 72 739 130 757 c 1,36,-1
 150 762 l 1,37,-1
 161 750 l 2,38,39
 169 741 169 741 172 737 c 1,40,41
 167 730 167 730 140 700 c 2,42,-1
 108 666 l 1,43,-1
 108 643 l 1,44,-1
 108 621 l 1,45,-1
 166 620 l 1,46,-1
 225 619 l 1,47,-1
 243 601 l 1,48,-1
 261 583 l 1,49,-1
 264 541 l 1,50,-1
 267 499 l 1,51,-1
 242 480 l 1,52,53
 196 447 196 447 151 446 c 1,54,55
 137 448 137 448 118 456 c 1,28,29
EndSplineSet
Validated: 1
EndChar

StartChar: braceright
Encoding: 125 125 94
Width: 598
Flags: W
LayerCount: 2
Fore
SplineSet
417 429 m 1,0,1
 411 438 411 438 411 450 c 0,2,3
 411 470 411 470 428 497 c 0,4,5
 446 527 446 527 456 553 c 2,6,-1
 465 579 l 1,7,-1
 453 588 l 1,8,9
 439 596 439 596 414 600 c 1,10,11
 364 612 364 612 344 645 c 1,12,-1
 334 665 l 1,13,-1
 338 689 l 1,14,15
 354 750 354 750 411 750 c 0,16,17
 425 750 425 750 441 747 c 1,18,19
 468 738 468 738 489 722 c 2,20,-1
 510 705 l 1,21,-1
 524 657 l 1,22,-1
 538 610 l 1,23,-1
 533 566 l 1,24,-1
 529 523 l 1,25,-1
 508 494 l 2,26,27
 488 466 488 466 477 445 c 2,28,-1
 466 425 l 1,29,-1
 446 423 l 1,30,31
 427 423 427 423 417 429 c 1,0,1
162 398 m 1,32,33
 161 401 161 401 161 406 c 0,34,35
 161 432 161 432 191 484 c 1,36,-1
 206 509 l 1,37,-1
 204 534 l 1,38,-1
 202 560 l 1,39,-1
 154 561 l 2,40,41
 153 561 153 561 152 561 c 0,42,43
 103 562 103 562 92.5 564.5 c 128,-1,44
 82 567 82 567 68 580 c 2,45,-1
 49 597 l 1,46,-1
 53 616 l 2,47,48
 58 636 58 636 67 666 c 2,49,-1
 77 697 l 1,50,-1
 105 715 l 1,51,-1
 133 734 l 1,52,-1
 149 726 l 1,53,54
 165 720 165 720 178 719 c 1,55,56
 198 719 198 719 215 686 c 0,57,58
 219 679 219 679 219 674 c 1,59,60
 222 661 222 661 238 636 c 0,61,62
 269 587 269 587 269 541 c 0,63,64
 269 510 269 510 255 481 c 0,65,66
 209 390 209 390 174 388 c 1,67,68
 166 393 166 393 162 398 c 1,32,33
EndSplineSet
Validated: 1
EndChar

